<svg width="139" height="28" viewBox="0 0 139 28" fill="none" xmlns="http://www.w3.org/2000/svg">
<path d="M2.47029 2.43528H9.56685V0.0327148H0.0644531V13.8009H2.47029V2.43528Z" fill="#111111"/>
<path d="M27.5998 13.8008H25.1972V25.1631H17.8457V27.569H27.5998V13.8008Z" fill="#111111"/>
<path d="M0 27.5658L18.5995 0H27.5985L9.16244 27.569L0 27.5658Z" fill="#FF671B"/>
<path d="M53.0554 7.34494L43.5072 20.7045H52.9966V23.8883H38.9473V21.0575L48.5543 7.81565H39.1238V4.63184H53.0554V7.34494V7.34494Z" fill="black"/>
<path d="M67.9635 10.4992V23.8882H64.7502V21.9956C64.2893 22.6984 63.6323 23.2573 62.7694 23.6659C61.9195 24.0778 60.965 24.2805 59.9092 24.2805C58.667 24.2805 57.5622 23.9928 56.5946 23.4142C55.6368 22.8291 54.8948 22.0054 54.3653 20.9496C53.8357 19.8839 53.5742 18.6483 53.5742 17.2395C53.5742 15.8208 53.8521 14.5689 54.411 13.4836C54.97 12.3886 55.7447 11.5485 56.7417 10.9601C57.7485 10.3652 58.9024 10.0645 60.2033 10.0645C61.2199 10.0645 62.1352 10.2508 62.9459 10.6201C63.7663 10.9928 64.4168 11.5158 64.8973 12.1892L65.1621 10.4894H67.9635V10.4992ZM60.7492 21.2503C61.8737 21.2503 62.789 20.8678 63.4918 20.1062C64.2044 19.3446 64.5607 18.3509 64.5607 17.1283C64.5607 15.9058 64.2142 14.9284 63.5179 14.1962C62.8347 13.4542 61.9195 13.0816 60.7754 13.0816C59.6313 13.0816 58.7128 13.4575 58.0198 14.2093C57.3366 14.9513 56.9934 15.9352 56.9934 17.1577C56.9934 18.3803 57.3399 19.3675 58.0361 20.1193C58.7291 20.8711 59.6346 21.2503 60.7492 21.2503Z" fill="black"/>
<path d="M71.845 7.87455C71.1619 7.87455 70.5996 7.65881 70.1583 7.2306C69.7171 6.79911 69.498 6.2663 69.498 5.63215C69.498 4.9882 69.7171 4.45539 70.1583 4.03371C70.5996 3.61204 71.1619 3.40283 71.845 3.40283C72.5282 3.40283 73.0807 3.61204 73.5023 4.03371C73.9338 4.45539 74.1463 4.9882 74.1463 5.63215C74.1463 6.24669 73.9273 6.77623 73.486 7.21752C73.048 7.65554 72.5021 7.87455 71.845 7.87455ZM70.1583 10.4994H73.5154V23.8884H70.1583V10.4994Z" fill="black"/>
<path d="M80.5655 24.2838C78.905 24.2838 77.5484 23.8915 76.5024 23.1103C75.4662 22.329 74.9072 21.2765 74.832 19.9559H78.1303C78.1695 20.5312 78.4081 20.979 78.8494 21.2896C79.2907 21.6034 79.8529 21.7603 80.5361 21.7603C81.2193 21.7603 81.7488 21.6295 82.1215 21.3647C82.5039 21.1 82.6935 20.7208 82.6935 20.2207C82.6935 19.7598 82.5431 19.4296 82.2391 19.2237C81.9449 19.0079 81.5592 18.851 81.082 18.753L78.8232 18.2104C77.5615 17.926 76.6331 17.452 76.0382 16.7884C75.4531 16.1151 75.1589 15.3077 75.1589 14.3695C75.1589 13.0685 75.6525 12.0291 76.6397 11.2445C77.6367 10.4633 78.9278 10.071 80.5099 10.071C82.0953 10.071 83.3734 10.4633 84.3508 11.2445C85.3281 12.0258 85.8381 13.0587 85.8773 14.3401H82.5791C82.5791 13.804 82.383 13.3758 81.994 13.0653C81.6017 12.7515 81.0885 12.5946 80.4544 12.5946C79.8791 12.5946 79.4182 12.722 79.0749 12.977C78.7317 13.2222 78.5617 13.5719 78.5617 14.0328C78.5617 14.4937 78.6925 14.8141 78.9573 15.0004C79.2318 15.1769 79.6274 15.3273 80.1438 15.4548L82.7262 16.0399C83.8899 16.3243 84.7496 16.808 85.3085 17.4912C85.874 18.1646 86.1584 18.9785 86.1584 19.9265C86.1584 21.2471 85.6485 22.3029 84.6319 23.0939C83.6186 23.8883 82.2653 24.2838 80.5655 24.2838Z" fill="black"/>
<path d="M94.7383 13.2549H92.1854V23.8883H88.8283V13.2549H86.2754V10.4993H88.8283V6.97876H92.1854V10.4993H94.7383V13.2549Z" fill="black"/>
<path d="M94.6777 17.1871C94.6777 15.8273 94.985 14.6113 95.6028 13.5359C96.2271 12.4506 97.0934 11.604 98.1982 10.9993C99.3129 10.3848 100.578 10.0742 101.997 10.0742C103.415 10.0742 104.68 10.3815 105.795 10.9993C106.91 11.604 107.776 12.4506 108.39 13.5359C109.015 14.6113 109.328 15.8273 109.328 17.1871C109.328 18.5273 109.015 19.7401 108.39 20.8253C107.776 21.9105 106.91 22.7604 105.795 23.3782C104.69 23.983 103.425 24.287 101.997 24.287C100.578 24.287 99.3129 23.983 98.1982 23.3782C97.0934 22.7637 96.2271 21.9171 95.6028 20.8416C94.985 19.7531 94.6777 18.5371 94.6777 17.1871ZM98.123 17.1577C98.123 18.3606 98.4859 19.3478 99.2083 20.1192C99.9307 20.8907 100.859 21.2764 101.993 21.2764C103.157 21.2764 104.102 20.8907 104.824 20.1192C105.546 19.3478 105.909 18.3606 105.909 17.1577C105.909 15.9548 105.546 14.9741 104.824 14.2092C104.102 13.4378 103.157 13.0521 101.993 13.0521C100.849 13.0521 99.9143 13.4378 99.1919 14.2092C98.4793 14.9709 98.123 15.9548 98.123 17.1577Z" fill="black"/>
<path d="M109.982 17.1578C109.982 15.7588 110.277 14.5264 110.862 13.4608C111.457 12.3854 112.293 11.5551 113.369 10.9667C114.454 10.3718 115.686 10.071 117.066 10.071C118.903 10.071 120.433 10.5548 121.655 11.5224C122.878 12.4801 123.581 13.7648 123.767 15.3796H120.335C120.139 14.6179 119.75 14.0361 119.161 13.634C118.586 13.2222 117.877 13.0195 117.033 13.0195C115.928 13.0195 115.039 13.3954 114.363 14.1472C113.699 14.8893 113.366 15.9026 113.366 17.184C113.366 18.4261 113.689 19.4231 114.333 20.1749C114.987 20.9267 115.879 21.3026 117.004 21.3026C117.883 21.3026 118.619 21.0869 119.204 20.6587C119.799 20.2272 120.178 19.6715 120.331 18.9883H123.764C123.568 20.5737 122.855 21.8518 121.623 22.8292C120.4 23.7967 118.89 24.2805 117.092 24.2805C115.693 24.2805 114.451 23.9863 113.366 23.4012C112.29 22.8063 111.453 21.9695 110.858 20.894C110.273 19.8121 109.982 18.5667 109.982 17.1578Z" fill="black"/>
<path d="M133.235 15.4549L137.766 23.8884H133.984L130.833 17.9359L128.574 20.2829V23.8917H125.217V3.28516H128.574V16.1773L133.866 10.5027H138.001L133.235 15.4549Z" fill="black"/>
</svg>
