<svg width="144" height="61" viewBox="0 0 144 61" fill="none" xmlns="http://www.w3.org/2000/svg">
<path fill-rule="evenodd" clip-rule="evenodd" d="M144.001 31.6413C144.001 21.3965 139.041 13.3126 129.561 13.3126C120.041 13.3126 114.281 21.3965 114.281 31.5614C114.281 43.6074 121.081 49.6901 130.841 49.6901C135.601 49.6901 139.201 48.6096 141.921 47.0888V39.0848C139.201 40.4455 136.081 41.286 132.121 41.286C128.241 41.286 124.801 39.9253 124.361 35.203H143.921C143.921 34.6827 144.001 32.6017 144.001 31.6413ZM124.241 27.8394C124.241 23.3172 127.001 21.4362 129.521 21.4362C131.961 21.4362 134.561 23.3172 134.561 27.8394H124.241Z" fill="#635BFF"/>
<path fill-rule="evenodd" clip-rule="evenodd" d="M98.8398 13.3126C94.9199 13.3126 92.3997 15.1534 90.9997 16.4342L90.4797 13.953H81.6797V60.6156L91.6797 58.4946L91.7196 47.1693C93.1596 48.2098 95.2796 49.6904 98.7996 49.6904C105.96 49.6904 112.48 43.9276 112.48 31.2415C112.44 19.6357 105.84 13.3126 98.8398 13.3126ZM96.4397 40.8859C94.0795 40.8859 92.6798 40.0454 91.7196 39.0049L91.6797 24.1576C92.7197 22.997 94.1597 22.1967 96.4397 22.1967C100.08 22.1967 102.6 26.2786 102.6 31.5212C102.6 36.8839 100.12 40.8859 96.4397 40.8859Z" fill="#635BFF"/>
<path fill-rule="evenodd" clip-rule="evenodd" d="M67.918 10.9513L77.9579 8.79035V0.666504L67.918 2.78751V10.9513Z" fill="#635BFF"/>
<path d="M77.9579 13.9927H67.918V49.0094H77.9579V13.9927Z" fill="#635BFF"/>
<path fill-rule="evenodd" clip-rule="evenodd" d="M57.1629 16.9541L56.5228 13.9926H47.8828V49.0094H57.8828V25.278C60.2427 22.1964 64.2428 22.7569 65.4828 23.1969V13.9926C64.2028 13.5126 59.5227 12.6322 57.1629 16.9541Z" fill="#635BFF"/>
<path fill-rule="evenodd" clip-rule="evenodd" d="M37.1594 5.30859L27.3993 7.38964L27.3594 39.4449C27.3594 45.3679 31.7993 49.73 37.7194 49.73C40.9995 49.73 43.3993 49.1295 44.7194 48.4092V40.2854C43.4395 40.8056 37.1195 42.6464 37.1195 36.7238V22.5169H44.7194V13.9929H37.1195L37.1594 5.30859Z" fill="#635BFF"/>
<path fill-rule="evenodd" clip-rule="evenodd" d="M10.1201 24.1576C10.1201 22.5968 11.4 21.9967 13.52 21.9967C16.5599 21.9967 20.4 22.9171 23.4401 24.558V15.1534C20.1201 13.8329 16.84 13.3126 13.52 13.3126C5.40007 13.3126 0 17.5546 0 24.6379C0 35.6833 15.2001 33.9224 15.2001 38.6847C15.2001 40.5257 13.6002 41.1259 11.3601 41.1259C8.04006 41.1259 3.8001 39.7652 0.440139 37.9244V47.449C4.16009 49.0497 7.92025 49.7301 11.3601 49.7301C19.68 49.7301 25.4001 45.6079 25.4001 38.4447C25.3602 26.5189 10.1201 28.6399 10.1201 24.1576Z" fill="#635BFF"/>
</svg>
