<svg width="115" height="115" viewBox="0 0 115 115" fill="none" xmlns="http://www.w3.org/2000/svg">
<g clip-path="url(#clip0_1552_3586)">
<path d="M86.8865 20.7298C84.3692 18.3332 80.7191 17.5538 77.4425 18.7133C76.5159 19.0229 75.841 19.8262 75.6961 20.7922L74.9683 25.7923C73.8649 33.3445 67.403 38.9532 59.7707 38.9837H49.3755C48.1827 38.9839 47.1434 39.7962 46.8547 40.9534L39.0584 72.1386C38.7109 73.5312 39.5583 74.9416 40.9509 75.2891C41.1563 75.3402 41.3673 75.3663 41.579 75.3663H54.5727C55.7656 75.3661 56.8049 74.5538 57.0936 73.3965L61.7975 54.5763H71.9327C79.7129 54.6021 86.5 49.2991 88.3568 41.7436L90.2747 34.0564C91.6249 29.3279 90.3307 24.2392 86.8865 20.7298Z" fill="#03A9F4"/>
<path d="M2.59812 106.551C1.16287 106.551 -0.000487115 105.387 1.53013e-07 103.952C1.53013e-07 103.74 0.026069 103.529 0.0772322 103.324L2.67608 92.981V92.8719L5.27492 82.534C5.56363 81.3767 6.60297 80.5645 7.79581 80.5642H14.4071C17.9953 80.5635 20.9045 83.4715 20.9055 87.0597C20.9055 87.5911 20.8405 88.1205 20.7118 88.6361L20.0621 91.2349C19.3392 94.1281 16.7396 96.1575 13.7575 96.1571H7.22911L5.12411 104.582C4.83492 105.741 3.79265 106.554 2.59812 106.551ZM8.52842 90.9589H13.757C14.3532 90.9572 14.8717 90.5501 15.0149 89.9714L15.6647 87.3726C15.8428 86.6804 15.4257 85.9748 14.7335 85.797C14.6268 85.7695 14.5172 85.7558 14.4068 85.7563H9.82772L8.52842 90.9589Z" fill="#283593"/>
<path d="M30.3904 106.551H26.6899C22.7113 106.552 19.4854 103.328 19.4844 99.3494C19.4841 98.7601 19.5565 98.1729 19.6993 97.6013L20.0423 96.2187C20.8115 93.1158 23.6023 90.9411 26.799 90.9535H30.4996C34.4781 90.9604 37.6977 94.1912 37.6909 98.1697C37.6899 98.7562 37.6173 99.3402 37.4748 99.9088L37.1318 101.291C36.3619 104.387 33.5798 106.557 30.3904 106.551ZM24.7459 98.8644C24.4789 99.9398 25.1343 101.028 26.2097 101.295C26.3668 101.334 26.5278 101.354 26.6899 101.354H30.3904C31.1917 101.356 31.891 100.811 32.0849 100.034L32.4279 98.6512C32.695 97.5758 32.0396 96.4877 30.9642 96.2207C30.807 96.1817 30.646 96.162 30.484 96.1615H26.7834C25.9821 96.1593 25.2829 96.704 25.0889 97.4817L24.7459 98.8644Z" fill="#283593"/>
<path d="M33.7817 106.551C32.3465 106.551 31.1834 105.387 31.1836 103.952C31.1836 103.74 31.2097 103.529 31.2608 103.324L33.8597 92.9286C34.2071 91.535 35.6182 90.6867 37.0121 91.0341C38.4056 91.3816 39.254 92.7927 38.9066 94.1865L36.3077 104.582C36.0185 105.741 34.9762 106.554 33.7817 106.551Z" fill="#283593"/>
<path d="M64.9692 106.551C63.534 106.551 62.3709 105.387 62.3711 103.952C62.3711 103.74 62.3972 103.529 62.4483 103.324L65.0472 92.9808V92.8716L67.646 82.5337C67.9347 81.3765 68.9741 80.5642 70.1669 80.564H76.7782C80.3664 80.5632 83.2756 83.4713 83.2766 87.0595C83.2766 87.5909 83.2116 88.1203 83.0829 88.6358L82.4332 91.2347C81.7103 94.1278 79.1107 96.1573 76.1286 96.1568H69.6005L67.4954 104.582C67.206 105.741 66.1637 106.554 64.9692 106.551ZM70.8995 90.9589H76.1335C76.7297 90.9572 77.2481 90.55 77.3914 89.9714L78.0412 87.3726C78.219 86.6804 77.8022 85.9748 77.11 85.797C77.0033 85.7695 76.8934 85.7558 76.7833 85.7563H72.1991L70.8995 90.9589Z" fill="#03A9F4"/>
<path d="M92.7615 106.551H89.061C85.0824 106.552 81.8564 103.328 81.8555 99.3494C81.8552 98.7601 81.9276 98.1729 82.0704 97.6013L82.4134 96.2187C83.1825 93.1158 85.9734 90.9411 89.1701 90.9535H92.8707C96.8492 90.9526 100.075 94.1771 100.076 98.1556C100.076 98.745 100.004 99.3321 99.8612 99.9037L99.5182 101.286C98.7491 104.389 95.9582 106.564 92.7615 106.551ZM87.117 98.8643C86.85 99.9397 87.5053 101.028 88.5807 101.295C88.7379 101.334 88.8989 101.354 89.061 101.354H92.7615C93.5628 101.356 94.262 100.811 94.456 100.034L94.799 98.6512C95.066 97.5758 94.4107 96.4877 93.3353 96.2207C93.1781 96.1817 93.0171 96.162 92.8551 96.1615H89.1545C88.3532 96.1593 87.654 96.704 87.46 97.4817L87.117 98.8643Z" fill="#03A9F4"/>
<path d="M96.1528 106.551C94.7176 106.551 93.5544 105.387 93.5547 103.952C93.5547 103.74 93.5808 103.529 93.6319 103.324L96.2308 92.9286C96.5782 91.535 97.9893 90.6867 99.3832 91.0341C100.777 91.3816 101.625 92.7927 101.278 94.1865L98.6788 104.582C98.3896 105.741 97.3473 106.554 96.1528 106.551Z" fill="#03A9F4"/>
<path d="M49.3751 103.953C48.5058 103.952 47.6945 103.517 47.2128 102.794L42.0154 94.9975C41.2187 93.8035 41.541 92.1896 42.7353 91.3929C43.9296 90.5963 45.5432 90.9186 46.3399 92.1129L51.5373 99.9092C52.3352 101.102 52.0151 102.716 50.8223 103.514C50.394 103.801 49.8901 103.953 49.3751 103.953Z" fill="#283593"/>
<path d="M44.176 111.749C42.7407 111.749 41.5776 110.585 41.5781 109.149C41.5784 108.542 41.7913 107.954 42.1801 107.487L55.1739 91.8945C56.0938 90.7923 57.7333 90.6444 58.8355 91.5644C59.9377 92.4844 60.0855 94.1238 59.1656 95.226L46.1718 110.819C45.6775 111.409 44.9464 111.75 44.176 111.749Z" fill="#283593"/>
<path d="M106.547 106.551C105.112 106.551 103.949 105.387 103.949 103.952C103.949 103.74 103.975 103.529 104.026 103.324L109.224 82.5337C109.571 81.1401 110.982 80.2918 112.376 80.6392C113.77 80.9867 114.618 82.3978 114.271 83.7916L109.073 104.582C108.784 105.741 107.742 106.554 106.547 106.551Z" fill="#03A9F4"/>
<path d="M78.3071 7.09687C75.8101 4.23684 72.1975 2.59743 68.4007 2.60108H38.9826C37.7257 2.60108 36.6491 3.50058 36.4254 4.73727L26.0303 61.91C25.7747 63.3223 26.7127 64.6743 28.125 64.9298C28.2775 64.9574 28.4325 64.9712 28.5874 64.9712H44.18C45.3729 64.971 46.4122 64.1587 46.7009 63.0015L51.4099 44.1812H59.7726C69.995 44.141 78.6489 36.6256 80.1209 26.5097L81.4202 17.627C81.956 13.8319 80.8204 9.99076 78.3071 7.09687Z" fill="#283593"/>
</g>
<defs>
<clipPath id="clip0_1552_3586">
<rect width="114.35" height="114.35" fill="white"/>
</clipPath>
</defs>
</svg>
