<svg width="24" height="24" viewBox="0 0 24 24" fill="none" xmlns="http://www.w3.org/2000/svg">
<path d="M5.7846 2.57141C4.93212 2.57141 4.11455 2.91006 3.51176 3.51285C2.90896 4.11565 2.57031 4.93322 2.57031 5.7857V18.2143C2.57031 19.0668 2.90896 19.8843 3.51176 20.4871C4.11455 21.0899 4.93212 21.4286 5.7846 21.4286H18.2132C19.0657 21.4286 19.8832 21.0899 20.486 20.4871C21.0888 19.8843 21.4275 19.0668 21.4275 18.2143V5.7857C21.4275 4.93322 21.0888 4.11565 20.486 3.51285C19.8832 2.91006 19.0657 2.57141 18.2132 2.57141H5.7846ZM3.85603 5.7857C3.85603 5.27421 4.05922 4.78367 4.42089 4.42199C4.78257 4.06031 5.27311 3.85713 5.7846 3.85713H11.5703V8.14284H3.85603V5.7857ZM3.85603 9.42856H11.5703V20.1428H5.7846C5.27311 20.1428 4.78257 19.9397 4.42089 19.578C4.05922 19.2163 3.85603 18.7258 3.85603 18.2143V9.42856ZM12.856 20.1428V15.4286H20.1417V18.2143C20.1417 18.7258 19.9386 19.2163 19.5769 19.578C19.2152 19.9397 18.7247 20.1428 18.2132 20.1428H12.856ZM20.1417 14.1428H12.856V3.85713H18.2132C18.7247 3.85713 19.2152 4.06031 19.5769 4.42199C19.9386 4.78367 20.1417 5.27421 20.1417 5.7857V14.1428Z" fill="#111111"/>
</svg>
