<svg width="24" height="24" viewBox="0 0 24 24" fill="none" xmlns="http://www.w3.org/2000/svg">
<path d="M5.7857 2.57141C4.93322 2.57141 4.11565 2.91006 3.51285 3.51285C2.91006 4.11565 2.57141 4.93322 2.57141 5.7857V18.2143C2.57141 19.0668 2.91006 19.8843 3.51285 20.4871C4.11565 21.0899 4.93322 21.4286 5.7857 21.4286H18.2143C19.0668 21.4286 19.8843 21.0899 20.4871 20.4871C21.0899 19.8843 21.4286 19.0668 21.4286 18.2143V5.7857C21.4286 4.93322 21.0899 4.11565 20.4871 3.51285C19.8843 2.91006 19.0668 2.57141 18.2143 2.57141H5.7857ZM3.85713 5.7857C3.85713 5.27421 4.06031 4.78367 4.42199 4.42199C4.78367 4.06031 5.27421 3.85713 5.7857 3.85713H11.5714V8.14284H3.85713V5.7857ZM3.85713 9.42856H11.5714V20.1428H5.7857C5.27421 20.1428 4.78367 19.9397 4.42199 19.578C4.06031 19.2163 3.85713 18.7258 3.85713 18.2143V9.42856ZM12.8571 20.1428V15.4286H20.1428V18.2143C20.1428 18.7258 19.9397 19.2163 19.578 19.578C19.2163 19.9397 18.7258 20.1428 18.2143 20.1428H12.8571ZM20.1428 14.1428H12.8571V3.85713H18.2143C18.7258 3.85713 19.2163 4.06031 19.578 4.42199C19.9397 4.78367 20.1428 5.27421 20.1428 5.7857V14.1428Z" fill="#111111"/>
</svg>
