<svg width="40" height="40" viewBox="0 0 40 40" fill="none" xmlns="http://www.w3.org/2000/svg">
<g clip-path="url(#clip0_281_3258)">
<path d="M37.2248 23.4713C37.2248 24.1728 36.9407 24.8073 36.4814 25.2666C36.0213 25.7259 35.3869 26.0099 34.6862 26.0099H5.31398C3.9125 26.0099 2.77539 24.8736 2.77539 23.4713C2.77539 23.0957 2.85664 22.7398 3.00266 22.4195C3.12969 22.1409 3.30492 21.89 3.51875 21.6761C3.97883 21.2168 4.61328 20.9327 5.31398 20.9327H34.6863C35.7129 20.9327 36.5975 21.542 36.9976 22.4195C37.1435 22.7398 37.2248 23.0957 37.2248 23.4713Z" fill="#884D00"/>
<path d="M36.9973 22.4195C36.8703 22.6972 36.6943 22.949 36.4812 23.1621C36.0211 23.6214 35.3867 23.9054 34.686 23.9054H5.31377C4.28791 23.9054 3.4033 23.2962 3.00244 22.4196C3.12947 22.141 3.30471 21.8901 3.51854 21.6762C3.97861 21.2169 4.61307 20.9329 5.31377 20.9329H34.686C35.7126 20.9328 36.5972 21.542 36.9973 22.4195Z" fill="#AA6100"/>
<path d="M39.4082 28.0592C39.4082 31.33 37.8939 33.7605 35.4461 35.3726C32.9975 36.9856 29.6154 37.7802 25.8797 37.7802H14.1203C6.64898 37.7802 0.591797 34.6009 0.591797 28.0592C0.591797 27.6946 0.682578 27.3489 0.846641 27.0381C0.985547 26.7729 1.17727 26.5338 1.41008 26.3303C1.91508 25.8876 2.6143 25.6138 3.38523 25.6138H36.6147C37.7408 25.6138 38.7113 26.1977 39.1533 27.0381C39.3174 27.3489 39.4082 27.6946 39.4082 28.0592Z" fill="#FFA733"/>
<path d="M39.1532 27.0381C38.6261 29.216 37.3051 30.9126 35.446 32.1373C32.9974 33.7503 29.6153 34.5449 25.8796 34.5449H14.1203C7.54699 34.5449 2.06895 32.0844 0.84668 27.0381C0.985586 26.7729 1.1773 26.5338 1.41012 26.3303C1.91512 25.8876 2.61434 25.6138 3.38527 25.6138H36.6147C37.7407 25.6137 38.7114 26.1976 39.1532 27.0381Z" fill="#FFB655"/>
<path d="M30.7946 19.8674L24.2276 26.4344C24.0627 26.5985 23.8868 26.7437 23.7005 26.8692C22.3101 27.8106 20.4052 27.6662 19.1734 26.4344L12.6064 19.8674H30.7946Z" fill="#EEBF00"/>
<path d="M30.7948 19.8674L24.2278 26.4343C24.0629 26.5985 23.887 26.7436 23.7007 26.8691C23.1996 26.6986 22.7293 26.4138 22.33 26.0137L16.1836 19.8673H30.7948V19.8674Z" fill="#FFD422"/>
<path d="M38.6712 20.7835C38.6712 21.1276 38.6144 21.4796 38.4913 21.8228C38.0092 23.1683 36.7182 23.6907 35.7121 22.9473L34.5055 22.0564C33.6636 21.4338 32.5896 21.6886 31.9804 22.656L31.929 22.7373C31.3443 23.6669 30.3247 23.9431 29.4922 23.3985L26.7904 21.6317C26.167 21.2246 25.4197 21.2688 24.8294 21.7493L22.6641 23.5107C22.0423 24.0165 21.25 24.0378 20.6116 23.5652L18.1417 21.7345C17.5104 21.2665 16.7276 21.2815 16.1082 21.7739L13.8592 23.5597C13.2555 24.0387 12.4964 24.0664 11.8722 23.6331L8.96044 21.6098C8.38755 21.2121 7.69708 21.201 7.1163 21.5806L4.40021 23.3568C2.59154 23.5896 1.71169 22.2615 1.71169 22.2615C1.27849 21.5087 1.23505 20.6162 1.46943 19.8674C1.74802 18.9725 2.42271 18.2828 3.30013 18.2828H36.7008C37.561 18.2828 38.2483 18.9623 38.5308 19.8635C38.6222 20.1523 38.6712 20.4639 38.6712 20.7835Z" fill="#6DC82A"/>
<path d="M38.5306 19.8635C38.5187 19.9029 38.5053 19.9416 38.4911 19.981C38.009 21.3273 36.718 21.8496 35.7119 21.1063L34.5053 20.2146C33.6634 19.5928 32.5894 19.8476 31.9802 20.8142L31.9288 20.8963C31.3441 21.8259 30.3245 22.1021 29.492 21.5575L26.7902 19.7907C26.1668 19.3828 25.4195 19.4278 24.8292 19.9083L22.6639 21.6697C22.0421 22.1756 21.2499 22.196 20.6114 21.7234L18.1415 19.8927C17.5103 19.4247 16.7274 19.4405 16.108 19.9321L13.859 21.7187C13.2553 22.1969 12.4962 22.2253 11.872 21.792L8.96025 19.7688C8.38736 19.3703 7.69689 19.3592 7.11611 19.7396L4.40002 21.515C2.59135 21.7486 1.7115 20.4197 1.7115 20.4197C1.60971 20.2421 1.52924 20.0567 1.46924 19.8674C1.74783 18.9725 2.42252 18.2828 3.29994 18.2828H36.7006C37.5607 18.2828 38.2481 18.9623 38.5306 19.8635Z" fill="#7ED63E"/>
<path d="M37.9973 16.6589C38.0028 16.9217 37.9681 17.175 37.9002 17.4141C37.5949 18.4779 36.6148 19.2559 35.4532 19.2559C30.8921 19.2559 18.7439 19.1533 16.9115 19.2141C16.8705 19.2157 16.8295 19.2172 16.7892 19.2181C14.4755 19.3057 13.9484 19.6765 13.9484 20.91V25.4229C13.9484 25.6549 13.8545 25.8655 13.7022 26.0179C13.5499 26.1701 13.34 26.264 13.108 26.264C12.6432 26.264 12.2668 26.6404 12.2668 27.1052V29.0709C12.2668 29.2705 12.2432 29.4639 12.1974 29.6501C11.9378 30.7249 10.9679 31.5227 9.80323 31.5227H9.74088C8.41674 31.5227 7.34518 30.4471 7.34909 29.123L7.3601 25.5649C7.36089 25.2918 7.47214 25.0441 7.65128 24.8657C7.8312 24.6866 8.07815 24.5761 8.35198 24.5761C8.89964 24.5761 9.34385 24.1318 9.34385 23.5843V20.91C9.34385 19.9961 8.6037 19.256 7.68987 19.256H4.59503C3.20222 19.256 2.03042 18.1568 2.00198 16.7639C1.97354 15.3349 3.12409 14.167 4.54682 14.167H35.4026C36.7962 14.1669 37.9696 15.2662 37.9973 16.6589Z" fill="#FF3501"/>
<path d="M37.9974 16.6589C38.0029 16.9216 37.9682 17.175 37.9004 17.4141C33.0718 17.4093 21.5342 17.3138 19.7524 17.3723C17.3346 17.4519 16.7893 17.8141 16.7893 19.0688V19.218C14.4756 19.3055 13.9485 19.6764 13.9485 20.9098V25.4227C13.9485 25.6548 13.8546 25.8654 13.7023 26.0177C13.55 26.17 13.3401 26.2639 13.1081 26.2639C12.6433 26.2639 12.2669 26.6403 12.2669 27.1051V29.0708C12.2669 29.2704 12.2433 29.4637 12.1975 29.65C11.0565 29.4662 10.1861 28.4742 10.19 27.2811L10.201 23.7237C10.2018 23.4499 10.313 23.203 10.4922 23.0246C10.6721 22.8455 10.919 22.735 11.1929 22.735C11.7405 22.735 12.1847 22.2907 12.1847 21.7431V19.0688C12.1847 18.155 11.4446 17.4148 10.5308 17.4148H7.43591C6.04309 17.4148 4.8713 16.3156 4.84286 14.9228C4.83731 14.66 4.87208 14.4067 4.94067 14.1669H35.4027C36.7963 14.1669 37.9697 15.2662 37.9974 16.6589Z" fill="#FF5023"/>
<path d="M23.4398 11.5802L17.8095 17.2129C17.2452 17.7771 16.58 18.1787 15.8714 18.4162C14.1243 19.0064 12.1168 18.6048 10.7264 17.2129L5.09375 11.5802H23.4398Z" fill="#EEBF00"/>
<path d="M23.4397 11.5802L17.8094 17.2129C17.2452 17.7771 16.58 18.1787 15.8714 18.4162C15.1636 18.1787 14.4983 17.777 13.9349 17.2129L8.30225 11.5802H23.4397Z" fill="#FFD422"/>
<path d="M39.4081 12.3725C39.4081 12.4143 39.4066 12.4554 39.4042 12.4964C39.3734 13.0259 39.1462 13.5033 38.7942 13.8552C38.4147 14.2348 37.8907 14.4691 37.3115 14.4691H2.68844C1.53078 14.4691 0.591797 13.5301 0.591797 12.3725C0.591797 9.86 1.75656 7.96844 3.51547 6.54571C4.94289 5.39039 6.76258 4.54375 8.6675 3.92266C13.9972 2.18742 19.9999 2.21977 19.9999 2.21977C19.9999 2.21977 39.4081 2.11485 39.4081 12.3725Z" fill="#FFA733"/>
<path d="M39.4082 12.3725C39.4082 12.4143 39.4066 12.4554 39.4043 12.4964H6.94967C5.79201 12.4964 4.85303 11.5573 4.85303 10.3998C4.85303 7.88727 6.01779 5.99571 7.7767 4.57297C8.0592 4.34414 8.3567 4.12789 8.66764 3.92274C13.9972 2.18742 20 2.21977 20 2.21977C20 2.21977 39.4082 2.11485 39.4082 12.3725Z" fill="#FFB655"/>
<path d="M30.4317 5.88771C30.7682 6.24388 30.7523 6.80544 30.3961 7.14201C30.04 7.47857 29.4784 7.46263 29.1418 7.10646C28.8053 6.75037 28.1858 5.5163 28.5421 5.17974C28.8983 4.84326 30.0951 5.53146 30.4317 5.88771Z" fill="#FFF5CC"/>
<path d="M25.7284 10.2726C25.904 10.7301 25.6756 11.2433 25.2182 11.419C24.7607 11.5946 24.2475 11.3662 24.0718 10.9087C23.8962 10.4513 23.7929 9.07444 24.2504 8.89882C24.7078 8.72319 25.5528 9.81522 25.7284 10.2726Z" fill="#FFF5CC"/>
<path d="M20.8873 6.62338C20.8873 7.11338 20.4901 7.51064 20.0001 7.51064C19.5101 7.51064 19.1128 7.11338 19.1128 6.62338C19.1128 6.13338 19.5101 4.81104 20.0001 4.81104C20.4901 4.81104 20.8873 6.1333 20.8873 6.62338Z" fill="#FFF5CC"/>
<path d="M16.0087 10.8287C15.8862 11.3031 15.4023 11.5885 14.9278 11.4659C14.4534 11.3433 14.168 10.8594 14.2906 10.3849C14.4132 9.91057 15.1284 8.72955 15.6029 8.85213C16.0773 8.97455 16.1312 10.3542 16.0087 10.8287Z" fill="#FFF5CC"/>
<path d="M11.1273 6.9639C10.9137 7.40484 10.383 7.58921 9.94202 7.37554C9.50109 7.16194 9.31671 6.63124 9.53038 6.19023C9.74398 5.74929 10.678 4.73233 11.1191 4.94601C11.56 5.15968 11.341 6.52296 11.1273 6.9639Z" fill="#FFF5CC"/>
<path d="M39.2742 29.8023C38.9586 29.7219 38.6359 29.9128 38.5545 30.2292C37.4419 34.5867 32.7033 37.1883 25.8791 37.1883H14.1206C10.7313 37.1883 7.75954 36.5255 5.52478 35.2708C5.23993 35.1115 4.87931 35.2125 4.71907 35.4973C4.5597 35.7822 4.66071 36.1428 4.94556 36.303C7.35626 37.6564 10.5293 38.3721 14.1206 38.3721H25.8792C31.8339 38.3721 38.2281 36.2914 39.702 30.522C39.7824 30.2055 39.5915 29.8836 39.2742 29.8023Z" fill="black"/>
<path d="M22.3057 23.0401C22.3074 23.0386 22.307 23.0391 22.3072 23.0389C22.3066 23.0393 22.306 23.0397 22.3057 23.0401Z" fill="black"/>
<path d="M37.359 25.0974C37.6323 24.6503 37.797 24.1299 37.8149 23.5739C39.5527 22.5702 39.7824 19.6135 38.1834 18.2576C38.7437 17.2719 38.751 15.9871 38.0406 14.9607C39.1698 14.6419 40 13.6019 40 12.3725C40 5.59387 32.2551 2.95395 25.5033 2.03746C25.1798 1.99324 24.8807 2.21973 24.8365 2.5441C24.793 2.86762 25.0195 3.1659 25.3439 3.21012C31.3233 4.02215 38.8164 6.3123 38.8164 12.3725C38.8164 13.2018 38.1409 13.8773 37.3116 13.8773C5.54359 13.8773 34.4573 13.8773 2.68859 13.8773C1.85922 13.8773 1.18375 13.2018 1.18375 12.3725C1.18375 8.4877 4.20289 5.70371 10.1575 4.09785C13.3214 3.24449 17.2474 2.81926 20.023 2.8116C20.1523 2.8116 21.3305 2.81559 23.0145 2.95598C23.342 2.98277 23.626 2.74059 23.6537 2.41543C23.6805 2.08949 23.4383 1.80309 23.1131 1.77629C22.0901 1.69113 21.0081 1.63301 19.9772 1.62793C14.8169 1.62793 7.18914 2.81309 3.14312 6.08559C1.05742 7.7727 0 9.88832 0 12.3725C0 13.5971 0.823828 14.6332 1.94594 14.9568C1.29023 15.923 1.22023 17.2064 1.82203 18.2482C0.718516 19.1856 0.358672 21.0957 1.19867 22.5567C1.35258 22.8068 1.72977 23.1967 2.18352 23.4752C2.18484 24.0687 2.35195 24.6237 2.64078 25.0968C1.13148 25.4022 0 26.6143 0 28.0592C0 30.7958 0.981641 33.0803 2.91656 34.8495C3.02938 34.9529 3.17305 35.0042 3.31508 35.0042C3.85289 35.0042 4.1125 34.3393 3.71516 33.976C2.03594 32.4404 1.18367 30.4494 1.18367 28.0593C1.18367 27.0374 2.17164 26.2057 3.38531 26.2057H6.76586L6.75719 29.1207C6.75227 30.7799 8.0932 32.1146 9.74078 32.1146H9.80313C11.4879 32.1146 12.8586 30.7494 12.8586 29.071V27.1053C12.8586 26.9671 12.9706 26.8559 13.108 26.8559C13.6091 26.8559 14.0509 26.5971 14.3066 26.2057H18.002C18.3524 26.4645 19.3745 28.0719 21.5948 28.0719C23.8099 28.0719 24.8394 26.4635 25.1884 26.2057H36.6148C37.8166 26.2057 38.8045 27.0287 38.8164 28.0411C38.8195 28.3654 39.0839 28.6259 39.4074 28.6259H39.4145C39.7412 28.6228 40.0032 28.3544 40.0001 28.0278C39.983 26.5997 38.853 25.4018 37.359 25.0974ZM20.797 15.0609H36.4672C38.1903 16.1233 37.3622 18.6221 35.4532 18.6221C22.7351 18.6221 34.4621 18.5893 16.8909 18.6221C18.0774 17.9913 18.4464 17.331 20.797 15.0609ZM2.21187 21.9443C1.66359 20.9654 1.94516 19.6953 2.59539 19.1454C3.14461 19.5833 3.84141 19.8477 4.595 19.8477H7.68984C8.2525 19.8477 8.71414 20.2872 8.74961 20.8412C8.51133 20.756 8.2643 20.7134 8.01656 20.7134C7.12492 20.7134 6.76023 21.1063 4.1957 22.7832C3.32461 22.8537 2.59914 22.4644 2.21187 21.9443ZM6.86602 25.0218H4.14039C3.78945 24.7557 3.53078 24.3741 3.4232 23.9336C3.73914 23.9832 4.45586 24.0268 4.72445 23.8516L7.44055 22.0761C8.13789 21.6195 8.69859 22.1653 8.75203 22.1858V23.5841C8.75203 23.805 8.57289 23.9842 8.35195 23.9842C7.67172 23.9842 7.08938 24.4166 6.86602 25.0218ZM13.3565 23.1904C13.3565 24.3524 13.3565 23.4372 13.3565 25.4228C13.3565 25.5601 13.2452 25.6721 13.1079 25.6721C12.3151 25.6721 11.6748 26.3187 11.6748 27.1052V29.0709C11.6748 30.7583 9.59508 31.5335 8.46555 30.4014C7.84812 29.7811 7.94148 28.9928 7.94086 29.0891C7.94352 28.23 7.94664 27.2359 7.9518 25.5665C7.95258 25.3471 8.13172 25.168 8.35188 25.168C9.21867 25.168 9.93563 24.4638 9.93563 23.5843C9.93563 22.4184 9.93563 22.0763 9.93563 20.91C9.93563 20.0104 9.40375 19.2323 8.6375 18.8749C7.89109 18.5232 7.44867 18.7211 4.59492 18.6642C2.60914 18.6642 1.83812 16.1124 3.50359 15.0611H7.73719L10.3073 17.6313C11.3017 18.6264 12.6046 19.2011 14.0005 19.2661C13.1234 19.9738 13.4082 20.9533 13.3565 23.1904ZM11.1446 16.7946L9.41094 15.0609H19.1241L17.3912 16.7946C15.6602 18.5239 12.8673 18.5188 11.1446 16.7946ZM14.5402 25.0218V23.7743L15.1146 23.3182L16.8183 25.0218H14.5402ZM23.4958 26.2055C22.3237 27.1789 20.5838 27.1135 19.4863 26.0161C18.6327 25.1625 16.9002 23.43 16.0474 22.5772C16.2579 22.4725 16.9259 21.5696 17.7898 22.2095L20.2597 24.0402C21.1012 24.6658 22.1948 24.6554 23.0373 23.97L25.2027 22.2086C25.5956 21.889 26.0565 21.859 26.4668 22.1274L27.1904 22.6C23.1091 26.5951 23.6085 26.1127 23.4958 26.2055ZM35.8602 25.0218H26.372L28.1594 23.2345L28.8972 23.7166C29.0321 23.7778 29.7605 24.4579 30.851 24.2185C31.9393 23.9807 32.4595 22.9951 32.4813 22.9709C32.878 22.3408 33.5559 22.09 34.1542 22.5321C35.1288 23.1758 35.6027 23.8287 36.5902 23.8776C36.4916 24.3421 36.2259 24.7446 35.8602 25.0218ZM36.0639 22.4714C34.8047 21.5415 34.8545 21.5759 34.7832 21.5269C33.6954 20.784 32.2743 21.083 31.4792 22.3405C31.4588 22.3642 31.1627 22.939 30.5994 23.0618C30.078 23.1766 30.0205 23.0382 27.1139 21.1371C26.2695 20.5848 25.2516 20.6432 24.4562 21.2903C23.2192 22.2964 22.3024 23.0418 22.3253 23.0235C22.308 23.0375 22.3141 23.0326 22.3127 23.0337C22.3177 23.0296 22.3147 23.0321 22.3097 23.0361C22.3086 23.037 22.3073 23.038 22.3062 23.039C22.3056 23.0395 22.3052 23.0399 22.3046 23.0403C22.305 23.04 22.3054 23.0396 22.3058 23.0393C22.3049 23.04 22.304 23.0408 22.303 23.0416C22.2987 23.0451 22.292 23.0507 22.2909 23.0514C21.8798 23.3861 21.3834 23.4002 20.9644 23.0893C18.4977 21.261 18.127 20.8091 17.1664 20.8025C16.3536 20.7967 15.8413 21.1958 15.2055 21.7352L14.5402 22.2631V20.9097C14.5402 19.3432 14.8765 19.8476 35.4532 19.8476C36.1768 19.8476 36.8618 19.6046 37.4165 19.1579C37.9947 19.6575 38.2685 20.6933 37.9349 21.6223C37.6157 22.5121 36.7971 23.0122 36.0639 22.4714Z" fill="black"/>
<path d="M28.1358 4.74964C27.7844 5.08152 27.7489 5.61956 28.0302 6.34878C28.3634 7.21269 28.8663 7.9762 29.788 7.9762C31.0717 7.9762 31.7555 6.42683 30.8619 5.48128C30.8619 5.4812 30.8619 5.4812 30.8619 5.4812C30.5259 5.1255 28.9298 3.99902 28.1358 4.74964ZM29.7786 6.79238C29.7329 6.79105 29.6454 6.77738 29.5722 6.69995C29.3959 6.51323 29.1662 6.053 29.0707 5.73894C29.3787 5.85206 29.8253 6.10738 30.0018 6.29409C30.1816 6.48472 30.0415 6.7987 29.7786 6.79238Z" fill="black"/>
<path d="M23.5197 11.1211C23.6613 11.4899 23.938 11.7815 24.299 11.9422C25.4921 12.473 26.7551 11.2941 26.2811 10.0605V10.0606C26.1058 9.6038 25.059 7.95466 24.0385 8.34638C23.0182 8.73825 23.3442 10.6643 23.5197 11.1211ZM24.5265 9.61708C24.7683 9.83895 25.084 10.245 25.1761 10.4849V10.485C25.2345 10.637 25.1587 10.8079 25.0061 10.8666C24.8533 10.9252 24.6829 10.8484 24.6245 10.6968C24.5325 10.4569 24.4953 9.94388 24.5265 9.61708Z" fill="black"/>
<path d="M18.521 6.62346C18.521 7.43908 19.1845 8.1026 20.0001 8.1026C20.8158 8.1026 21.4793 7.43908 21.4793 6.62346C21.4793 6.13416 21.0932 4.21924 20.0001 4.21924C18.9071 4.21924 18.521 6.134 18.521 6.62346ZM20.0001 6.91885C19.8372 6.91885 19.7047 6.78627 19.7047 6.62338C19.7047 6.3665 19.8539 5.87416 20.0001 5.58033C20.1465 5.87416 20.2956 6.3665 20.2956 6.62338C20.2956 6.78627 20.163 6.91885 20.0001 6.91885Z" fill="black"/>
<path d="M14.3408 9.04036C13.8025 9.76107 13.417 10.5797 13.8757 11.3579C14.5439 12.4916 16.2543 12.2448 16.5819 10.9765C16.7043 10.5027 16.8094 8.55239 15.7511 8.27888C15.2831 8.15825 14.8086 8.41427 14.3408 9.04036ZM15.4359 10.6807C15.4311 10.6886 15.4147 10.7937 15.2999 10.8614C15.0729 10.9954 14.7986 10.7858 14.8639 10.5329C14.9281 10.2843 15.1957 9.84482 15.4108 9.59701C15.4789 9.91802 15.5001 10.4319 15.4359 10.6807Z" fill="black"/>
<path d="M8.99785 5.93238C8.52191 6.91496 9.24355 8.05621 10.3265 8.05621C10.8761 8.05621 11.4048 7.74887 11.66 7.22207C11.9179 6.68988 12.3134 4.86731 11.3771 4.41371C10.4601 3.96918 9.2723 5.36574 8.99785 5.93238ZM10.5949 6.7059C10.5238 6.85254 10.3468 6.91394 10.2003 6.84301C10.0536 6.77199 9.99215 6.59481 10.0632 6.44824C10.1751 6.21715 10.5241 5.83902 10.7838 5.6384C10.7871 5.9666 10.7068 6.4748 10.5949 6.7059Z" fill="black"/>
</g>
<defs>
<clipPath id="clip0_281_3258">
<rect width="40" height="40" fill="white"/>
</clipPath>
</defs>
</svg>
