<svg width="181" height="181" viewBox="0 0 181 181" fill="none" xmlns="http://www.w3.org/2000/svg">
<g clip-path="url(#clip0_1596_2410)">
<path d="M155.302 66.6806L73.3902 148.591C69.6894 152.294 63.6879 152.294 59.9856 148.591L11.7845 100.39C8.08225 96.6881 8.08225 90.6866 11.7845 86.9857L93.6953 5.07351C97.3976 1.37263 103.399 1.37263 107.1 5.07351L155.302 53.276C159.003 56.9769 159.003 62.9784 155.302 66.6806V66.6806Z" fill="#8CBAFA"/>
<path d="M155.301 53.276L149.284 47.2593C152.58 50.5555 152.252 56.2284 148.551 59.9306L66.6387 141.841C62.9378 145.544 57.265 145.872 53.9688 142.576L59.9841 148.591C63.6863 152.294 69.6878 152.294 73.3887 148.591L155.301 66.6806C159.002 62.9783 159.002 56.9768 155.301 53.276V53.276Z" fill="#5692D8"/>
<path d="M92.3545 23.7436L84.3285 31.7696C81.1717 34.925 81.1717 40.0399 84.3285 43.1953C87.4839 46.3507 92.5989 46.3507 95.7543 43.1953L103.78 35.1694C106.936 32.014 106.936 26.899 103.78 23.7436C100.625 20.5882 95.5099 20.5882 92.3545 23.7436V23.7436Z" fill="#FFCD34"/>
<path d="M163.038 90.8716H47.1974C41.9623 90.8716 37.7188 95.1152 37.7188 100.349V168.517C37.7188 173.752 41.9623 177.995 47.1974 177.995H163.038C168.271 177.995 172.515 173.752 172.515 168.517V100.349C172.515 95.1152 168.271 90.8716 163.038 90.8716V90.8716Z" fill="#FFCD34"/>
<path d="M163.039 90.8716H154.555C159.788 90.8716 164.032 95.1152 164.032 100.349V168.517C164.032 173.752 159.788 177.995 154.555 177.995H163.039C168.273 177.995 172.516 173.752 172.516 168.517V100.349C172.516 95.1152 168.273 90.8716 163.039 90.8716V90.8716Z" fill="#E69012"/>
<path d="M37.7188 112.286H172.515V128.662H37.7188V112.286Z" fill="#575B7A"/>
<path d="M164.031 112.286H172.516V128.662H164.031V112.286Z" fill="#252D4C"/>
<path d="M139.383 154.829V164.929C139.383 165.711 140.015 166.343 140.797 166.343H156.863C157.644 166.343 158.277 165.711 158.277 164.929V154.829C158.277 154.048 157.644 153.415 156.863 153.415H140.797C140.015 153.415 139.383 154.048 139.383 154.829Z" fill="#E9E9EA"/>
<path d="M90.9453 154.829V164.929C90.9453 165.711 91.5792 166.343 92.3594 166.343H126.34C127.121 166.343 127.754 165.711 127.754 164.929V154.829C127.754 154.048 127.121 153.415 126.34 153.415H92.3594C91.5792 153.415 90.9453 154.048 90.9453 154.829Z" fill="#E9E9EA"/>
<path d="M13.6562 98.5165C10.9938 95.8541 10.9938 91.5221 13.6562 88.8611L78.6272 23.89C79.6629 22.8543 79.6629 21.1751 78.6272 20.1408C77.5915 19.1037 75.9123 19.1051 74.878 20.1408L9.90559 85.1119C5.1773 89.8401 5.1773 97.536 9.90559 102.266L26.2709 118.63C26.7874 119.146 27.4668 119.406 28.1448 119.406C28.8242 119.406 29.5023 119.147 30.0201 118.63C31.0558 117.594 31.0558 115.915 30.0201 114.88L13.6562 98.5165Z" fill="black"/>
<path d="M65.7809 52.4488L25.6596 92.5702C24.6239 93.6059 24.6239 95.2851 25.6596 96.3208C26.1774 96.8372 26.8555 97.0968 27.5349 97.0968C28.2129 97.0968 28.8909 96.8386 29.4088 96.3208L69.5301 56.1994C70.5658 55.1637 70.5658 53.4845 69.5301 52.4488C68.4958 51.4145 66.8166 51.4145 65.7809 52.4488V52.4488Z" fill="black"/>
<path d="M90.0437 48.2094C92.7917 48.2094 95.5397 47.1641 97.6318 45.072L105.658 37.0461C109.842 32.8619 109.842 26.0539 105.658 21.8697C101.474 17.6855 94.6656 17.6855 90.4814 21.8697L82.4555 29.8956C80.4283 31.9228 79.3125 34.617 79.3125 37.4838C79.3125 40.3492 80.4283 43.0448 82.4555 45.072C84.5476 47.1641 87.2956 48.2094 90.0437 48.2094V48.2094ZM86.2047 33.6448L94.2306 25.6189C96.3476 23.502 99.7916 23.502 101.907 25.6189C104.024 27.7359 104.024 31.1799 101.907 33.2955L93.8812 41.3214C91.7657 43.4384 88.3216 43.4384 86.2047 41.3214C85.18 40.2968 84.6152 38.9338 84.6152 37.4838C84.6152 36.0338 85.18 34.6695 86.2047 33.6448V33.6448Z" fill="black"/>
<path d="M163.039 88.2203H137.517L157.181 68.5559C161.911 63.8263 161.911 56.1304 157.181 51.4007L108.979 3.1996C106.688 0.908648 103.641 -0.353516 100.402 -0.353516C97.1621 -0.353516 94.1158 0.908648 91.8235 3.1996L82.378 12.6451C81.3437 13.6808 81.3437 15.3586 82.378 16.3943C83.4137 17.43 85.0929 17.43 86.1272 16.3943L95.5741 6.94881C96.8625 5.65902 98.5776 4.94923 100.402 4.94923C102.225 4.94923 103.94 5.65902 105.229 6.94881L153.431 55.1499C156.093 57.8124 156.093 62.1429 153.431 64.8053L130.017 88.2189H63.0133L82.2855 68.9467C83.3211 67.9124 83.3211 66.2332 82.2855 65.1975C81.2498 64.1618 79.5706 64.1618 78.5362 65.1975L55.5149 88.2203H47.2003C40.5112 88.2203 35.0703 93.6611 35.0703 100.349V168.517C35.0703 175.205 40.5112 180.647 47.2003 180.647H163.039C169.728 180.647 175.169 175.205 175.169 168.517V158.718C175.169 157.253 173.983 156.066 172.518 156.066C171.054 156.066 169.866 157.253 169.866 158.718V168.517C169.866 172.281 166.805 175.344 163.039 175.344H47.2003C43.4359 175.344 40.3731 172.281 40.3731 168.517V131.313H169.866V148.112C169.866 149.576 171.053 150.764 172.518 150.764C173.983 150.764 175.169 149.576 175.169 148.112V100.35C175.169 93.6611 169.728 88.2203 163.039 88.2203V88.2203ZM47.2003 93.523H163.039C166.803 93.523 169.866 96.5859 169.866 100.35V109.636H40.3731V100.35C40.3731 96.5859 43.4359 93.523 47.2003 93.523ZM40.3731 126.011V114.938H169.866V126.011H40.3731Z" fill="black"/>
<path d="M140.8 150.764C138.559 150.764 136.734 152.588 136.734 154.829V164.929C136.734 167.172 138.559 168.995 140.8 168.995H156.865C159.107 168.995 160.931 167.172 160.931 164.929V154.829C160.931 152.588 159.107 150.764 156.865 150.764H140.8ZM155.628 163.692H142.037V156.066H155.628V163.692Z" fill="black"/>
<path d="M92.3623 150.764C90.1211 150.764 88.2969 152.588 88.2969 154.829V164.929C88.2969 167.172 90.1211 168.995 92.3623 168.995H126.343C128.584 168.995 130.408 167.172 130.408 164.929V154.829C130.408 152.588 128.584 150.764 126.343 150.764H92.3623ZM125.105 163.692H93.5996V156.066H125.105V163.692Z" fill="black"/>
<path d="M60.167 163.692C58.7032 163.692 57.5156 164.879 57.5156 166.343C57.5156 167.808 58.7032 168.995 60.167 168.995H77.0971C78.5609 168.995 79.7485 167.808 79.7485 166.343C79.7485 164.879 78.5609 163.692 77.0971 163.692H60.167Z" fill="black"/>
</g>
<defs>
<clipPath id="clip0_1596_2410">
<rect width="181" height="181" fill="white"/>
</clipPath>
</defs>
</svg>
