<svg width="24" height="20" viewBox="0 0 24 20" fill="none" xmlns="http://www.w3.org/2000/svg">
<path d="M0.480469 1.34831C0.480469 1.17867 0.547971 1.01581 0.667971 0.895814C0.787971 0.775815 0.95065 0.708313 1.12047 0.708313H4.80403C5.07957 0.708313 5.3244 0.884921 5.41117 1.14652L6.40563 4.13724H23.1905C23.3041 4.13724 23.4097 4.19581 23.4698 4.29206C23.53 4.38831 23.5364 4.50867 23.4868 4.61081L19.9672 11.851C19.912 11.9644 19.797 12.0364 19.6709 12.0364H9.03183L9.64614 13.8842H19.8084C20.1618 13.8842 20.4484 14.1709 20.4484 14.5242C20.4484 14.8776 20.1618 15.1642 19.8084 15.1642H9.18442C8.90889 15.1642 8.66405 14.9878 8.57729 14.7262L4.34227 1.9884H1.12047C0.950649 1.9884 0.78797 1.92108 0.66797 1.80108C0.54797 1.6809 0.480469 1.51822 0.480469 1.3484L0.480469 1.34831ZM12.5861 17.7839C12.5861 17.3766 12.4243 16.9859 12.1362 16.6979C11.848 16.4098 11.4575 16.248 11.05 16.248C10.6427 16.248 10.252 16.4098 9.9639 16.6979C9.67586 16.9859 9.51409 17.3766 9.51409 17.7839C9.51409 18.1914 9.67587 18.5822 9.9639 18.8702C10.2519 19.1582 10.6427 19.32 11.05 19.32C11.4575 19.32 11.848 19.1582 12.1362 18.8702C12.4243 18.5822 12.5861 18.1914 12.5861 17.7839ZM17.9429 19.32C18.3502 19.32 18.7409 19.1582 19.0289 18.8702C19.317 18.5822 19.4788 18.1915 19.4788 17.784C19.4788 17.3766 19.317 16.9859 19.0289 16.6979C18.7409 16.4098 18.3502 16.2481 17.9429 16.2481C17.5355 16.2481 17.1448 16.4098 16.8568 16.6979C16.5686 16.9859 16.4068 17.3766 16.4068 17.784C16.4068 18.1915 16.5686 18.5822 16.8568 18.8702C17.1448 19.1583 17.5356 19.32 17.9429 19.32Z" fill="white"/>
</svg>
