<svg width="22" height="22" viewBox="0 0 22 22" fill="none" xmlns="http://www.w3.org/2000/svg">
<path d="M0 2.0625C0 1.88016 0.0724328 1.7053 0.201364 1.57636C0.330295 1.44743 0.505164 1.375 0.6875 1.375H2.75C2.90336 1.37504 3.05229 1.42636 3.17313 1.52078C3.29397 1.61521 3.37976 1.74733 3.41688 1.89612L3.97375 4.125H19.9375C20.0385 4.12509 20.1381 4.14742 20.2295 4.19038C20.3208 4.23335 20.4016 4.2959 20.466 4.37361C20.5305 4.45131 20.577 4.54224 20.6024 4.63996C20.6277 4.73768 20.6312 4.83978 20.6126 4.939L18.5501 15.939C18.5206 16.0965 18.437 16.2388 18.3137 16.3413C18.1905 16.4437 18.0353 16.4999 17.875 16.5H5.5C5.33972 16.4999 5.18453 16.4437 5.06125 16.3413C4.93798 16.2388 4.85437 16.0965 4.82488 15.939L2.76375 4.95963L2.21375 2.75H0.6875C0.505164 2.75 0.330295 2.67757 0.201364 2.54864C0.0724328 2.4197 0 2.24484 0 2.0625ZM4.26525 5.5L6.07063 15.125H17.3044L19.1098 5.5H4.26525ZM6.875 16.5C6.14566 16.5 5.44618 16.7897 4.93046 17.3055C4.41473 17.8212 4.125 18.5207 4.125 19.25C4.125 19.9793 4.41473 20.6788 4.93046 21.1945C5.44618 21.7103 6.14566 22 6.875 22C7.60435 22 8.30382 21.7103 8.81954 21.1945C9.33527 20.6788 9.625 19.9793 9.625 19.25C9.625 18.5207 9.33527 17.8212 8.81954 17.3055C8.30382 16.7897 7.60435 16.5 6.875 16.5ZM16.5 16.5C15.7707 16.5 15.0712 16.7897 14.5555 17.3055C14.0397 17.8212 13.75 18.5207 13.75 19.25C13.75 19.9793 14.0397 20.6788 14.5555 21.1945C15.0712 21.7103 15.7707 22 16.5 22C17.2293 22 17.9288 21.7103 18.4445 21.1945C18.9603 20.6788 19.25 19.9793 19.25 19.25C19.25 18.5207 18.9603 17.8212 18.4445 17.3055C17.9288 16.7897 17.2293 16.5 16.5 16.5ZM6.875 17.875C7.23967 17.875 7.58941 18.0199 7.84727 18.2777C8.10513 18.5356 8.25 18.8853 8.25 19.25C8.25 19.6147 8.10513 19.9644 7.84727 20.2223C7.58941 20.4801 7.23967 20.625 6.875 20.625C6.51033 20.625 6.16059 20.4801 5.90273 20.2223C5.64487 19.9644 5.5 19.6147 5.5 19.25C5.5 18.8853 5.64487 18.5356 5.90273 18.2777C6.16059 18.0199 6.51033 17.875 6.875 17.875ZM16.5 17.875C16.8647 17.875 17.2144 18.0199 17.4723 18.2777C17.7301 18.5356 17.875 18.8853 17.875 19.25C17.875 19.6147 17.7301 19.9644 17.4723 20.2223C17.2144 20.4801 16.8647 20.625 16.5 20.625C16.1353 20.625 15.7856 20.4801 15.5277 20.2223C15.2699 19.9644 15.125 19.6147 15.125 19.25C15.125 18.8853 15.2699 18.5356 15.5277 18.2777C15.7856 18.0199 16.1353 17.875 16.5 17.875Z" fill="#111111"/>
</svg>
