<svg width="27" height="21" viewBox="0 0 27 21" fill="none" xmlns="http://www.w3.org/2000/svg">
<path d="M18.473 10.5898C18.473 10.8509 18.4564 11.11 18.4212 11.3669C18.4294 11.311 18.4357 11.2571 18.444 11.2011C18.3735 11.7192 18.2367 12.2249 18.0315 12.7078C18.0523 12.658 18.073 12.6083 18.0937 12.5585C17.9797 12.828 17.845 13.0891 17.6917 13.3377C17.615 13.4621 17.5342 13.5823 17.4492 13.7004C17.4306 13.7253 17.4119 13.7522 17.3933 13.7771C17.3829 13.7916 17.3705 13.8061 17.3601 13.8206C17.3228 13.8703 17.4202 13.7356 17.4161 13.7481C17.3995 13.8061 17.3104 13.8807 17.271 13.9263C17.0866 14.1439 16.8876 14.349 16.6721 14.5376C16.6182 14.5853 16.5622 14.633 16.5063 14.6786C16.4773 14.7014 16.4503 14.7241 16.4213 14.7469C16.4027 14.7615 16.3591 14.7946 16.442 14.7324C16.5312 14.6641 16.4607 14.7179 16.44 14.7324C16.3239 14.8195 16.2037 14.9024 16.0815 14.9811C15.8038 15.1593 15.5136 15.3127 15.211 15.4412C15.2608 15.4205 15.3105 15.3998 15.3603 15.379C14.8774 15.5821 14.3717 15.721 13.8536 15.7914C13.9096 15.7832 13.9635 15.7769 14.0194 15.7686C13.5034 15.835 12.9812 15.835 12.4651 15.7686C12.5211 15.7769 12.575 15.7832 12.6309 15.7914C12.1128 15.721 11.6072 15.5842 11.1243 15.379C11.174 15.3998 11.2238 15.4205 11.2735 15.4412C11.0041 15.3272 10.743 15.1925 10.4943 15.0392C10.37 14.9625 10.2498 14.8817 10.1317 14.7967C10.1068 14.7781 10.0799 14.7594 10.055 14.7408C10.0405 14.7304 10.026 14.718 10.0115 14.7076C9.96173 14.6703 10.0964 14.7677 10.084 14.7636C10.026 14.747 9.95137 14.6579 9.90578 14.6185C9.68818 14.434 9.48302 14.2351 9.29442 14.0196C9.24676 13.9657 9.19909 13.9097 9.1535 13.8538C9.1307 13.8248 9.10791 13.7978 9.08511 13.7688C9.0706 13.7502 9.03745 13.7066 9.09962 13.7895C9.16801 13.8786 9.11412 13.8082 9.09962 13.7875C9.01258 13.6714 8.92968 13.5512 8.85093 13.4289C8.67271 13.1512 8.51935 12.8611 8.39085 12.5585C8.41158 12.6083 8.4323 12.658 8.45302 12.7077C8.24993 12.2249 8.11108 11.7192 8.04061 11.2011C8.0489 11.2571 8.05512 11.311 8.06341 11.3669C7.99709 10.8509 7.99709 10.3287 8.06341 9.81263C8.05512 9.86858 8.0489 9.92246 8.04061 9.97842C8.11108 9.46032 8.24785 8.95465 8.45302 8.4718C8.4323 8.52154 8.41157 8.57127 8.39085 8.62101C8.50483 8.3516 8.63954 8.09048 8.79288 7.84182C8.86955 7.71748 8.95038 7.59728 9.03534 7.47915C9.05399 7.45429 9.07265 7.42734 9.0913 7.40248C9.10166 7.38797 9.11409 7.37346 9.12446 7.35896C9.16176 7.30922 9.06436 7.44393 9.0685 7.43149C9.08508 7.37347 9.17419 7.29886 9.21357 7.25327C9.39801 7.03567 9.59695 6.83052 9.81249 6.64192C9.86637 6.59425 9.92233 6.54659 9.97828 6.50099C10.0073 6.4782 10.0342 6.4554 10.0633 6.4326C10.0819 6.4181 10.1254 6.38494 10.0425 6.44711C9.95341 6.5155 10.0239 6.46162 10.0446 6.44711C10.1607 6.36007 10.2808 6.27717 10.4031 6.19843C10.6808 6.0202 10.9709 5.86685 11.2735 5.73835C11.2238 5.75907 11.174 5.7798 11.1243 5.80052C11.6072 5.59742 12.1128 5.45858 12.6309 5.38811C12.575 5.3964 12.5211 5.40261 12.4651 5.4109C12.9812 5.34459 13.5034 5.34459 14.0194 5.4109C13.9635 5.40261 13.9096 5.3964 13.8536 5.38811C14.3717 5.45857 14.8774 5.59535 15.3603 5.80052C15.3105 5.77979 15.2608 5.75907 15.2111 5.73835C15.4805 5.85233 15.7416 5.98703 15.9902 6.14037C16.1146 6.21705 16.2348 6.29787 16.3529 6.38284C16.3778 6.40149 16.4047 6.42014 16.4296 6.43879C16.4441 6.44915 16.4586 6.46159 16.4731 6.47195C16.5228 6.50925 16.3881 6.41185 16.4006 6.41599C16.4586 6.43257 16.5332 6.52169 16.5788 6.56106C16.7964 6.7455 17.0015 6.94444 17.1901 7.15999C17.2378 7.21387 17.2855 7.26982 17.3311 7.32578C17.3539 7.35479 17.3767 7.38173 17.3995 7.41074C17.414 7.42939 17.4471 7.47291 17.385 7.39002C17.3166 7.30091 17.3704 7.37137 17.385 7.39209C17.472 7.50814 17.5549 7.62834 17.6336 7.75061C17.8119 8.02831 17.9652 8.31842 18.0937 8.62101C18.073 8.57128 18.0523 8.52154 18.0315 8.4718C18.2346 8.95466 18.3735 9.46032 18.444 9.97842C18.4357 9.92247 18.4294 9.86859 18.4212 9.81263C18.4543 10.0696 18.473 10.3286 18.473 10.5898C18.473 10.9151 18.759 11.226 19.0947 11.2115C19.4304 11.197 19.7164 10.9379 19.7164 10.5898C19.7122 9.27176 19.3102 7.94749 18.5413 6.87196C17.7621 5.78188 16.6928 4.96332 15.4369 4.49911C14.181 4.0349 12.7594 3.99553 11.4746 4.36026C10.2416 4.71049 9.0997 5.44204 8.28318 6.43265C7.41486 7.48748 6.89468 8.75991 6.78899 10.1235C6.68537 11.4415 7.01488 12.799 7.69877 13.9304C8.35984 15.0225 9.35458 15.9323 10.5213 16.4608C11.1741 16.7571 11.8414 16.9395 12.5523 17.0224C13.2278 17.1011 13.9138 17.0597 14.579 16.925C15.8411 16.6701 17.0286 16.0007 17.9176 15.0702C18.8108 14.1356 19.4346 12.9253 19.6294 11.6446C19.6833 11.2944 19.7185 10.9442 19.7185 10.5898C19.7185 10.2644 19.4325 9.95355 19.0968 9.96806C18.7569 9.98257 18.473 10.2416 18.473 10.5898L18.473 10.5898Z" fill="black"/>
<path d="M13.8642 14.4963V13.3192C13.8642 12.9939 13.5783 12.683 13.2425 12.6975C12.9048 12.712 12.6208 12.9711 12.6208 13.3192V14.4963C12.6208 14.8217 12.9068 15.1325 13.2425 15.118C13.5803 15.1014 13.8642 14.8445 13.8642 14.4963Z" fill="black"/>
<path d="M13.8642 7.83778V6.68347C13.8642 6.35811 13.5783 6.04725 13.2425 6.06177C12.9048 6.07627 12.6208 6.33532 12.6208 6.68347V7.83778C12.6208 8.16314 12.9068 8.474 13.2425 8.45948C13.5803 8.44498 13.8642 8.18593 13.8642 7.83778Z" fill="black"/>
<path d="M10.8178 12.0551C10.824 12.5421 11.0146 13.0084 11.3545 13.3586C11.7006 13.713 12.171 13.9057 12.6601 13.9368C12.8466 13.9492 13.0352 13.9389 13.2217 13.9389C13.402 13.9389 13.5843 13.943 13.7667 13.9389C14.6931 13.9181 15.5904 13.2529 15.7417 12.31C15.8266 11.7836 15.7313 11.2365 15.4039 10.8055C15.0619 10.3558 14.5874 10.0574 14.0237 9.98065C13.7646 9.94542 13.5035 9.95578 13.2424 9.95578C13.0124 9.95578 12.7741 9.97029 12.544 9.94128C12.6 9.94957 12.6538 9.95578 12.7098 9.96407C12.5875 9.94542 12.4694 9.91434 12.3554 9.86875L12.5046 9.93092C12.4238 9.89569 12.3471 9.85631 12.2725 9.80865C12.2539 9.79621 12.2352 9.78378 12.2166 9.76927C12.1461 9.7216 12.2787 9.81693 12.2767 9.81693C12.2642 9.82108 12.1876 9.73818 12.1751 9.72575C12.1461 9.69674 12.1192 9.66565 12.0922 9.63664C12.0591 9.59933 12.0342 9.53509 12.1295 9.68845C12.1192 9.67394 12.1088 9.65943 12.0984 9.64493C12.0466 9.57032 12.0052 9.4895 11.97 9.4066L12.0321 9.55581C11.9865 9.44391 11.9555 9.32993 11.9389 9.2118C11.9472 9.26776 11.9534 9.32164 11.9617 9.37759C11.9492 9.26569 11.9492 9.15585 11.9617 9.04394C11.9534 9.0999 11.9472 9.15377 11.9389 9.20973C11.9555 9.0916 11.9845 8.9797 12.028 8.86986L11.9658 9.01907C11.999 8.94239 12.0363 8.86779 12.0819 8.79733C12.0943 8.78075 12.1047 8.76209 12.1171 8.74552C12.1544 8.69371 12.142 8.71236 12.0777 8.79733C12.1088 8.77038 12.1337 8.73308 12.1627 8.70407C12.1917 8.67506 12.2249 8.64605 12.2559 8.6191C12.3057 8.57973 12.2891 8.59216 12.2041 8.65848C12.2207 8.64604 12.2394 8.63361 12.2559 8.62118C12.3264 8.57351 12.4031 8.53414 12.4798 8.4989C12.43 8.51963 12.3803 8.54035 12.3305 8.56107C12.4528 8.50927 12.5772 8.47403 12.7098 8.45538C12.6538 8.46367 12.6 8.46989 12.544 8.47818C12.774 8.44917 13.0103 8.46367 13.2424 8.46367C13.4642 8.46367 13.6921 8.44917 13.9118 8.47403C13.8558 8.46574 13.8019 8.45953 13.746 8.45124C13.8683 8.46782 13.9864 8.50098 14.1004 8.54657L13.9512 8.4844C14.0237 8.51548 14.0921 8.55278 14.1563 8.59423C14.1708 8.60459 14.1853 8.61703 14.2019 8.62532C14.2599 8.65847 14.0921 8.53206 14.1418 8.57765C14.1708 8.60459 14.204 8.62946 14.233 8.65847C14.2579 8.68334 14.2827 8.71028 14.3076 8.73722C14.3677 8.79939 14.2579 8.67505 14.262 8.67505C14.2662 8.67505 14.291 8.71443 14.2931 8.71857C14.3387 8.78489 14.3781 8.85742 14.4112 8.93202L14.3491 8.78281C14.3926 8.88436 14.4216 8.99005 14.4382 9.09989C14.4299 9.04393 14.4237 8.99005 14.4154 8.9341C14.4216 8.99005 14.4257 9.046 14.4278 9.10403C14.432 9.42939 14.7117 9.74025 15.0495 9.72573C15.3832 9.71123 15.6754 9.45218 15.6712 9.10403C15.665 8.61701 15.4743 8.15075 15.1345 7.80053C14.7884 7.44615 14.318 7.2534 13.8289 7.22233C13.4683 7.19954 13.0973 7.21404 12.7347 7.22026C12.1958 7.22855 11.6653 7.442 11.2861 7.8254C10.913 8.2005 10.6892 8.73722 10.712 9.26775C10.7328 9.75682 10.9255 10.2148 11.2612 10.5713C11.6011 10.9339 12.0611 11.1287 12.5482 11.1888C13.0103 11.2448 13.4828 11.1577 13.9449 11.2178C13.889 11.2095 13.8351 11.2033 13.7791 11.195C13.9097 11.2158 14.0361 11.2489 14.1584 11.3007C14.1086 11.28 14.0589 11.2593 14.0092 11.2386C14.0879 11.2738 14.1625 11.3132 14.233 11.3608C14.2496 11.3733 14.2682 11.3857 14.2848 11.3981C14.2019 11.3318 14.1853 11.3194 14.233 11.3588C14.2641 11.3878 14.2951 11.4147 14.3262 11.4437C14.3552 11.4727 14.3801 11.51 14.4112 11.537C14.347 11.452 14.3345 11.4354 14.3718 11.4852C14.3843 11.5018 14.3967 11.5204 14.4071 11.537C14.4526 11.6074 14.492 11.682 14.5231 11.7587L14.4609 11.6095C14.5045 11.7194 14.5335 11.8313 14.5501 11.9494C14.5418 11.8934 14.5355 11.8396 14.5273 11.7836C14.5397 11.8955 14.5397 12.0053 14.5273 12.1172C14.5355 12.0613 14.5418 12.0074 14.5501 11.9515C14.5335 12.0696 14.5024 12.1856 14.4568 12.2955L14.519 12.1463C14.4858 12.225 14.4444 12.3017 14.3967 12.3721C14.3926 12.3784 14.3615 12.4281 14.3573 12.4281C14.3552 12.4281 14.4609 12.3017 14.405 12.3659C14.3739 12.3991 14.3449 12.4343 14.3138 12.4654C14.2848 12.4944 14.2496 12.5172 14.2226 12.5462C14.1812 12.5897 14.3594 12.4509 14.2724 12.5069C14.2578 12.5172 14.2433 12.5276 14.2268 12.5379C14.1501 12.5897 14.0693 12.6312 13.9843 12.6664L14.1335 12.6043C14.0195 12.6498 13.9014 12.683 13.7791 12.6996C13.8351 12.6913 13.889 12.6851 13.9449 12.6768C13.719 12.7058 13.4848 12.6913 13.2569 12.6913C13.0331 12.6913 12.801 12.7058 12.5772 12.6809C12.6331 12.6892 12.687 12.6954 12.7429 12.7037C12.6207 12.6871 12.5025 12.654 12.3886 12.6084L12.5378 12.6706C12.4652 12.6395 12.3969 12.6022 12.3326 12.5607C12.3181 12.5504 12.3036 12.5379 12.287 12.5296C12.229 12.4965 12.3969 12.6229 12.3471 12.5773C12.3181 12.5504 12.2849 12.5255 12.2559 12.4965C12.2311 12.4716 12.2062 12.4447 12.1813 12.4177C12.1212 12.3556 12.2311 12.4799 12.2269 12.4799C12.2228 12.4799 12.1979 12.4405 12.1958 12.4364C12.1502 12.3701 12.1109 12.2975 12.0777 12.2229L12.1399 12.3722C12.0964 12.2706 12.0673 12.1649 12.0508 12.0551C12.0591 12.111 12.0653 12.1649 12.0736 12.2209C12.0673 12.1649 12.0632 12.109 12.0611 12.0509C12.057 11.7256 11.7772 11.4147 11.4394 11.4292C11.1058 11.4479 10.8136 11.7049 10.8177 12.0551L10.8178 12.0551Z" fill="black"/>
<path d="M7.23681 6.57359V4.29191V3.9624L6.61511 4.5841H8.89679H9.2263C9.55166 4.5841 9.86251 4.29811 9.848 3.9624C9.83349 3.6246 9.57444 3.3407 9.2263 3.3407H6.94461H6.61511C6.27938 3.3407 5.99341 3.62461 5.99341 3.9624V6.24408V6.57359C5.99341 6.89895 6.2794 7.2098 6.61511 7.19529C6.95291 7.18078 7.23681 6.92173 7.23681 6.57359Z" fill="black"/>
<path d="M20.4916 6.57369V4.28788V3.96252C20.4916 3.6268 20.2076 3.34082 19.8699 3.34082H17.5882H17.2587C16.9333 3.34082 16.6224 3.62681 16.637 3.96252C16.6515 4.30032 16.9105 4.58422 17.2587 4.58422H19.5404H19.8699L19.2482 3.96252V6.24833V6.57369C19.2482 6.89905 19.5341 7.20991 19.8699 7.19539C20.2077 7.18089 20.4916 6.92184 20.4916 6.57369Z" fill="black"/>
<path d="M5.99341 14.6062V16.8879V17.2174C5.99341 17.5531 6.27732 17.8391 6.61511 17.8391H8.89679H9.2263C9.55166 17.8391 9.86251 17.5531 9.848 17.2174C9.83349 16.8796 9.57444 16.5957 9.2263 16.5957H6.94462H6.61511L7.23681 17.2174V14.9357V14.6062C7.23681 14.2808 6.95082 13.97 6.61511 13.9845C6.27731 13.999 5.99341 14.2581 5.99341 14.6062Z" fill="black"/>
<path d="M19.2481 14.6062V16.8879V17.2174L19.8698 16.5957H17.5882H17.2587C16.9333 16.5957 16.6225 16.8817 16.637 17.2174C16.6515 17.5552 16.9105 17.8391 17.2587 17.8391H19.5403H19.8698C20.2056 17.8391 20.4915 17.5552 20.4915 17.2174V14.9357V14.6062C20.4915 14.2808 20.2056 13.97 19.8698 13.9845C19.5321 13.999 19.2481 14.2581 19.2481 14.6062Z" fill="black"/>
<path d="M6.17567 12.0176L4.56128 10.4032C4.4846 10.3265 4.40585 10.2478 4.32917 10.1711V11.0498L5.94561 9.43338C6.02229 9.3567 6.09897 9.28002 6.17564 9.20334C6.40568 8.97331 6.42226 8.55053 6.17564 8.32464C5.92696 8.09668 5.54151 8.07803 5.29694 8.32464L3.6805 9.94108C3.60383 10.0178 3.52715 10.0944 3.45047 10.1711C3.21215 10.4094 3.21215 10.8115 3.45047 11.0498L5.06486 12.6642C5.14154 12.7409 5.22029 12.8196 5.29697 12.8963C5.527 13.1264 5.94978 13.1429 6.17567 12.8963C6.40363 12.6476 6.42228 12.2622 6.17567 12.0176Z" fill="black"/>
<path d="M20.3507 9.20349L21.9651 10.8179C22.0417 10.8946 22.1205 10.9733 22.1972 11.05V10.1713L20.5828 11.7857C20.5061 11.8624 20.4273 11.9411 20.3507 12.0178C20.1206 12.2478 20.1041 12.6706 20.3507 12.8965C20.5994 13.1244 20.9848 13.1431 21.2294 12.8965L22.8437 11.2821C22.9204 11.2054 22.9992 11.1267 23.0759 11.05C23.3142 10.8117 23.3142 10.4096 23.0759 10.1713L21.4615 8.5569C21.3848 8.48022 21.306 8.40147 21.2294 8.32479C20.9993 8.09476 20.5766 8.07818 20.3507 8.32479C20.1227 8.57348 20.1041 8.95892 20.3507 9.20349Z" fill="black"/>
<path d="M14.67 17.6981L13.0536 19.3145C12.9769 19.3912 12.9003 19.4679 12.8236 19.5446H13.7023L12.0858 17.9281C12.0092 17.8514 11.9325 17.7748 11.8558 17.6981C11.6258 17.4681 11.203 17.4515 10.9771 17.6981C10.7491 17.9468 10.7305 18.3322 10.9771 18.5768L12.5935 20.1932C12.6702 20.2699 12.7469 20.3466 12.8236 20.4233C13.0619 20.6616 13.4639 20.6616 13.7023 20.4233L15.3187 18.8068C15.3954 18.7301 15.4721 18.6535 15.5488 18.5768C15.7788 18.3468 15.7954 17.924 15.5488 17.6981C15.3001 17.4701 14.9146 17.4515 14.67 17.6981Z" fill="black"/>
<path d="M11.8561 3.52308L13.4705 1.90869C13.5471 1.83202 13.6259 1.75326 13.7026 1.67659H12.8239L14.4383 3.29098C14.5149 3.36765 14.5937 3.44641 14.6704 3.52308C14.9004 3.75312 15.3232 3.76969 15.5491 3.52308C15.777 3.2744 15.7957 2.88895 15.5491 2.64438L13.9347 1.02999C13.858 0.953312 13.7792 0.87456 13.7026 0.797883C13.4642 0.55956 13.0622 0.55956 12.8239 0.797883L11.2095 2.41227C11.1328 2.48895 11.0541 2.5677 10.9774 2.64438C10.7473 2.87441 10.7308 3.29719 10.9774 3.52308C11.2261 3.75104 11.6115 3.76969 11.8561 3.52308Z" fill="black"/>
</svg>
