<svg width="24" height="24" viewBox="0 0 24 24" fill="none" xmlns="http://www.w3.org/2000/svg">
<path d="M12 4V14" stroke="#111111" stroke-width="1.6" stroke-linecap="round"/>
<line x1="12" y1="14.5353" x2="14.8686" y2="11.6666" stroke="#111111" stroke-width="1.6" stroke-linecap="round"/>
<line x1="0.8" y1="-0.8" x2="4.85685" y2="-0.8" transform="matrix(-0.707107 -0.707107 -0.707107 0.707107 12 15.6666)" stroke="#111111" stroke-width="1.6" stroke-linecap="round"/>
<path d="M3.8 12.5C3.8 12.0582 3.44183 11.7 3 11.7C2.55817 11.7 2.2 12.0582 2.2 12.5H3.8ZM21.8 12.5C21.8 12.0582 21.4418 11.7 21 11.7C20.5582 11.7 20.2 12.0582 20.2 12.5H21.8ZM5.64065 19.6158L5.56388 20.4121L5.64065 19.6158ZM18.3593 19.6158L18.2826 18.8195L18.3593 19.6158ZM20.2 12.5C20.2 12.503 20.2 12.506 20.2 12.509C20.2 12.5121 20.2 12.5151 20.2 12.5181C20.2 12.5211 20.2 12.5241 20.2 12.5271C20.2 12.5301 20.2 12.5331 20.2 12.5362C20.2 12.5392 20.2 12.5422 20.2 12.5452C20.2 12.5482 20.2 12.5512 20.2 12.5542C20.2 12.5572 20.2 12.5602 20.2 12.5633C20.2 12.5663 20.2 12.5693 20.2 12.5723C20.2 12.5753 20.2 12.5783 20.2 12.5813C20.2 12.5843 20.2 12.5873 20.2 12.5903C20.2 12.5933 20.2 12.5964 20.2 12.5994C20.2 12.6024 20.2 12.6054 20.2 12.6084C20.2 12.6114 20.2 12.6144 20.2 12.6174C20.2 12.6204 20.2 12.6234 20.2 12.6264C20.2 12.6294 20.2 12.6324 20.2 12.6354C20.2 12.6384 20.2 12.6414 20.2 12.6445C20.2 12.6475 20.2 12.6505 20.2 12.6535C20.2 12.6565 20.2 12.6595 20.2 12.6625C20.2 12.6655 20.2 12.6685 20.2 12.6715C20.2 12.6745 20.2 12.6775 20.2 12.6805C20.2 12.6835 20.2 12.6865 20.2 12.6895C20.2 12.6925 20.2 12.6955 20.2 12.6985C20.2 12.7015 20.2 12.7045 20.2 12.7075C20.2 12.7105 20.2 12.7135 20.2 12.7165C20.2 12.7195 20.2 12.7225 20.2 12.7255C20.2 12.7285 20.2 12.7315 20.2 12.7345C20.2 12.7375 20.2 12.7405 20.2 12.7435C20.2 12.7465 20.2 12.7495 20.2 12.7524C20.2 12.7554 20.2 12.7584 20.2 12.7614C20.2 12.7644 20.2 12.7674 20.2 12.7704C20.2 12.7734 20.2 12.7764 20.2 12.7794C20.2 12.7824 20.2 12.7854 20.2 12.7884C20.2 12.7914 20.2 12.7944 20.2 12.7974C20.2 12.8004 20.2 12.8033 20.2 12.8063C20.2 12.8093 20.2 12.8123 20.2 12.8153C20.2 12.8183 20.2 12.8213 20.2 12.8243C20.2 12.8273 20.2 12.8303 20.2 12.8332C20.2 12.8362 20.2 12.8392 20.2 12.8422C20.2 12.8452 20.2 12.8482 20.2 12.8512C20.2 12.8542 20.2 12.8572 20.2 12.8601C20.2 12.8631 20.2 12.8661 20.2 12.8691C20.2 12.8721 20.2 12.8751 20.2 12.8781C20.2 12.881 20.2 12.884 20.2 12.887C20.2 12.89 20.2 12.893 20.2 12.896C20.2 12.899 20.2 12.9019 20.2 12.9049C20.2 12.9079 20.2 12.9109 20.2 12.9139C20.2 12.9169 20.2 12.9198 20.2 12.9228C20.2 12.9258 20.2 12.9288 20.2 12.9318C20.2 12.9347 20.2 12.9377 20.2 12.9407C20.2 12.9437 20.2 12.9467 20.2 12.9496C20.2 12.9526 20.2 12.9556 20.2 12.9586C20.2 12.9616 20.2 12.9645 20.2 12.9675C20.2 12.9705 20.2 12.9735 20.2 12.9764C20.2 12.9794 20.2 12.9824 20.2 12.9854C20.2 12.9884 20.2 12.9913 20.2 12.9943C20.2 12.9973 20.2 13.0003 20.2 13.0032C20.2 13.0062 20.2 13.0092 20.2 13.0121C20.2 13.0151 20.2 13.0181 20.2 13.0211C20.2 13.024 20.2 13.027 20.2 13.03C20.2 13.033 20.2 13.0359 20.2 13.0389C20.2 13.0419 20.2 13.0448 20.2 13.0478C20.2 13.0508 20.2 13.0538 20.2 13.0567C20.2 13.0597 20.2 13.0627 20.2 13.0656C20.2 13.0686 20.2 13.0716 20.2 13.0745C20.2 13.0775 20.2 13.0805 20.2 13.0834C20.2 13.0864 20.2 13.0894 20.2 13.0923C20.2 13.0953 20.2 13.0983 20.2 13.1012C20.2 13.1042 20.2 13.1072 20.2 13.1101C20.2 13.1131 20.2 13.1161 20.2 13.119C20.2 13.122 20.2 13.125 20.2 13.1279C20.2 13.1309 20.2 13.1339 20.2 13.1368C20.2 13.1398 20.2 13.1427 20.2 13.1457C20.2 13.1487 20.2 13.1516 20.2 13.1546C20.2 13.1575 20.2 13.1605 20.2 13.1635C20.2 13.1664 20.2 13.1694 20.2 13.1723C20.2 13.1753 20.2 13.1783 20.2 13.1812C20.2 13.1842 20.2 13.1871 20.2 13.1901C20.2 13.193 20.2 13.196 20.2 13.199C20.2 13.2019 20.2 13.2049 20.2 13.2078C20.2 13.2108 20.2 13.2137 20.2 13.2167C20.2 13.2196 20.2 13.2226 20.2 13.2256C20.2 13.2285 20.2 13.2315 20.2 13.2344C20.2 13.2374 20.2 13.2403 20.2 13.2433C20.2 13.2462 20.2 13.2492 20.2 13.2521C20.2 13.2551 20.2 13.258 20.2 13.261C20.2 13.2639 20.2 13.2669 20.2 13.2698C20.2 13.2728 20.2 13.2757 20.2 13.2787C20.2 13.2816 20.2 13.2846 20.2 13.2875C20.2 13.2905 20.2 13.2934 20.2 13.2964C20.2 13.2993 20.2 13.3023 20.2 13.3052C20.2 13.3081 20.2 13.3111 20.2 13.314C20.2 13.317 20.2 13.3199 20.2 13.3229C20.2 13.3258 20.2 13.3288 20.2 13.3317C20.2 13.3346 20.2 13.3376 20.2 13.3405C20.2 13.3435 20.2 13.3464 20.2 13.3494C20.2 13.3523 20.2 13.3552 20.2 13.3582C20.2 13.3611 20.2 13.3641 20.2 13.367C20.2 13.3699 20.2 13.3729 20.2 13.3758C20.2 13.3788 20.2 13.3817 20.2 13.3846C20.2 13.3876 20.2 13.3905 20.2 13.3934C20.2 13.3964 20.2 13.3993 20.2 13.4022C20.2 13.4052 20.2 13.4081 20.2 13.4111C20.2 13.414 20.2 13.4169 20.2 13.4199C20.2 13.4228 20.2 13.4257 20.2 13.4287C20.2 13.4316 20.2 13.4345 20.2 13.4375C20.2 13.4404 20.2 13.4433 20.2 13.4462C20.2 13.4492 20.2 13.4521 20.2 13.455C20.2 13.458 20.2 13.4609 20.2 13.4638C20.2 13.4668 20.2 13.4697 20.2 13.4726C20.2 13.4755 20.2 13.4785 20.2 13.4814C20.2 13.4843 20.2 13.4872 20.2 13.4902C20.2 13.4931 20.2 13.496 20.2 13.4989C20.2 13.5019 20.2 13.5048 20.2 13.5077C20.2 13.5106 20.2 13.5136 20.2 13.5165C20.2 13.5194 20.2 13.5223 20.2 13.5253C20.2 13.5282 20.2 13.5311 20.2 13.534C20.2 13.5369 20.2 13.5399 20.2 13.5428C20.2 13.5457 20.2 13.5486 20.2 13.5516C20.2 13.5545 20.2 13.5574 20.2 13.5603C20.2 13.5632 20.2 13.5661 20.2 13.5691C20.2 13.572 20.2 13.5749 20.2 13.5778C20.2 13.5807 20.2 13.5836 20.2 13.5866C20.2 13.5895 20.2 13.5924 20.2 13.5953C20.2 13.5982 20.2 13.6011 20.2 13.604C20.2 13.607 20.2 13.6099 20.2 13.6128C20.2 13.6157 20.2 13.6186 20.2 13.6215C20.2 13.6244 20.2 13.6273 20.2 13.6302C20.2 13.6332 20.2 13.6361 20.2 13.639C20.2 13.6419 20.2 13.6448 20.2 13.6477C20.2 13.6506 20.2 13.6535 20.2 13.6564C20.2 13.6593 20.2 13.6622 20.2 13.6651C20.2 13.6681 20.2 13.671 20.2 13.6739C20.2 13.6768 20.2 13.6797 20.2 13.6826C20.2 13.6855 20.2 13.6884 20.2 13.6913C20.2 13.6942 20.2 13.6971 20.2 13.7C20.2 13.7029 20.2 13.7058 20.2 13.7087C20.2 13.7116 20.2 13.7145 20.2 13.7174C20.2 13.7203 20.2 13.7232 20.2 13.7261C20.2 13.729 20.2 13.7319 20.2 13.7348C20.2 13.7377 20.2 13.7406 20.2 13.7435C20.2 13.7464 20.2 13.7493 20.2 13.7522C20.2 13.7551 20.2 13.758 20.2 13.7609C20.2 13.7638 20.2 13.7667 20.2 13.7695C20.2 13.7724 20.2 13.7753 20.2 13.7782C20.2 13.7811 20.2 13.784 20.2 13.7869C20.2 13.7898 20.2 13.7927 20.2 13.7956C20.2 13.7985 20.2 13.8014 20.2 13.8042C20.2 13.8071 20.2 13.81 20.2 13.8129C20.2 13.8158 20.2 13.8187 20.2 13.8216C20.2 13.8245 20.2 13.8273 20.2 13.8302C20.2 13.8331 20.2 13.836 20.2 13.8389C20.2 13.8418 20.2 13.8447 20.2 13.8475C20.2 13.8504 20.2 13.8533 20.2 13.8562C20.2 13.8591 20.2 13.862 20.2 13.8648C20.2 13.8677 20.2 13.8706 20.2 13.8735C20.2 13.8764 20.2 13.8792 20.2 13.8821C20.2 13.885 20.2 13.8879 20.2 13.8908C20.2 13.8936 20.2 13.8965 20.2 13.8994C20.2 13.9023 20.2 13.9051 20.2 13.908C20.2 13.9109 20.2 13.9138 20.2 13.9166C20.2 13.9195 20.2 13.9224 20.2 13.9253C20.2 13.9281 20.2 13.931 20.2 13.9339C20.2 13.9368 20.2 13.9396 20.2 13.9425C20.2 13.9454 20.2 13.9483 20.2 13.9511C20.2 13.954 20.2 13.9569 20.2 13.9597C20.2 13.9626 20.2 13.9655 20.2 13.9683C20.2 13.9712 20.2 13.9741 20.2 13.9769C20.2 13.9798 20.2 13.9827 20.2 13.9855C20.2 13.9884 20.2 13.9913 20.2 13.9941C20.2 13.997 20.2 13.9999 20.2 14.0027C20.2 14.0056 20.2 14.0085 20.2 14.0113C20.2 14.0142 20.2 14.017 20.2 14.0199C20.2 14.0228 20.2 14.0256 20.2 14.0285C20.2 14.0313 20.2 14.0342 20.2 14.0371C20.2 14.0399 20.2 14.0428 20.2 14.0456C20.2 14.0485 20.2 14.0514 20.2 14.0542C20.2 14.0571 20.2 14.0599 20.2 14.0628C20.2 14.0656 20.2 14.0685 20.2 14.0713C20.2 14.0742 20.2 14.0771 20.2 14.0799C20.2 14.0828 20.2 14.0856 20.2 14.0885C20.2 14.0913 20.2 14.0942 20.2 14.097C20.2 14.0999 20.2 14.1027 20.2 14.1056C20.2 14.1084 20.2 14.1113 20.2 14.1141C20.2 14.117 20.2 14.1198 20.2 14.1227C20.2 14.1255 20.2 14.1284 20.2 14.1312C20.2 14.134 20.2 14.1369 20.2 14.1397C20.2 14.1426 20.2 14.1454 20.2 14.1483C20.2 14.1511 20.2 14.154 20.2 14.1568C20.2 14.1596 20.2 14.1625 20.2 14.1653C20.2 14.1682 20.2 14.171 20.2 14.1738C20.2 14.1767 20.2 14.1795 20.2 14.1824C20.2 14.1852 20.2 14.188 20.2 14.1909C20.2 14.1937 20.2 14.1966 20.2 14.1994C20.2 14.2022 20.2 14.2051 20.2 14.2079C20.2 14.2107 20.2 14.2136 20.2 14.2164C20.2 14.2192 20.2 14.2221 20.2 14.2249C20.2 14.2277 20.2 14.2306 20.2 14.2334C20.2 14.2362 20.2 14.2391 20.2 14.2419C20.2 14.2447 20.2 14.2476 20.2 14.2504C20.2 14.2532 20.2 14.256 20.2 14.2589C20.2 14.2617 20.2 14.2645 20.2 14.2673C20.2 14.2702 20.2 14.273 20.2 14.2758C20.2 14.2787 20.2 14.2815 20.2 14.2843C20.2 14.2871 20.2 14.2899 20.2 14.2928C20.2 14.2956 20.2 14.2984 20.2 14.3012C20.2 14.3041 20.2 14.3069 20.2 14.3097C20.2 14.3125 20.2 14.3153 20.2 14.3182C20.2 14.321 20.2 14.3238 20.2 14.3266C20.2 14.3294 20.2 14.3322 20.2 14.3351C20.2 14.3379 20.2 14.3407 20.2 14.3435C20.2 14.3463 20.2 14.3491 20.2 14.352C20.2 14.3548 20.2 14.3576 20.2 14.3604C20.2 14.3632 20.2 14.366 20.2 14.3688C20.2 14.3716 20.2 14.3745 20.2 14.3773C20.2 14.3801 20.2 14.3829 20.2 14.3857C20.2 14.3885 20.2 14.3913 20.2 14.3941C20.2 14.3969 20.2 14.3997 20.2 14.4025C20.2 14.4053 20.2 14.4081 20.2 14.411C20.2 14.4138 20.2 14.4166 20.2 14.4194C20.2 14.4222 20.2 14.425 20.2 14.4278C20.2 14.4306 20.2 14.4334 20.2 14.4362C20.2 14.439 20.2 14.4418 20.2 14.4446C20.2 14.4474 20.2 14.4502 20.2 14.453C20.2 14.4558 20.2 14.4586 20.2 14.4614C20.2 14.4642 20.2 14.467 20.2 14.4698C20.2 14.4726 20.2 14.4754 20.2 14.4781C20.2 14.4809 20.2 14.4837 20.2 14.4865C20.2 14.4893 20.2 14.4921 20.2 14.4949C20.2 14.4977 20.2 14.5005 20.2 14.5033C20.2 14.5061 20.2 14.5089 20.2 14.5116C20.2 14.5144 20.2 14.5172 20.2 14.52C20.2 14.5228 20.2 14.5256 20.2 14.5284C20.2 14.5312 20.2 14.5339 20.2 14.5367C20.2 14.5395 20.2 14.5423 20.2 14.5451C20.2 14.5479 20.2 14.5507 20.2 14.5534C20.2 14.5562 20.2 14.559 20.2 14.5618C20.2 14.5646 20.2 14.5673 20.2 14.5701C20.2 14.5729 20.2 14.5757 20.2 14.5785C20.2 14.5812 20.2 14.584 20.2 14.5868C20.2 14.5896 20.2 14.5923 20.2 14.5951C20.2 14.5979 20.2 14.6007 20.2 14.6034C20.2 14.6062 20.2 14.609 20.2 14.6118C20.2 14.6145 20.2 14.6173 20.2 14.6201C20.2 14.6229 20.2 14.6256 20.2 14.6284C20.2 14.6312 20.2 14.6339 20.2 14.6367C20.2 14.6395 20.2 14.6422 20.2 14.645C20.2 14.6478 20.2 14.6505 20.2 14.6533C20.2 14.6561 20.2 14.6588 20.2 14.6616C20.2 14.6644 20.2 14.6671 20.2 14.6699C20.2 14.6727 20.2 14.6754 20.2 14.6782C20.2 14.6809 20.2 14.6837 20.2 14.6865C20.2 14.6892 20.2 14.692 20.2 14.6947C20.2 14.6975 20.2 14.7003 20.2 14.703C20.2 14.7058 20.2 14.7085 20.2 14.7113C20.2 14.714 20.2 14.7168 20.2 14.7196C20.2 14.7223 20.2 14.7251 20.2 14.7278C20.2 14.7306 20.2 14.7333 20.2 14.7361C20.2 14.7388 20.2 14.7416 20.2 14.7443C20.2 14.7471 20.2 14.7498 20.2 14.7526C20.2 14.7553 20.2 14.7581 20.2 14.7608C20.2 14.7636 20.2 14.7663 20.2 14.7691C20.2 14.7718 20.2 14.7746 20.2 14.7773C20.2 14.78 20.2 14.7828 20.2 14.7855C20.2 14.7883 20.2 14.791 20.2 14.7938C20.2 14.7965 20.2 14.7992 20.2 14.802C20.2 14.8047 20.2 14.8075 20.2 14.8102C20.2 14.8129 20.2 14.8157 20.2 14.8184C20.2 14.8212 20.2 14.8239 20.2 14.8266C20.2 14.8294 20.2 14.8321 20.2 14.8348C20.2 14.8376 20.2 14.8403 20.2 14.843C20.2 14.8458 20.2 14.8485 20.2 14.8512C20.2 14.854 20.2 14.8567 20.2 14.8594C20.2 14.8622 20.2 14.8649 20.2 14.8676C20.2 14.8703 20.2 14.8731 20.2 14.8758C20.2 14.8785 20.2 14.8813 20.2 14.884C20.2 14.8867 20.2 14.8894 20.2 14.8922C20.2 14.8949 20.2 14.8976 20.2 14.9003C20.2 14.9031 20.2 14.9058 20.2 14.9085C20.2 14.9112 20.2 14.9139 20.2 14.9167C20.2 14.9194 20.2 14.9221 20.2 14.9248C20.2 14.9275 20.2 14.9303 20.2 14.933C20.2 14.9357 20.2 14.9384 20.2 14.9411C20.2 14.9438 20.2 14.9465 20.2 14.9493C20.2 14.952 20.2 14.9547 20.2 14.9574C20.2 14.9601 20.2 14.9628 20.2 14.9655C20.2 14.9682 20.2 14.971 20.2 14.9737C20.2 14.9764 20.2 14.9791 20.2 14.9818C20.2 14.9845 20.2 14.9872 20.2 14.9899C20.2 14.9926 20.2 14.9953 20.2 14.998C20.2 15.0007 20.2 15.0034 20.2 15.0061C20.2 15.0088 20.2 15.0116 20.2 15.0143C20.2 15.017 20.2 15.0197 20.2 15.0224C20.2 15.0251 20.2 15.0278 20.2 15.0305C20.2 15.0332 20.2 15.0359 20.2 15.0385C20.2 15.0412 20.2 15.0439 20.2 15.0466C20.2 15.0493 20.2 15.052 20.2 15.0547C20.2 15.0574 20.2 15.0601 20.2 15.0628C20.2 15.0655 20.2 15.0682 20.2 15.0709C20.2 15.0736 20.2 15.0763 20.2 15.079C20.2 15.0816 20.2 15.0843 20.2 15.087C20.2 15.0897 20.2 15.0924 20.2 15.0951C20.2 15.0978 20.2 15.1005 20.2 15.1031C20.2 15.1058 20.2 15.1085 20.2 15.1112C20.2 15.1139 20.2 15.1166 20.2 15.1192C20.2 15.1219 20.2 15.1246 20.2 15.1273C20.2 15.13 20.2 15.1326 20.2 15.1353C20.2 15.138 20.2 15.1407 20.2 15.1434C20.2 15.146 20.2 15.1487 20.2 15.1514C20.2 15.1541 20.2 15.1567 20.2 15.1594C20.2 15.1621 20.2 15.1648 20.2 15.1674C20.2 15.1701 20.2 15.1728 20.2 15.1754C20.2 15.1781 20.2 15.1808 20.2 15.1835C20.2 15.1861 20.2 15.1888 20.2 15.1915C20.2 15.1941 20.2 15.1968 20.2 15.1995C20.2 15.2021 20.2 15.2048 20.2 15.2075C20.2 15.2101 20.2 15.2128 20.2 15.2154C20.2 15.2181 20.2 15.2208 20.2 15.2234C20.2 15.2261 20.2 15.2288 20.2 15.2314C20.2 15.2341 20.2 15.2367 20.2 15.2394C20.2 15.242 20.2 15.2447 20.2 15.2474C20.2 15.25 20.2 15.2527 20.2 15.2553C20.2 15.258 20.2 15.2606 20.2 15.2633C20.2 15.2659 20.2 15.2686 20.2 15.2712C20.2 15.2739 20.2 15.2765 20.2 15.2792C20.2 15.2818 20.2 15.2845 20.2 15.2871C20.2 15.2898 20.2 15.2924 20.2 15.2951C20.2 15.2977 20.2 15.3004 20.2 15.303C20.2 15.3057 20.2 15.3083 20.2 15.311C20.2 15.3136 20.2 15.3162 20.2 15.3189C20.2 15.3215 20.2 15.3242 20.2 15.3268C20.2 15.3294 20.2 15.3321 20.2 15.3347C20.2 15.3374 20.2 15.34 20.2 15.3426C20.2 15.3453 20.2 15.3479 20.2 15.3505C20.2 15.3532 20.2 15.3558 20.2 15.3584C20.2 15.3611 20.2 15.3637 20.2 15.3663C20.2 15.369 20.2 15.3716 20.2 15.3742C20.2 15.3769 20.2 15.3795 20.2 15.3821C20.2 15.3848 20.2 15.3874 20.2 15.39C20.2 15.3926 20.2 15.3953 20.2 15.3979C20.2 15.4005 20.2 15.4031 20.2 15.4058C20.2 15.4084 20.2 15.411 20.2 15.4136C20.2 15.4163 20.2 15.4189 20.2 15.4215C20.2 15.4241 20.2 15.4267 20.2 15.4294C20.2 15.432 20.2 15.4346 20.2 15.4372C20.2 15.4398 20.2 15.4424 20.2 15.4451C20.2 15.4477 20.2 15.4503 20.2 15.4529C20.2 15.4555 20.2 15.4581 20.2 15.4607C20.2 15.4633 20.2 15.466 20.2 15.4686C20.2 15.4712 20.2 15.4738 20.2 15.4764C20.2 15.479 20.2 15.4816 20.2 15.4842C20.2 15.4868 20.2 15.4894 20.2 15.492C20.2 15.4946 20.2 15.4972 20.2 15.4998C20.2 15.5024 20.2 15.5051 20.2 15.5077C20.2 15.5103 20.2 15.5129 20.2 15.5155C20.2 15.5181 20.2 15.5207 20.2 15.5233C20.2 15.5258 20.2 15.5284 20.2 15.531C20.2 15.5336 20.2 15.5362 20.2 15.5388C20.2 15.5414 20.2 15.544 20.2 15.5466C20.2 15.5492 20.2 15.5518 20.2 15.5544C20.2 15.557 20.2 15.5596 20.2 15.5622C20.2 15.5647 20.2 15.5673 20.2 15.5699C20.2 15.5725 20.2 15.5751 20.2 15.5777C20.2 15.5803 20.2 15.5829 20.2 15.5854C20.2 15.588 20.2 15.5906 20.2 15.5932C20.2 15.5958 20.2 15.5984 20.2 15.6009C20.2 15.6035 20.2 15.6061 20.2 15.6087C20.2 15.6113 20.2 15.6138 20.2 15.6164C20.2 15.619 20.2 15.6216 20.2 15.6241C20.2 15.6267 20.2 15.6293 20.2 15.6319C20.2 15.6344 20.2 15.637 20.2 15.6396C20.2 15.6421 20.2 15.6447 20.2 15.6473C20.2 15.6499 20.2 15.6524 20.2 15.655C20.2 15.6576 20.2 15.6601 20.2 15.6627C20.2 15.6653 20.2 15.6678 20.2 15.6704C20.2 15.673 20.2 15.6755 20.2 15.6781C20.2 15.6807 20.2 15.6832 20.2 15.6858C20.2 15.6883 20.2 15.6909 20.2 15.6935C20.2 15.696 20.2 15.6986 20.2 15.7011C20.2 15.7037 20.2 15.7062 20.2 15.7088C20.2 15.7114 20.2 15.7139 20.2 15.7165C20.2 15.719 20.2 15.7216 20.2 15.7241C20.2 15.7267 20.2 15.7292 20.2 15.7318C20.2 15.7343 20.2 15.7369 20.2 15.7394C20.2 15.742 20.2 15.7445 20.2 15.7471C20.2 15.7496 20.2 15.7522 20.2 15.7547C20.2 15.7573 20.2 15.7598 20.2 15.7623C20.2 15.7649 20.2 15.7674 20.2 15.77C20.2 15.7725 20.2 15.7751 20.2 15.7776C20.2 15.7801 20.2 15.7827 20.2 15.7852C20.2 15.7877 20.2 15.7903 20.2 15.7928C20.2 15.7954 20.2 15.7979 20.2 15.8004C20.2 15.803 20.2 15.8055 20.2 15.808C20.2 15.8106 20.2 15.8131 20.2 15.8156C20.2 15.8181 20.2 15.8207 20.2 15.8232C20.2 15.8257 20.2 15.8283 20.2 15.8308C20.2 15.8333 20.2 15.8358 20.2 15.8384C20.2 15.8409 20.2 15.8434 20.2 15.8459C20.2 15.8485 20.2 15.851 20.2 15.8535C20.2 15.856 20.2 15.8585 20.2 15.8611C20.2 15.8636 20.2 15.8661 20.2 15.8686C20.2 15.8711 20.2 15.8737 20.2 15.8762C20.2 15.8787 20.2 15.8812 20.2 15.8837C20.2 15.8862 20.2 15.8887 20.2 15.8912C20.2 15.8938 20.2 15.8963 20.2 15.8988C20.2 15.9013 20.2 15.9038 20.2 15.9063C20.2 15.9088 20.2 15.9113 20.2 15.9138C20.2 15.9163 20.2 15.9188 20.2 15.9213C20.2 15.9239 20.2 15.9264 20.2 15.9289C20.2 15.9314 20.2 15.9339 20.2 15.9364C20.2 15.9389 20.2 15.9414 20.2 15.9439C20.2 15.9464 20.2 15.9489 20.2 15.9514C20.2 15.9538 20.2 15.9563 20.2 15.9588C20.2 15.9613 20.2 15.9638 20.2 15.9663C20.2 15.9688 20.2 15.9713 20.2 15.9738C20.2 15.9763 20.2 15.9788 20.2 15.9813C20.2 15.9838 20.2 15.9862 20.2 15.9887C20.2 15.9912 20.2 15.9937 20.2 15.9962C20.2 15.9987 20.2 16.0012 20.2 16.0036C20.2 16.0061 20.2 16.0086 20.2 16.0111C20.2 16.0136 20.2 16.0161 20.2 16.0185C20.2 16.021 20.2 16.0235 20.2 16.026C20.2 16.0284 20.2 16.0309 20.2 16.0334C20.2 16.0359 20.2 16.0384 20.2 16.0408C20.2 16.0433 20.2 16.0458 20.2 16.0482C20.2 16.0507 20.2 16.0532 20.2 16.0557C20.2 16.0581 20.2 16.0606 20.2 16.0631C20.2 16.0655 20.2 16.068 20.2 16.0705C20.2 16.0729 20.2 16.0754 20.2 16.0779C20.2 16.0803 20.2 16.0828 20.2 16.0852C20.2 16.0877 20.2 16.0902 20.2 16.0926C20.2 16.0951 20.2 16.0976 20.2 16.1C20.2 16.1025 20.2 16.1049 20.2 16.1074C20.2 16.1098 20.2 16.1123 20.2 16.1147C20.2 16.1172 20.2 16.1197 20.2 16.1221C20.2 16.1246 20.2 16.127 20.2 16.1295C20.2 16.1319 20.2 16.1344 20.2 16.1368C20.2 16.1393 20.2 16.1417 20.2 16.1442C20.2 16.1466 20.2 16.149 20.2 16.1515C20.2 16.1539 20.2 16.1564 20.2 16.1588C20.2 16.1613 20.2 16.1637 20.2 16.1661C20.2 16.1686 20.2 16.171 20.2 16.1735C20.2 16.1759 20.2 16.1783 20.2 16.1808C20.2 16.1832 20.2 16.1856 20.2 16.1881C20.2 16.1905 20.2 16.193 20.2 16.1954C20.2 16.1978 20.2 16.2002 20.2 16.2027C20.2 16.2051 20.2 16.2075 20.2 16.21C20.2 16.2124 20.2 16.2148 20.2 16.2173C20.2 16.2197 20.2 16.2221 20.2 16.2245C20.2 16.227 20.2 16.2294 20.2 16.2318C20.2 16.2342 20.2 16.2366 20.2 16.2391C20.2 16.2415 20.2 16.2439 20.2 16.2463C20.2 16.2487 20.2 16.2512 20.2 16.2536C20.2 16.256 20.2 16.2584 20.2 16.2608C20.2 16.2632 20.2 16.2656 20.2 16.2681C20.2 16.2705 20.2 16.2729 20.2 16.2753C20.2 16.2777 20.2 16.2801 20.2 16.2825C20.2 16.2849 20.2 16.2873 20.2 16.2897C20.2 16.2922 20.2 16.2946 20.2 16.297C20.2 16.2994 20.2 16.3018 20.2 16.3042C20.2 16.3066 20.2 16.309 20.2 16.3114C20.2 16.3138 20.2 16.3162 20.2 16.3186C20.2 16.321 20.2 16.3234 20.2 16.3258C20.2 16.3282 20.2 16.3306 20.2 16.3329C20.2 16.3353 20.2 16.3377 20.2 16.3401C20.2 16.3425 20.2 16.3449 20.2 16.3473C20.2 16.3497 20.2 16.3521 20.2 16.3545C20.2 16.3569 20.2 16.3592 20.2 16.3616C20.2 16.364 20.2 16.3664 20.2 16.3688C20.2 16.3712 20.2 16.3735 20.2 16.3759C20.2 16.3783 20.2 16.3807 20.2 16.3831C20.2 16.3855 20.2 16.3878 20.2 16.3902C20.2 16.3926 20.2 16.395 20.2 16.3973C20.2 16.3997 20.2 16.4021 20.2 16.4045C20.2 16.4068 20.2 16.4092 20.2 16.4116C20.2 16.4139 20.2 16.4163 20.2 16.4187C20.2 16.4211 20.2 16.4234 20.2 16.4258C20.2 16.4282 20.2 16.4305 20.2 16.4329C20.2 16.4353 20.2 16.4376 20.2 16.44C20.2 16.4423 20.2 16.4447 20.2 16.4471C20.2 16.4494 20.2 16.4518 20.2 16.4541C20.2 16.4565 20.2 16.4589 20.2 16.4612C20.2 16.4636 20.2 16.4659 20.2 16.4683C20.2 16.4706 20.2 16.473 20.2 16.4753C20.2 16.4777 20.2 16.4801 20.2 16.4824C20.2 16.4848 20.2 16.4871 20.2 16.4894C20.2 16.4918 20.2 16.4941 20.2 16.4965C20.2 16.4988 20.2 16.5012 20.2 16.5035C20.2 16.5059 20.2 16.5082 20.2 16.5106C20.2 16.5129 20.2 16.5152 20.2 16.5176C20.2 16.5199 20.2 16.5223 20.2 16.5246C20.2 16.5269 20.2 16.5293 20.2 16.5316C20.2 16.5339 20.2 16.5363 20.2 16.5386C20.2 16.5409 20.2 16.5433 20.2 16.5456C20.2 16.5479 20.2 16.5503 20.2 16.5526C20.2 16.5549 20.2 16.5572 20.2 16.5596C20.2 16.5619 20.2 16.5642 20.2 16.5665C20.2 16.5689 20.2 16.5712 20.2 16.5735C20.2 16.5758 20.2 16.5782 20.2 16.5805C20.2 16.5828 20.2 16.5851 20.2 16.5874C20.2 16.5898 20.2 16.5921 20.2 16.5944C20.2 16.5967 20.2 16.599 20.2 16.6013C20.2 16.6036 20.2 16.606 20.2 16.6083C20.2 16.6106 20.2 16.6129 20.2 16.6152C20.2 16.6175 20.2 16.6198 20.2 16.6221C20.2 16.6244 20.2 16.6267 20.2 16.629C20.2 16.6314 20.2 16.6337 20.2 16.636C20.2 16.6383 20.2 16.6406 20.2 16.6429C20.2 16.6452 20.2 16.6475 20.2 16.6498C20.2 16.6521 20.2 16.6544 20.2 16.6567C20.2 16.659 20.2 16.6612 20.2 16.6635C20.2 16.6658 20.2 16.6681 20.2 16.6704C20.2 16.6727 20.2 16.675 20.2 16.6773H21.8C21.8 16.675 21.8 16.6727 21.8 16.6704C21.8 16.6681 21.8 16.6658 21.8 16.6635C21.8 16.6612 21.8 16.659 21.8 16.6567C21.8 16.6544 21.8 16.6521 21.8 16.6498C21.8 16.6475 21.8 16.6452 21.8 16.6429C21.8 16.6406 21.8 16.6383 21.8 16.636C21.8 16.6337 21.8 16.6314 21.8 16.629C21.8 16.6267 21.8 16.6244 21.8 16.6221C21.8 16.6198 21.8 16.6175 21.8 16.6152C21.8 16.6129 21.8 16.6106 21.8 16.6083C21.8 16.606 21.8 16.6036 21.8 16.6013C21.8 16.599 21.8 16.5967 21.8 16.5944C21.8 16.5921 21.8 16.5898 21.8 16.5874C21.8 16.5851 21.8 16.5828 21.8 16.5805C21.8 16.5782 21.8 16.5758 21.8 16.5735C21.8 16.5712 21.8 16.5689 21.8 16.5665C21.8 16.5642 21.8 16.5619 21.8 16.5596C21.8 16.5572 21.8 16.5549 21.8 16.5526C21.8 16.5503 21.8 16.5479 21.8 16.5456C21.8 16.5433 21.8 16.5409 21.8 16.5386C21.8 16.5363 21.8 16.5339 21.8 16.5316C21.8 16.5293 21.8 16.5269 21.8 16.5246C21.8 16.5223 21.8 16.5199 21.8 16.5176C21.8 16.5152 21.8 16.5129 21.8 16.5106C21.8 16.5082 21.8 16.5059 21.8 16.5035C21.8 16.5012 21.8 16.4988 21.8 16.4965C21.8 16.4941 21.8 16.4918 21.8 16.4894C21.8 16.4871 21.8 16.4848 21.8 16.4824C21.8 16.4801 21.8 16.4777 21.8 16.4753C21.8 16.473 21.8 16.4706 21.8 16.4683C21.8 16.4659 21.8 16.4636 21.8 16.4612C21.8 16.4589 21.8 16.4565 21.8 16.4541C21.8 16.4518 21.8 16.4494 21.8 16.4471C21.8 16.4447 21.8 16.4423 21.8 16.44C21.8 16.4376 21.8 16.4353 21.8 16.4329C21.8 16.4305 21.8 16.4282 21.8 16.4258C21.8 16.4234 21.8 16.4211 21.8 16.4187C21.8 16.4163 21.8 16.4139 21.8 16.4116C21.8 16.4092 21.8 16.4068 21.8 16.4045C21.8 16.4021 21.8 16.3997 21.8 16.3973C21.8 16.395 21.8 16.3926 21.8 16.3902C21.8 16.3878 21.8 16.3855 21.8 16.3831C21.8 16.3807 21.8 16.3783 21.8 16.3759C21.8 16.3735 21.8 16.3712 21.8 16.3688C21.8 16.3664 21.8 16.364 21.8 16.3616C21.8 16.3592 21.8 16.3569 21.8 16.3545C21.8 16.3521 21.8 16.3497 21.8 16.3473C21.8 16.3449 21.8 16.3425 21.8 16.3401C21.8 16.3377 21.8 16.3353 21.8 16.3329C21.8 16.3306 21.8 16.3282 21.8 16.3258C21.8 16.3234 21.8 16.321 21.8 16.3186C21.8 16.3162 21.8 16.3138 21.8 16.3114C21.8 16.309 21.8 16.3066 21.8 16.3042C21.8 16.3018 21.8 16.2994 21.8 16.297C21.8 16.2946 21.8 16.2922 21.8 16.2897C21.8 16.2873 21.8 16.2849 21.8 16.2825C21.8 16.2801 21.8 16.2777 21.8 16.2753C21.8 16.2729 21.8 16.2705 21.8 16.2681C21.8 16.2656 21.8 16.2632 21.8 16.2608C21.8 16.2584 21.8 16.256 21.8 16.2536C21.8 16.2512 21.8 16.2487 21.8 16.2463C21.8 16.2439 21.8 16.2415 21.8 16.2391C21.8 16.2366 21.8 16.2342 21.8 16.2318C21.8 16.2294 21.8 16.227 21.8 16.2245C21.8 16.2221 21.8 16.2197 21.8 16.2173C21.8 16.2148 21.8 16.2124 21.8 16.21C21.8 16.2075 21.8 16.2051 21.8 16.2027C21.8 16.2002 21.8 16.1978 21.8 16.1954C21.8 16.193 21.8 16.1905 21.8 16.1881C21.8 16.1856 21.8 16.1832 21.8 16.1808C21.8 16.1783 21.8 16.1759 21.8 16.1735C21.8 16.171 21.8 16.1686 21.8 16.1661C21.8 16.1637 21.8 16.1613 21.8 16.1588C21.8 16.1564 21.8 16.1539 21.8 16.1515C21.8 16.149 21.8 16.1466 21.8 16.1442C21.8 16.1417 21.8 16.1393 21.8 16.1368C21.8 16.1344 21.8 16.1319 21.8 16.1295C21.8 16.127 21.8 16.1246 21.8 16.1221C21.8 16.1197 21.8 16.1172 21.8 16.1147C21.8 16.1123 21.8 16.1098 21.8 16.1074C21.8 16.1049 21.8 16.1025 21.8 16.1C21.8 16.0976 21.8 16.0951 21.8 16.0926C21.8 16.0902 21.8 16.0877 21.8 16.0852C21.8 16.0828 21.8 16.0803 21.8 16.0779C21.8 16.0754 21.8 16.0729 21.8 16.0705C21.8 16.068 21.8 16.0655 21.8 16.0631C21.8 16.0606 21.8 16.0581 21.8 16.0557C21.8 16.0532 21.8 16.0507 21.8 16.0482C21.8 16.0458 21.8 16.0433 21.8 16.0408C21.8 16.0384 21.8 16.0359 21.8 16.0334C21.8 16.0309 21.8 16.0284 21.8 16.026C21.8 16.0235 21.8 16.021 21.8 16.0185C21.8 16.0161 21.8 16.0136 21.8 16.0111C21.8 16.0086 21.8 16.0061 21.8 16.0036C21.8 16.0012 21.8 15.9987 21.8 15.9962C21.8 15.9937 21.8 15.9912 21.8 15.9887C21.8 15.9862 21.8 15.9838 21.8 15.9813C21.8 15.9788 21.8 15.9763 21.8 15.9738C21.8 15.9713 21.8 15.9688 21.8 15.9663C21.8 15.9638 21.8 15.9613 21.8 15.9588C21.8 15.9563 21.8 15.9538 21.8 15.9514C21.8 15.9489 21.8 15.9464 21.8 15.9439C21.8 15.9414 21.8 15.9389 21.8 15.9364C21.8 15.9339 21.8 15.9314 21.8 15.9289C21.8 15.9264 21.8 15.9239 21.8 15.9213C21.8 15.9188 21.8 15.9163 21.8 15.9138C21.8 15.9113 21.8 15.9088 21.8 15.9063C21.8 15.9038 21.8 15.9013 21.8 15.8988C21.8 15.8963 21.8 15.8938 21.8 15.8912C21.8 15.8887 21.8 15.8862 21.8 15.8837C21.8 15.8812 21.8 15.8787 21.8 15.8762C21.8 15.8737 21.8 15.8711 21.8 15.8686C21.8 15.8661 21.8 15.8636 21.8 15.8611C21.8 15.8585 21.8 15.856 21.8 15.8535C21.8 15.851 21.8 15.8485 21.8 15.8459C21.8 15.8434 21.8 15.8409 21.8 15.8384C21.8 15.8358 21.8 15.8333 21.8 15.8308C21.8 15.8283 21.8 15.8257 21.8 15.8232C21.8 15.8207 21.8 15.8181 21.8 15.8156C21.8 15.8131 21.8 15.8106 21.8 15.808C21.8 15.8055 21.8 15.803 21.8 15.8004C21.8 15.7979 21.8 15.7954 21.8 15.7928C21.8 15.7903 21.8 15.7877 21.8 15.7852C21.8 15.7827 21.8 15.7801 21.8 15.7776C21.8 15.7751 21.8 15.7725 21.8 15.77C21.8 15.7674 21.8 15.7649 21.8 15.7623C21.8 15.7598 21.8 15.7573 21.8 15.7547C21.8 15.7522 21.8 15.7496 21.8 15.7471C21.8 15.7445 21.8 15.742 21.8 15.7394C21.8 15.7369 21.8 15.7343 21.8 15.7318C21.8 15.7292 21.8 15.7267 21.8 15.7241C21.8 15.7216 21.8 15.719 21.8 15.7165C21.8 15.7139 21.8 15.7114 21.8 15.7088C21.8 15.7062 21.8 15.7037 21.8 15.7011C21.8 15.6986 21.8 15.696 21.8 15.6935C21.8 15.6909 21.8 15.6883 21.8 15.6858C21.8 15.6832 21.8 15.6807 21.8 15.6781C21.8 15.6755 21.8 15.673 21.8 15.6704C21.8 15.6678 21.8 15.6653 21.8 15.6627C21.8 15.6601 21.8 15.6576 21.8 15.655C21.8 15.6524 21.8 15.6499 21.8 15.6473C21.8 15.6447 21.8 15.6421 21.8 15.6396C21.8 15.637 21.8 15.6344 21.8 15.6319C21.8 15.6293 21.8 15.6267 21.8 15.6241C21.8 15.6216 21.8 15.619 21.8 15.6164C21.8 15.6138 21.8 15.6113 21.8 15.6087C21.8 15.6061 21.8 15.6035 21.8 15.6009C21.8 15.5984 21.8 15.5958 21.8 15.5932C21.8 15.5906 21.8 15.588 21.8 15.5854C21.8 15.5829 21.8 15.5803 21.8 15.5777C21.8 15.5751 21.8 15.5725 21.8 15.5699C21.8 15.5673 21.8 15.5647 21.8 15.5622C21.8 15.5596 21.8 15.557 21.8 15.5544C21.8 15.5518 21.8 15.5492 21.8 15.5466C21.8 15.544 21.8 15.5414 21.8 15.5388C21.8 15.5362 21.8 15.5336 21.8 15.531C21.8 15.5284 21.8 15.5258 21.8 15.5233C21.8 15.5207 21.8 15.5181 21.8 15.5155C21.8 15.5129 21.8 15.5103 21.8 15.5077C21.8 15.5051 21.8 15.5024 21.8 15.4998C21.8 15.4972 21.8 15.4946 21.8 15.492C21.8 15.4894 21.8 15.4868 21.8 15.4842C21.8 15.4816 21.8 15.479 21.8 15.4764C21.8 15.4738 21.8 15.4712 21.8 15.4686C21.8 15.466 21.8 15.4633 21.8 15.4607C21.8 15.4581 21.8 15.4555 21.8 15.4529C21.8 15.4503 21.8 15.4477 21.8 15.4451C21.8 15.4424 21.8 15.4398 21.8 15.4372C21.8 15.4346 21.8 15.432 21.8 15.4294C21.8 15.4267 21.8 15.4241 21.8 15.4215C21.8 15.4189 21.8 15.4163 21.8 15.4136C21.8 15.411 21.8 15.4084 21.8 15.4058C21.8 15.4031 21.8 15.4005 21.8 15.3979C21.8 15.3953 21.8 15.3926 21.8 15.39C21.8 15.3874 21.8 15.3848 21.8 15.3821C21.8 15.3795 21.8 15.3769 21.8 15.3742C21.8 15.3716 21.8 15.369 21.8 15.3663C21.8 15.3637 21.8 15.3611 21.8 15.3584C21.8 15.3558 21.8 15.3532 21.8 15.3505C21.8 15.3479 21.8 15.3453 21.8 15.3426C21.8 15.34 21.8 15.3374 21.8 15.3347C21.8 15.3321 21.8 15.3294 21.8 15.3268C21.8 15.3242 21.8 15.3215 21.8 15.3189C21.8 15.3162 21.8 15.3136 21.8 15.311C21.8 15.3083 21.8 15.3057 21.8 15.303C21.8 15.3004 21.8 15.2977 21.8 15.2951C21.8 15.2924 21.8 15.2898 21.8 15.2871C21.8 15.2845 21.8 15.2818 21.8 15.2792C21.8 15.2765 21.8 15.2739 21.8 15.2712C21.8 15.2686 21.8 15.2659 21.8 15.2633C21.8 15.2606 21.8 15.258 21.8 15.2553C21.8 15.2527 21.8 15.25 21.8 15.2474C21.8 15.2447 21.8 15.242 21.8 15.2394C21.8 15.2367 21.8 15.2341 21.8 15.2314C21.8 15.2288 21.8 15.2261 21.8 15.2234C21.8 15.2208 21.8 15.2181 21.8 15.2154C21.8 15.2128 21.8 15.2101 21.8 15.2075C21.8 15.2048 21.8 15.2021 21.8 15.1995C21.8 15.1968 21.8 15.1941 21.8 15.1915C21.8 15.1888 21.8 15.1861 21.8 15.1835C21.8 15.1808 21.8 15.1781 21.8 15.1754C21.8 15.1728 21.8 15.1701 21.8 15.1674C21.8 15.1648 21.8 15.1621 21.8 15.1594C21.8 15.1567 21.8 15.1541 21.8 15.1514C21.8 15.1487 21.8 15.146 21.8 15.1434C21.8 15.1407 21.8 15.138 21.8 15.1353C21.8 15.1326 21.8 15.13 21.8 15.1273C21.8 15.1246 21.8 15.1219 21.8 15.1192C21.8 15.1166 21.8 15.1139 21.8 15.1112C21.8 15.1085 21.8 15.1058 21.8 15.1031C21.8 15.1005 21.8 15.0978 21.8 15.0951C21.8 15.0924 21.8 15.0897 21.8 15.087C21.8 15.0843 21.8 15.0816 21.8 15.079C21.8 15.0763 21.8 15.0736 21.8 15.0709C21.8 15.0682 21.8 15.0655 21.8 15.0628C21.8 15.0601 21.8 15.0574 21.8 15.0547C21.8 15.052 21.8 15.0493 21.8 15.0466C21.8 15.0439 21.8 15.0412 21.8 15.0385C21.8 15.0359 21.8 15.0332 21.8 15.0305C21.8 15.0278 21.8 15.0251 21.8 15.0224C21.8 15.0197 21.8 15.017 21.8 15.0143C21.8 15.0116 21.8 15.0088 21.8 15.0061C21.8 15.0034 21.8 15.0007 21.8 14.998C21.8 14.9953 21.8 14.9926 21.8 14.9899C21.8 14.9872 21.8 14.9845 21.8 14.9818C21.8 14.9791 21.8 14.9764 21.8 14.9737C21.8 14.971 21.8 14.9682 21.8 14.9655C21.8 14.9628 21.8 14.9601 21.8 14.9574C21.8 14.9547 21.8 14.952 21.8 14.9493C21.8 14.9465 21.8 14.9438 21.8 14.9411C21.8 14.9384 21.8 14.9357 21.8 14.933C21.8 14.9303 21.8 14.9275 21.8 14.9248C21.8 14.9221 21.8 14.9194 21.8 14.9167C21.8 14.9139 21.8 14.9112 21.8 14.9085C21.8 14.9058 21.8 14.9031 21.8 14.9003C21.8 14.8976 21.8 14.8949 21.8 14.8922C21.8 14.8894 21.8 14.8867 21.8 14.884C21.8 14.8813 21.8 14.8785 21.8 14.8758C21.8 14.8731 21.8 14.8703 21.8 14.8676C21.8 14.8649 21.8 14.8622 21.8 14.8594C21.8 14.8567 21.8 14.854 21.8 14.8512C21.8 14.8485 21.8 14.8458 21.8 14.843C21.8 14.8403 21.8 14.8376 21.8 14.8348C21.8 14.8321 21.8 14.8294 21.8 14.8266C21.8 14.8239 21.8 14.8212 21.8 14.8184C21.8 14.8157 21.8 14.8129 21.8 14.8102C21.8 14.8075 21.8 14.8047 21.8 14.802C21.8 14.7992 21.8 14.7965 21.8 14.7938C21.8 14.791 21.8 14.7883 21.8 14.7855C21.8 14.7828 21.8 14.78 21.8 14.7773C21.8 14.7746 21.8 14.7718 21.8 14.7691C21.8 14.7663 21.8 14.7636 21.8 14.7608C21.8 14.7581 21.8 14.7553 21.8 14.7526C21.8 14.7498 21.8 14.7471 21.8 14.7443C21.8 14.7416 21.8 14.7388 21.8 14.7361C21.8 14.7333 21.8 14.7306 21.8 14.7278C21.8 14.7251 21.8 14.7223 21.8 14.7196C21.8 14.7168 21.8 14.714 21.8 14.7113C21.8 14.7085 21.8 14.7058 21.8 14.703C21.8 14.7003 21.8 14.6975 21.8 14.6947C21.8 14.692 21.8 14.6892 21.8 14.6865C21.8 14.6837 21.8 14.6809 21.8 14.6782C21.8 14.6754 21.8 14.6727 21.8 14.6699C21.8 14.6671 21.8 14.6644 21.8 14.6616C21.8 14.6588 21.8 14.6561 21.8 14.6533C21.8 14.6505 21.8 14.6478 21.8 14.645C21.8 14.6422 21.8 14.6395 21.8 14.6367C21.8 14.6339 21.8 14.6312 21.8 14.6284C21.8 14.6256 21.8 14.6229 21.8 14.6201C21.8 14.6173 21.8 14.6145 21.8 14.6118C21.8 14.609 21.8 14.6062 21.8 14.6034C21.8 14.6007 21.8 14.5979 21.8 14.5951C21.8 14.5923 21.8 14.5896 21.8 14.5868C21.8 14.584 21.8 14.5812 21.8 14.5785C21.8 14.5757 21.8 14.5729 21.8 14.5701C21.8 14.5673 21.8 14.5646 21.8 14.5618C21.8 14.559 21.8 14.5562 21.8 14.5534C21.8 14.5507 21.8 14.5479 21.8 14.5451C21.8 14.5423 21.8 14.5395 21.8 14.5367C21.8 14.5339 21.8 14.5312 21.8 14.5284C21.8 14.5256 21.8 14.5228 21.8 14.52C21.8 14.5172 21.8 14.5144 21.8 14.5116C21.8 14.5089 21.8 14.5061 21.8 14.5033C21.8 14.5005 21.8 14.4977 21.8 14.4949C21.8 14.4921 21.8 14.4893 21.8 14.4865C21.8 14.4837 21.8 14.4809 21.8 14.4781C21.8 14.4754 21.8 14.4726 21.8 14.4698C21.8 14.467 21.8 14.4642 21.8 14.4614C21.8 14.4586 21.8 14.4558 21.8 14.453C21.8 14.4502 21.8 14.4474 21.8 14.4446C21.8 14.4418 21.8 14.439 21.8 14.4362C21.8 14.4334 21.8 14.4306 21.8 14.4278C21.8 14.425 21.8 14.4222 21.8 14.4194C21.8 14.4166 21.8 14.4138 21.8 14.411C21.8 14.4081 21.8 14.4053 21.8 14.4025C21.8 14.3997 21.8 14.3969 21.8 14.3941C21.8 14.3913 21.8 14.3885 21.8 14.3857C21.8 14.3829 21.8 14.3801 21.8 14.3773C21.8 14.3745 21.8 14.3716 21.8 14.3688C21.8 14.366 21.8 14.3632 21.8 14.3604C21.8 14.3576 21.8 14.3548 21.8 14.352C21.8 14.3491 21.8 14.3463 21.8 14.3435C21.8 14.3407 21.8 14.3379 21.8 14.3351C21.8 14.3322 21.8 14.3294 21.8 14.3266C21.8 14.3238 21.8 14.321 21.8 14.3182C21.8 14.3153 21.8 14.3125 21.8 14.3097C21.8 14.3069 21.8 14.3041 21.8 14.3012C21.8 14.2984 21.8 14.2956 21.8 14.2928C21.8 14.2899 21.8 14.2871 21.8 14.2843C21.8 14.2815 21.8 14.2787 21.8 14.2758C21.8 14.273 21.8 14.2702 21.8 14.2673C21.8 14.2645 21.8 14.2617 21.8 14.2589C21.8 14.256 21.8 14.2532 21.8 14.2504C21.8 14.2476 21.8 14.2447 21.8 14.2419C21.8 14.2391 21.8 14.2362 21.8 14.2334C21.8 14.2306 21.8 14.2277 21.8 14.2249C21.8 14.2221 21.8 14.2192 21.8 14.2164C21.8 14.2136 21.8 14.2107 21.8 14.2079C21.8 14.2051 21.8 14.2022 21.8 14.1994C21.8 14.1966 21.8 14.1937 21.8 14.1909C21.8 14.188 21.8 14.1852 21.8 14.1824C21.8 14.1795 21.8 14.1767 21.8 14.1738C21.8 14.171 21.8 14.1682 21.8 14.1653C21.8 14.1625 21.8 14.1596 21.8 14.1568C21.8 14.154 21.8 14.1511 21.8 14.1483C21.8 14.1454 21.8 14.1426 21.8 14.1397C21.8 14.1369 21.8 14.134 21.8 14.1312C21.8 14.1284 21.8 14.1255 21.8 14.1227C21.8 14.1198 21.8 14.117 21.8 14.1141C21.8 14.1113 21.8 14.1084 21.8 14.1056C21.8 14.1027 21.8 14.0999 21.8 14.097C21.8 14.0942 21.8 14.0913 21.8 14.0885C21.8 14.0856 21.8 14.0828 21.8 14.0799C21.8 14.0771 21.8 14.0742 21.8 14.0713C21.8 14.0685 21.8 14.0656 21.8 14.0628C21.8 14.0599 21.8 14.0571 21.8 14.0542C21.8 14.0514 21.8 14.0485 21.8 14.0456C21.8 14.0428 21.8 14.0399 21.8 14.0371C21.8 14.0342 21.8 14.0313 21.8 14.0285C21.8 14.0256 21.8 14.0228 21.8 14.0199C21.8 14.017 21.8 14.0142 21.8 14.0113C21.8 14.0085 21.8 14.0056 21.8 14.0027C21.8 13.9999 21.8 13.997 21.8 13.9941C21.8 13.9913 21.8 13.9884 21.8 13.9855C21.8 13.9827 21.8 13.9798 21.8 13.9769C21.8 13.9741 21.8 13.9712 21.8 13.9683C21.8 13.9655 21.8 13.9626 21.8 13.9597C21.8 13.9569 21.8 13.954 21.8 13.9511C21.8 13.9483 21.8 13.9454 21.8 13.9425C21.8 13.9396 21.8 13.9368 21.8 13.9339C21.8 13.931 21.8 13.9281 21.8 13.9253C21.8 13.9224 21.8 13.9195 21.8 13.9166C21.8 13.9138 21.8 13.9109 21.8 13.908C21.8 13.9051 21.8 13.9023 21.8 13.8994C21.8 13.8965 21.8 13.8936 21.8 13.8908C21.8 13.8879 21.8 13.885 21.8 13.8821C21.8 13.8792 21.8 13.8764 21.8 13.8735C21.8 13.8706 21.8 13.8677 21.8 13.8648C21.8 13.862 21.8 13.8591 21.8 13.8562C21.8 13.8533 21.8 13.8504 21.8 13.8475C21.8 13.8447 21.8 13.8418 21.8 13.8389C21.8 13.836 21.8 13.8331 21.8 13.8302C21.8 13.8273 21.8 13.8245 21.8 13.8216C21.8 13.8187 21.8 13.8158 21.8 13.8129C21.8 13.81 21.8 13.8071 21.8 13.8042C21.8 13.8014 21.8 13.7985 21.8 13.7956C21.8 13.7927 21.8 13.7898 21.8 13.7869C21.8 13.784 21.8 13.7811 21.8 13.7782C21.8 13.7753 21.8 13.7724 21.8 13.7695C21.8 13.7667 21.8 13.7638 21.8 13.7609C21.8 13.758 21.8 13.7551 21.8 13.7522C21.8 13.7493 21.8 13.7464 21.8 13.7435C21.8 13.7406 21.8 13.7377 21.8 13.7348C21.8 13.7319 21.8 13.729 21.8 13.7261C21.8 13.7232 21.8 13.7203 21.8 13.7174C21.8 13.7145 21.8 13.7116 21.8 13.7087C21.8 13.7058 21.8 13.7029 21.8 13.7C21.8 13.6971 21.8 13.6942 21.8 13.6913C21.8 13.6884 21.8 13.6855 21.8 13.6826C21.8 13.6797 21.8 13.6768 21.8 13.6739C21.8 13.671 21.8 13.6681 21.8 13.6651C21.8 13.6622 21.8 13.6593 21.8 13.6564C21.8 13.6535 21.8 13.6506 21.8 13.6477C21.8 13.6448 21.8 13.6419 21.8 13.639C21.8 13.6361 21.8 13.6332 21.8 13.6302C21.8 13.6273 21.8 13.6244 21.8 13.6215C21.8 13.6186 21.8 13.6157 21.8 13.6128C21.8 13.6099 21.8 13.607 21.8 13.604C21.8 13.6011 21.8 13.5982 21.8 13.5953C21.8 13.5924 21.8 13.5895 21.8 13.5866C21.8 13.5836 21.8 13.5807 21.8 13.5778C21.8 13.5749 21.8 13.572 21.8 13.5691C21.8 13.5661 21.8 13.5632 21.8 13.5603C21.8 13.5574 21.8 13.5545 21.8 13.5516C21.8 13.5486 21.8 13.5457 21.8 13.5428C21.8 13.5399 21.8 13.5369 21.8 13.534C21.8 13.5311 21.8 13.5282 21.8 13.5253C21.8 13.5223 21.8 13.5194 21.8 13.5165C21.8 13.5136 21.8 13.5106 21.8 13.5077C21.8 13.5048 21.8 13.5019 21.8 13.4989C21.8 13.496 21.8 13.4931 21.8 13.4902C21.8 13.4872 21.8 13.4843 21.8 13.4814C21.8 13.4785 21.8 13.4755 21.8 13.4726C21.8 13.4697 21.8 13.4668 21.8 13.4638C21.8 13.4609 21.8 13.458 21.8 13.455C21.8 13.4521 21.8 13.4492 21.8 13.4462C21.8 13.4433 21.8 13.4404 21.8 13.4375C21.8 13.4345 21.8 13.4316 21.8 13.4287C21.8 13.4257 21.8 13.4228 21.8 13.4199C21.8 13.4169 21.8 13.414 21.8 13.4111C21.8 13.4081 21.8 13.4052 21.8 13.4022C21.8 13.3993 21.8 13.3964 21.8 13.3934C21.8 13.3905 21.8 13.3876 21.8 13.3846C21.8 13.3817 21.8 13.3788 21.8 13.3758C21.8 13.3729 21.8 13.3699 21.8 13.367C21.8 13.3641 21.8 13.3611 21.8 13.3582C21.8 13.3552 21.8 13.3523 21.8 13.3494C21.8 13.3464 21.8 13.3435 21.8 13.3405C21.8 13.3376 21.8 13.3346 21.8 13.3317C21.8 13.3288 21.8 13.3258 21.8 13.3229C21.8 13.3199 21.8 13.317 21.8 13.314C21.8 13.3111 21.8 13.3081 21.8 13.3052C21.8 13.3023 21.8 13.2993 21.8 13.2964C21.8 13.2934 21.8 13.2905 21.8 13.2875C21.8 13.2846 21.8 13.2816 21.8 13.2787C21.8 13.2757 21.8 13.2728 21.8 13.2698C21.8 13.2669 21.8 13.2639 21.8 13.261C21.8 13.258 21.8 13.2551 21.8 13.2521C21.8 13.2492 21.8 13.2462 21.8 13.2433C21.8 13.2403 21.8 13.2374 21.8 13.2344C21.8 13.2315 21.8 13.2285 21.8 13.2256C21.8 13.2226 21.8 13.2196 21.8 13.2167C21.8 13.2137 21.8 13.2108 21.8 13.2078C21.8 13.2049 21.8 13.2019 21.8 13.199C21.8 13.196 21.8 13.193 21.8 13.1901C21.8 13.1871 21.8 13.1842 21.8 13.1812C21.8 13.1783 21.8 13.1753 21.8 13.1723C21.8 13.1694 21.8 13.1664 21.8 13.1635C21.8 13.1605 21.8 13.1575 21.8 13.1546C21.8 13.1516 21.8 13.1487 21.8 13.1457C21.8 13.1427 21.8 13.1398 21.8 13.1368C21.8 13.1339 21.8 13.1309 21.8 13.1279C21.8 13.125 21.8 13.122 21.8 13.119C21.8 13.1161 21.8 13.1131 21.8 13.1101C21.8 13.1072 21.8 13.1042 21.8 13.1012C21.8 13.0983 21.8 13.0953 21.8 13.0923C21.8 13.0894 21.8 13.0864 21.8 13.0834C21.8 13.0805 21.8 13.0775 21.8 13.0745C21.8 13.0716 21.8 13.0686 21.8 13.0656C21.8 13.0627 21.8 13.0597 21.8 13.0567C21.8 13.0538 21.8 13.0508 21.8 13.0478C21.8 13.0448 21.8 13.0419 21.8 13.0389C21.8 13.0359 21.8 13.033 21.8 13.03C21.8 13.027 21.8 13.024 21.8 13.0211C21.8 13.0181 21.8 13.0151 21.8 13.0121C21.8 13.0092 21.8 13.0062 21.8 13.0032C21.8 13.0003 21.8 12.9973 21.8 12.9943C21.8 12.9913 21.8 12.9884 21.8 12.9854C21.8 12.9824 21.8 12.9794 21.8 12.9764C21.8 12.9735 21.8 12.9705 21.8 12.9675C21.8 12.9645 21.8 12.9616 21.8 12.9586C21.8 12.9556 21.8 12.9526 21.8 12.9496C21.8 12.9467 21.8 12.9437 21.8 12.9407C21.8 12.9377 21.8 12.9347 21.8 12.9318C21.8 12.9288 21.8 12.9258 21.8 12.9228C21.8 12.9198 21.8 12.9169 21.8 12.9139C21.8 12.9109 21.8 12.9079 21.8 12.9049C21.8 12.9019 21.8 12.899 21.8 12.896C21.8 12.893 21.8 12.89 21.8 12.887C21.8 12.884 21.8 12.881 21.8 12.8781C21.8 12.8751 21.8 12.8721 21.8 12.8691C21.8 12.8661 21.8 12.8631 21.8 12.8601C21.8 12.8572 21.8 12.8542 21.8 12.8512C21.8 12.8482 21.8 12.8452 21.8 12.8422C21.8 12.8392 21.8 12.8362 21.8 12.8332C21.8 12.8303 21.8 12.8273 21.8 12.8243C21.8 12.8213 21.8 12.8183 21.8 12.8153C21.8 12.8123 21.8 12.8093 21.8 12.8063C21.8 12.8033 21.8 12.8004 21.8 12.7974C21.8 12.7944 21.8 12.7914 21.8 12.7884C21.8 12.7854 21.8 12.7824 21.8 12.7794C21.8 12.7764 21.8 12.7734 21.8 12.7704C21.8 12.7674 21.8 12.7644 21.8 12.7614C21.8 12.7584 21.8 12.7554 21.8 12.7524C21.8 12.7495 21.8 12.7465 21.8 12.7435C21.8 12.7405 21.8 12.7375 21.8 12.7345C21.8 12.7315 21.8 12.7285 21.8 12.7255C21.8 12.7225 21.8 12.7195 21.8 12.7165C21.8 12.7135 21.8 12.7105 21.8 12.7075C21.8 12.7045 21.8 12.7015 21.8 12.6985C21.8 12.6955 21.8 12.6925 21.8 12.6895C21.8 12.6865 21.8 12.6835 21.8 12.6805C21.8 12.6775 21.8 12.6745 21.8 12.6715C21.8 12.6685 21.8 12.6655 21.8 12.6625C21.8 12.6595 21.8 12.6565 21.8 12.6535C21.8 12.6505 21.8 12.6475 21.8 12.6445C21.8 12.6414 21.8 12.6384 21.8 12.6354C21.8 12.6324 21.8 12.6294 21.8 12.6264C21.8 12.6234 21.8 12.6204 21.8 12.6174C21.8 12.6144 21.8 12.6114 21.8 12.6084C21.8 12.6054 21.8 12.6024 21.8 12.5994C21.8 12.5964 21.8 12.5933 21.8 12.5903C21.8 12.5873 21.8 12.5843 21.8 12.5813C21.8 12.5783 21.8 12.5753 21.8 12.5723C21.8 12.5693 21.8 12.5663 21.8 12.5633C21.8 12.5602 21.8 12.5572 21.8 12.5542C21.8 12.5512 21.8 12.5482 21.8 12.5452C21.8 12.5422 21.8 12.5392 21.8 12.5362C21.8 12.5331 21.8 12.5301 21.8 12.5271C21.8 12.5241 21.8 12.5211 21.8 12.5181C21.8 12.5151 21.8 12.5121 21.8 12.509C21.8 12.506 21.8 12.503 21.8 12.5H20.2ZM3.8 16.6773C3.8 15.505 3.8 14.0434 3.8 12.5H2.2C2.2 14.0434 2.2 15.505 2.2 16.6773H3.8ZM18.2826 18.8195C16.4004 19.001 13.8981 19.2 12 19.2V20.8C13.9803 20.8 16.5478 20.5942 18.4361 20.4121L18.2826 18.8195ZM12 19.2C10.1019 19.2 7.59957 19.001 5.71743 18.8195L5.56388 20.4121C7.45221 20.5942 10.0197 20.8 12 20.8V19.2ZM2.2 16.6773C2.2 18.5955 3.6334 20.226 5.56388 20.4121L5.71743 18.8195C4.62839 18.7145 3.8 17.7926 3.8 16.6773H2.2ZM20.2 16.6773C20.2 17.7926 19.3716 18.7145 18.2826 18.8195L18.4361 20.4121C20.3666 20.226 21.8 18.5955 21.8 16.6773H20.2Z" fill="#111111"/>
</svg>
