<svg width="21" height="21" viewBox="0 0 21 21" fill="none" xmlns="http://www.w3.org/2000/svg">
<path d="M2.68465 12.6417C2.68465 12.2895 2.39911 12.0039 2.04688 12.0039C1.69464 12.0039 1.4091 12.2895 1.4091 12.6417L2.68465 12.6417ZM14.9846 12.6417C14.9846 12.2895 14.6991 12.0039 14.3469 12.0039C13.9946 12.0039 13.7091 12.2895 13.7091 12.6417L14.9846 12.6417ZM11.9388 17.5602L11.8821 16.925L11.8821 16.925L11.9388 17.5602ZM13.7091 12.6417C13.7091 12.6433 13.7091 12.6449 13.7091 12.6464C13.7091 12.648 13.7091 12.6496 13.7091 12.6511C13.7091 12.6527 13.7091 12.6543 13.7091 12.6558C13.7091 12.6574 13.7091 12.659 13.7091 12.6605C13.7091 12.6621 13.7091 12.6637 13.7091 12.6652C13.7091 12.6668 13.7091 12.6684 13.7091 12.6699C13.7091 12.6715 13.7091 12.6731 13.7091 12.6746C13.7091 12.6762 13.7091 12.6778 13.7091 12.6793C13.7091 12.6809 13.7091 12.6825 13.7091 12.684C13.7091 12.6856 13.7091 12.6872 13.7091 12.6887C13.7091 12.6903 13.7091 12.6919 13.7091 12.6934C13.7091 12.695 13.7091 12.6966 13.7091 12.6981C13.7091 12.6997 13.7091 12.7013 13.7091 12.7028C13.7091 12.7044 13.7091 12.706 13.7091 12.7075C13.7091 12.7091 13.7091 12.7106 13.7091 12.7122C13.7091 12.7138 13.7091 12.7153 13.7091 12.7169C13.7091 12.7185 13.7091 12.72 13.7091 12.7216C13.7091 12.7232 13.7091 12.7247 13.7091 12.7263C13.7091 12.7278 13.7091 12.7294 13.7091 12.731C13.7091 12.7325 13.7091 12.7341 13.7091 12.7357C13.7091 12.7372 13.7091 12.7388 13.7091 12.7404C13.7091 12.7419 13.7091 12.7435 13.7091 12.745C13.7091 12.7466 13.7091 12.7482 13.7091 12.7497C13.7091 12.7513 13.7091 12.7529 13.7091 12.7544C13.7091 12.756 13.7091 12.7575 13.7091 12.7591C13.7091 12.7607 13.7091 12.7622 13.7091 12.7638C13.7091 12.7653 13.7091 12.7669 13.7091 12.7685C13.7091 12.77 13.7091 12.7716 13.7091 12.7732C13.7091 12.7747 13.7091 12.7763 13.7091 12.7778C13.7091 12.7794 13.7091 12.781 13.7091 12.7825C13.7091 12.7841 13.7091 12.7856 13.7091 12.7872C13.7091 12.7888 13.7091 12.7903 13.7091 12.7919C13.7091 12.7934 13.7091 12.795 13.7091 12.7966C13.7091 12.7981 13.7091 12.7997 13.7091 12.8012C13.7091 12.8028 13.7091 12.8044 13.7091 12.8059C13.7091 12.8075 13.7091 12.809 13.7091 12.8106C13.7091 12.8121 13.7091 12.8137 13.7091 12.8153C13.7091 12.8168 13.7091 12.8184 13.7091 12.8199C13.7091 12.8215 13.7091 12.8231 13.7091 12.8246C13.7091 12.8262 13.7091 12.8277 13.7091 12.8293C13.7091 12.8308 13.7091 12.8324 13.7091 12.834C13.7091 12.8355 13.7091 12.8371 13.7091 12.8386C13.7091 12.8402 13.7091 12.8417 13.7091 12.8433C13.7091 12.8449 13.7091 12.8464 13.7091 12.848C13.7091 12.8495 13.7091 12.8511 13.7091 12.8526C13.7091 12.8542 13.7091 12.8558 13.7091 12.8573C13.7091 12.8589 13.7091 12.8604 13.7091 12.862C13.7091 12.8635 13.7091 12.8651 13.7091 12.8666C13.7091 12.8682 13.7091 12.8698 13.7091 12.8713C13.7091 12.8729 13.7091 12.8744 13.7091 12.876C13.7091 12.8775 13.7091 12.8791 13.7091 12.8806C13.7091 12.8822 13.7091 12.8837 13.7091 12.8853C13.7091 12.8869 13.7091 12.8884 13.7091 12.89C13.7091 12.8915 13.7091 12.8931 13.7091 12.8946C13.7091 12.8962 13.7091 12.8977 13.7091 12.8993C13.7091 12.9008 13.7091 12.9024 13.7091 12.9039C13.7091 12.9055 13.7091 12.907 13.7091 12.9086C13.7091 12.9102 13.7091 12.9117 13.7091 12.9133C13.7091 12.9148 13.7091 12.9164 13.7091 12.9179C13.7091 12.9195 13.7091 12.921 13.7091 12.9226C13.7091 12.9241 13.7091 12.9257 13.7091 12.9272C13.7091 12.9288 13.7091 12.9303 13.7091 12.9319C13.7091 12.9334 13.7091 12.935 13.7091 12.9365C13.7091 12.9381 13.7091 12.9396 13.7091 12.9412C13.7091 12.9427 13.7091 12.9443 13.7091 12.9458C13.7091 12.9474 13.7091 12.9489 13.7091 12.9505C13.7091 12.952 13.7091 12.9536 13.7091 12.9551C13.7091 12.9567 13.7091 12.9582 13.7091 12.9598C13.7091 12.9613 13.7091 12.9629 13.7091 12.9644C13.7091 12.966 13.7091 12.9675 13.7091 12.9691C13.7091 12.9706 13.7091 12.9722 13.7091 12.9737C13.7091 12.9753 13.7091 12.9768 13.7091 12.9784C13.7091 12.9799 13.7091 12.9815 13.7091 12.983C13.7091 12.9846 13.7091 12.9861 13.7091 12.9877C13.7091 12.9892 13.7091 12.9907 13.7091 12.9923C13.7091 12.9938 13.7091 12.9954 13.7091 12.9969C13.7091 12.9985 13.7091 13 13.7091 13.0016C13.7091 13.0031 13.7091 13.0047 13.7091 13.0062C13.7091 13.0078 13.7091 13.0093 13.7091 13.0109C13.7091 13.0124 13.7091 13.0139 13.7091 13.0155C13.7091 13.017 13.7091 13.0186 13.7091 13.0201C13.7091 13.0217 13.7091 13.0232 13.7091 13.0248C13.7091 13.0263 13.7091 13.0278 13.7091 13.0294C13.7091 13.0309 13.7091 13.0325 13.7091 13.034C13.7091 13.0356 13.7091 13.0371 13.7091 13.0387C13.7091 13.0402 13.7091 13.0417 13.7091 13.0433C13.7091 13.0448 13.7091 13.0464 13.7091 13.0479C13.7091 13.0495 13.7091 13.051 13.7091 13.0525C13.7091 13.0541 13.7091 13.0556 13.7091 13.0572C13.7091 13.0587 13.7091 13.0603 13.7091 13.0618C13.7091 13.0633 13.7091 13.0649 13.7091 13.0664C13.7091 13.068 13.7091 13.0695 13.7091 13.0711C13.7091 13.0726 13.7091 13.0741 13.7091 13.0757C13.7091 13.0772 13.7091 13.0788 13.7091 13.0803C13.7091 13.0818 13.7091 13.0834 13.7091 13.0849C13.7091 13.0865 13.7091 13.088 13.7091 13.0895C13.7091 13.0911 13.7091 13.0926 13.7091 13.0942C13.7091 13.0957 13.7091 13.0972 13.7091 13.0988C13.7091 13.1003 13.7091 13.1019 13.7091 13.1034C13.7091 13.1049 13.7091 13.1065 13.7091 13.108C13.7091 13.1096 13.7091 13.1111 13.7091 13.1126C13.7091 13.1142 13.7091 13.1157 13.7091 13.1173C13.7091 13.1188 13.7091 13.1203 13.7091 13.1219C13.7091 13.1234 13.7091 13.1249 13.7091 13.1265C13.7091 13.128 13.7091 13.1296 13.7091 13.1311C13.7091 13.1326 13.7091 13.1342 13.7091 13.1357C13.7091 13.1372 13.7091 13.1388 13.7091 13.1403C13.7091 13.1418 13.7091 13.1434 13.7091 13.1449C13.7091 13.1465 13.7091 13.148 13.7091 13.1495C13.7091 13.1511 13.7091 13.1526 13.7091 13.1541C13.7091 13.1557 13.7091 13.1572 13.7091 13.1587C13.7091 13.1603 13.7091 13.1618 13.7091 13.1633C13.7091 13.1649 13.7091 13.1664 13.7091 13.1679C13.7091 13.1695 13.7091 13.171 13.7091 13.1725C13.7091 13.1741 13.7091 13.1756 13.7091 13.1772C13.7091 13.1787 13.7091 13.1802 13.7091 13.1818C13.7091 13.1833 13.7091 13.1848 13.7091 13.1864C13.7091 13.1879 13.7091 13.1894 13.7091 13.1909C13.7091 13.1925 13.7091 13.194 13.7091 13.1955C13.7091 13.1971 13.7091 13.1986 13.7091 13.2001C13.7091 13.2017 13.7091 13.2032 13.7091 13.2047C13.7091 13.2063 13.7091 13.2078 13.7091 13.2093C13.7091 13.2109 13.7091 13.2124 13.7091 13.2139C13.7091 13.2155 13.7091 13.217 13.7091 13.2185C13.7091 13.22 13.7091 13.2216 13.7091 13.2231C13.7091 13.2246 13.7091 13.2262 13.7091 13.2277C13.7091 13.2292 13.7091 13.2308 13.7091 13.2323C13.7091 13.2338 13.7091 13.2353 13.7091 13.2369C13.7091 13.2384 13.7091 13.2399 13.7091 13.2415C13.7091 13.243 13.7091 13.2445 13.7091 13.246C13.7091 13.2476 13.7091 13.2491 13.7091 13.2506C13.7091 13.2522 13.7091 13.2537 13.7091 13.2552C13.7091 13.2567 13.7091 13.2583 13.7091 13.2598C13.7091 13.2613 13.7091 13.2628 13.7091 13.2644C13.7091 13.2659 13.7091 13.2674 13.7091 13.269C13.7091 13.2705 13.7091 13.272 13.7091 13.2735C13.7091 13.2751 13.7091 13.2766 13.7091 13.2781C13.7091 13.2796 13.7091 13.2812 13.7091 13.2827C13.7091 13.2842 13.7091 13.2857 13.7091 13.2873C13.7091 13.2888 13.7091 13.2903 13.7091 13.2918C13.7091 13.2934 13.7091 13.2949 13.7091 13.2964C13.7091 13.2979 13.7091 13.2995 13.7091 13.301C13.7091 13.3025 13.7091 13.304 13.7091 13.3055C13.7091 13.3071 13.7091 13.3086 13.7091 13.3101C13.7091 13.3116 13.7091 13.3132 13.7091 13.3147C13.7091 13.3162 13.7091 13.3177 13.7091 13.3193C13.7091 13.3208 13.7091 13.3223 13.7091 13.3238C13.7091 13.3253 13.7091 13.3269 13.7091 13.3284C13.7091 13.3299 13.7091 13.3314 13.7091 13.3329C13.7091 13.3345 13.7091 13.336 13.7091 13.3375C13.7091 13.339 13.7091 13.3406 13.7091 13.3421C13.7091 13.3436 13.7091 13.3451 13.7091 13.3466C13.7091 13.3482 13.7091 13.3497 13.7091 13.3512C13.7091 13.3527 13.7091 13.3542 13.7091 13.3557C13.7091 13.3573 13.7091 13.3588 13.7091 13.3603C13.7091 13.3618 13.7091 13.3633 13.7091 13.3649C13.7091 13.3664 13.7091 13.3679 13.7091 13.3694C13.7091 13.3709 13.7091 13.3725 13.7091 13.374C13.7091 13.3755 13.7091 13.377 13.7091 13.3785C13.7091 13.38 13.7091 13.3816 13.7091 13.3831C13.7091 13.3846 13.7091 13.3861 13.7091 13.3876C13.7091 13.3891 13.7091 13.3907 13.7091 13.3922C13.7091 13.3937 13.7091 13.3952 13.7091 13.3967C13.7091 13.3982 13.7091 13.3997 13.7091 13.4013C13.7091 13.4028 13.7091 13.4043 13.7091 13.4058C13.7091 13.4073 13.7091 13.4088 13.7091 13.4104C13.7091 13.4119 13.7091 13.4134 13.7091 13.4149C13.7091 13.4164 13.7091 13.4179 13.7091 13.4194C13.7091 13.4209 13.7091 13.4225 13.7091 13.424C13.7091 13.4255 13.7091 13.427 13.7091 13.4285C13.7091 13.43 13.7091 13.4315 13.7091 13.4331C13.7091 13.4346 13.7091 13.4361 13.7091 13.4376C13.7091 13.4391 13.7091 13.4406 13.7091 13.4421C13.7091 13.4436 13.7091 13.4451 13.7091 13.4467C13.7091 13.4482 13.7091 13.4497 13.7091 13.4512C13.7091 13.4527 13.7091 13.4542 13.7091 13.4557C13.7091 13.4572 13.7091 13.4587 13.7091 13.4603C13.7091 13.4618 13.7091 13.4633 13.7091 13.4648C13.7091 13.4663 13.7091 13.4678 13.7091 13.4693C13.7091 13.4708 13.7091 13.4723 13.7091 13.4738C13.7091 13.4753 13.7091 13.4769 13.7091 13.4784C13.7091 13.4799 13.7091 13.4814 13.7091 13.4829C13.7091 13.4844 13.7091 13.4859 13.7091 13.4874C13.7091 13.4889 13.7091 13.4904 13.7091 13.4919C13.7091 13.4934 13.7091 13.4949 13.7091 13.4964C13.7091 13.498 13.7091 13.4995 13.7091 13.501C13.7091 13.5025 13.7091 13.504 13.7091 13.5055C13.7091 13.507 13.7091 13.5085 13.7091 13.51C13.7091 13.5115 13.7091 13.513 13.7091 13.5145C13.7091 13.516 13.7091 13.5175 13.7091 13.519C13.7091 13.5205 13.7091 13.522 13.7091 13.5235C13.7091 13.525 13.7091 13.5266 13.7091 13.5281C13.7091 13.5296 13.7091 13.5311 13.7091 13.5326C13.7091 13.5341 13.7091 13.5356 13.7091 13.5371C13.7091 13.5386 13.7091 13.5401 13.7091 13.5416C13.7091 13.5431 13.7091 13.5446 13.7091 13.5461C13.7091 13.5476 13.7091 13.5491 13.7091 13.5506C13.7091 13.5521 13.7091 13.5536 13.7091 13.5551C13.7091 13.5566 13.7091 13.5581 13.7091 13.5596C13.7091 13.5611 13.7091 13.5626 13.7091 13.5641C13.7091 13.5656 13.7091 13.5671 13.7091 13.5686C13.7091 13.5701 13.7091 13.5716 13.7091 13.5731C13.7091 13.5746 13.7091 13.5761 13.7091 13.5776C13.7091 13.5791 13.7091 13.5806 13.7091 13.5821C13.7091 13.5836 13.7091 13.5851 13.7091 13.5866C13.7091 13.5881 13.7091 13.5896 13.7091 13.5911C13.7091 13.5926 13.7091 13.5941 13.7091 13.5956C13.7091 13.5971 13.7091 13.5986 13.7091 13.6001C13.7091 13.6016 13.7091 13.6031 13.7091 13.6045C13.7091 13.606 13.7091 13.6075 13.7091 13.609C13.7091 13.6105 13.7091 13.612 13.7091 13.6135C13.7091 13.615 13.7091 13.6165 13.7091 13.618C13.7091 13.6195 13.7091 13.621 13.7091 13.6225C13.7091 13.624 13.7091 13.6255 13.7091 13.627C13.7091 13.6285 13.7091 13.63 13.7091 13.6315C13.7091 13.6329 13.7091 13.6344 13.7091 13.6359C13.7091 13.6374 13.7091 13.6389 13.7091 13.6404C13.7091 13.6419 13.7091 13.6434 13.7091 13.6449C13.7091 13.6464 13.7091 13.6479 13.7091 13.6494C13.7091 13.6509 13.7091 13.6524 13.7091 13.6538C13.7091 13.6553 13.7091 13.6568 13.7091 13.6583C13.7091 13.6598 13.7091 13.6613 13.7091 13.6628C13.7091 13.6643 13.7091 13.6658 13.7091 13.6673C13.7091 13.6687 13.7091 13.6702 13.7091 13.6717C13.7091 13.6732 13.7091 13.6747 13.7091 13.6762C13.7091 13.6777 13.7091 13.6792 13.7091 13.6807C13.7091 13.6821 13.7091 13.6836 13.7091 13.6851C13.7091 13.6866 13.7091 13.6881 13.7091 13.6896C13.7091 13.6911 13.7091 13.6926 13.7091 13.6941C13.7091 13.6955 13.7091 13.697 13.7091 13.6985C13.7091 13.7 13.7091 13.7015 13.7091 13.703C13.7091 13.7045 13.7091 13.7059 13.7091 13.7074C13.7091 13.7089 13.7091 13.7104 13.7091 13.7119C13.7091 13.7134 13.7091 13.7149 13.7091 13.7163C13.7091 13.7178 13.7091 13.7193 13.7091 13.7208C13.7091 13.7223 13.7091 13.7238 13.7091 13.7252C13.7091 13.7267 13.7091 13.7282 13.7091 13.7297C13.7091 13.7312 13.7091 13.7327 13.7091 13.7341C13.7091 13.7356 13.7091 13.7371 13.7091 13.7386C13.7091 13.7401 13.7091 13.7416 13.7091 13.743C13.7091 13.7445 13.7091 13.746 13.7091 13.7475C13.7091 13.749 13.7091 13.7505 13.7091 13.7519C13.7091 13.7534 13.7091 13.7549 13.7091 13.7564C13.7091 13.7579 13.7091 13.7593 13.7091 13.7608C13.7091 13.7623 13.7091 13.7638 13.7091 13.7653C13.7091 13.7667 13.7091 13.7682 13.7091 13.7697C13.7091 13.7712 13.7091 13.7727 13.7091 13.7741C13.7091 13.7756 13.7091 13.7771 13.7091 13.7786C13.7091 13.78 13.7091 13.7815 13.7091 13.783C13.7091 13.7845 13.7091 13.786 13.7091 13.7874C13.7091 13.7889 13.7091 13.7904 13.7091 13.7919C13.7091 13.7933 13.7091 13.7948 13.7091 13.7963C13.7091 13.7978 13.7091 13.7992 13.7091 13.8007C13.7091 13.8022 13.7091 13.8037 13.7091 13.8051C13.7091 13.8066 13.7091 13.8081 13.7091 13.8096C13.7091 13.811 13.7091 13.8125 13.7091 13.814C13.7091 13.8155 13.7091 13.8169 13.7091 13.8184C13.7091 13.8199 13.7091 13.8214 13.7091 13.8228C13.7091 13.8243 13.7091 13.8258 13.7091 13.8273C13.7091 13.8287 13.7091 13.8302 13.7091 13.8317C13.7091 13.8332 13.7091 13.8346 13.7091 13.8361C13.7091 13.8376 13.7091 13.839 13.7091 13.8405C13.7091 13.842 13.7091 13.8435 13.7091 13.8449C13.7091 13.8464 13.7091 13.8479 13.7091 13.8493C13.7091 13.8508 13.7091 13.8523 13.7091 13.8537C13.7091 13.8552 13.7091 13.8567 13.7091 13.8582C13.7091 13.8596 13.7091 13.8611 13.7091 13.8626C13.7091 13.864 13.7091 13.8655 13.7091 13.867C13.7091 13.8684 13.7091 13.8699 13.7091 13.8714C13.7091 13.8728 13.7091 13.8743 13.7091 13.8758C13.7091 13.8772 13.7091 13.8787 13.7091 13.8802C13.7091 13.8816 13.7091 13.8831 13.7091 13.8846C13.7091 13.886 13.7091 13.8875 13.7091 13.889C13.7091 13.8904 13.7091 13.8919 13.7091 13.8934C13.7091 13.8948 13.7091 13.8963 13.7091 13.8978C13.7091 13.8992 13.7091 13.9007 13.7091 13.9022C13.7091 13.9036 13.7091 13.9051 13.7091 13.9066C13.7091 13.908 13.7091 13.9095 13.7091 13.911C13.7091 13.9124 13.7091 13.9139 13.7091 13.9153C13.7091 13.9168 13.7091 13.9183 13.7091 13.9197C13.7091 13.9212 13.7091 13.9227 13.7091 13.9241C13.7091 13.9256 13.7091 13.927 13.7091 13.9285C13.7091 13.93 13.7091 13.9314 13.7091 13.9329C13.7091 13.9343 13.7091 13.9358 13.7091 13.9373C13.7091 13.9387 13.7091 13.9402 13.7091 13.9416C13.7091 13.9431 13.7091 13.9446 13.7091 13.946C13.7091 13.9475 13.7091 13.9489 13.7091 13.9504C13.7091 13.9519 13.7091 13.9533 13.7091 13.9548C13.7091 13.9562 13.7091 13.9577 13.7091 13.9592C13.7091 13.9606 13.7091 13.9621 13.7091 13.9635C13.7091 13.965 13.7091 13.9664 13.7091 13.9679C13.7091 13.9694 13.7091 13.9708 13.7091 13.9723C13.7091 13.9737 13.7091 13.9752 13.7091 13.9766C13.7091 13.9781 13.7091 13.9795 13.7091 13.981C13.7091 13.9825 13.7091 13.9839 13.7091 13.9854C13.7091 13.9868 13.7091 13.9883 13.7091 13.9897C13.7091 13.9912 13.7091 13.9926 13.7091 13.9941C13.7091 13.9955 13.7091 13.997 13.7091 13.9985C13.7091 13.9999 13.7091 14.0014 13.7091 14.0028C13.7091 14.0043 13.7091 14.0057 13.7091 14.0072C13.7091 14.0086 13.7091 14.0101 13.7091 14.0115C13.7091 14.013 13.7091 14.0144 13.7091 14.0159C13.7091 14.0173 13.7091 14.0188 13.7091 14.0202C13.7091 14.0217 13.7091 14.0231 13.7091 14.0246C13.7091 14.026 13.7091 14.0275 13.7091 14.0289C13.7091 14.0304 13.7091 14.0318 13.7091 14.0333C13.7091 14.0347 13.7091 14.0362 13.7091 14.0376C13.7091 14.0391 13.7091 14.0405 13.7091 14.042C13.7091 14.0434 13.7091 14.0449 13.7091 14.0463C13.7091 14.0478 13.7091 14.0492 13.7091 14.0506C13.7091 14.0521 13.7091 14.0535 13.7091 14.055C13.7091 14.0564 13.7091 14.0579 13.7091 14.0593C13.7091 14.0608 13.7091 14.0622 13.7091 14.0637C13.7091 14.0651 13.7091 14.0666 13.7091 14.068C13.7091 14.0694 13.7091 14.0709 13.7091 14.0723C13.7091 14.0738 13.7091 14.0752 13.7091 14.0767C13.7091 14.0781 13.7091 14.0795 13.7091 14.081C13.7091 14.0824 13.7091 14.0839 13.7091 14.0853C13.7091 14.0868 13.7091 14.0882 13.7091 14.0896C13.7091 14.0911 13.7091 14.0925 13.7091 14.094C13.7091 14.0954 13.7091 14.0969 13.7091 14.0983C13.7091 14.0997 13.7091 14.1012 13.7091 14.1026C13.7091 14.1041 13.7091 14.1055 13.7091 14.1069C13.7091 14.1084 13.7091 14.1098 13.7091 14.1113C13.7091 14.1127 13.7091 14.1141 13.7091 14.1156C13.7091 14.117 13.7091 14.1184 13.7091 14.1199C13.7091 14.1213 13.7091 14.1228 13.7091 14.1242C13.7091 14.1256 13.7091 14.1271 13.7091 14.1285C13.7091 14.1299 13.7091 14.1314 13.7091 14.1328C13.7091 14.1343 13.7091 14.1357 13.7091 14.1371C13.7091 14.1386 13.7091 14.14 13.7091 14.1414C13.7091 14.1429 13.7091 14.1443 13.7091 14.1457C13.7091 14.1472 13.7091 14.1486 13.7091 14.15C13.7091 14.1515 13.7091 14.1529 13.7091 14.1543C13.7091 14.1558 13.7091 14.1572 13.7091 14.1586C13.7091 14.1601 13.7091 14.1615 13.7091 14.1629C13.7091 14.1644 13.7091 14.1658 13.7091 14.1672C13.7091 14.1687 13.7091 14.1701 13.7091 14.1715C13.7091 14.173 13.7091 14.1744 13.7091 14.1758C13.7091 14.1773 13.7091 14.1787 13.7091 14.1801C13.7091 14.1816 13.7091 14.183 13.7091 14.1844C13.7091 14.1858 13.7091 14.1873 13.7091 14.1887C13.7091 14.1901 13.7091 14.1916 13.7091 14.193C13.7091 14.1944 13.7091 14.1958 13.7091 14.1973C13.7091 14.1987 13.7091 14.2001 13.7091 14.2016C13.7091 14.203 13.7091 14.2044 13.7091 14.2058C13.7091 14.2073 13.7091 14.2087 13.7091 14.2101C13.7091 14.2115 13.7091 14.213 13.7091 14.2144C13.7091 14.2158 13.7091 14.2172 13.7091 14.2187C13.7091 14.2201 13.7091 14.2215 13.7091 14.2229C13.7091 14.2244 13.7091 14.2258 13.7091 14.2272C13.7091 14.2286 13.7091 14.2301 13.7091 14.2315C13.7091 14.2329 13.7091 14.2343 13.7091 14.2358C13.7091 14.2372 13.7091 14.2386 13.7091 14.24C13.7091 14.2415 13.7091 14.2429 13.7091 14.2443C13.7091 14.2457 13.7091 14.2471 13.7091 14.2486C13.7091 14.25 13.7091 14.2514 13.7091 14.2528C13.7091 14.2542 13.7091 14.2557 13.7091 14.2571C13.7091 14.2585 13.7091 14.2599 13.7091 14.2613C13.7091 14.2628 13.7091 14.2642 13.7091 14.2656C13.7091 14.267 13.7091 14.2684 13.7091 14.2699C13.7091 14.2713 13.7091 14.2727 13.7091 14.2741C13.7091 14.2755 13.7091 14.2769 13.7091 14.2784C13.7091 14.2798 13.7091 14.2812 13.7091 14.2826C13.7091 14.284 13.7091 14.2854 13.7091 14.2869C13.7091 14.2883 13.7091 14.2897 13.7091 14.2911C13.7091 14.2925 13.7091 14.2939 13.7091 14.2954C13.7091 14.2968 13.7091 14.2982 13.7091 14.2996C13.7091 14.301 13.7091 14.3024 13.7091 14.3038C13.7091 14.3052 13.7091 14.3067 13.7091 14.3081C13.7091 14.3095 13.7091 14.3109 13.7091 14.3123C13.7091 14.3137 13.7091 14.3151 13.7091 14.3165C13.7091 14.318 13.7091 14.3194 13.7091 14.3208C13.7091 14.3222 13.7091 14.3236 13.7091 14.325C13.7091 14.3264 13.7091 14.3278 13.7091 14.3292C13.7091 14.3307 13.7091 14.3321 13.7091 14.3335C13.7091 14.3349 13.7091 14.3363 13.7091 14.3377C13.7091 14.3391 13.7091 14.3405 13.7091 14.3419C13.7091 14.3433 13.7091 14.3447 13.7091 14.3462C13.7091 14.3476 13.7091 14.349 13.7091 14.3504C13.7091 14.3518 13.7091 14.3532 13.7091 14.3546C13.7091 14.356 13.7091 14.3574 13.7091 14.3588C13.7091 14.3602 13.7091 14.3616 13.7091 14.363C13.7091 14.3644 13.7091 14.3658 13.7091 14.3672C13.7091 14.3686 13.7091 14.3701 13.7091 14.3715C13.7091 14.3729 13.7091 14.3743 13.7091 14.3757C13.7091 14.3771 13.7091 14.3785 13.7091 14.3799C13.7091 14.3813 13.7091 14.3827 13.7091 14.3841C13.7091 14.3855 13.7091 14.3869 13.7091 14.3883C13.7091 14.3897 13.7091 14.3911 13.7091 14.3925C13.7091 14.3939 13.7091 14.3953 13.7091 14.3967C13.7091 14.3981 13.7091 14.3995 13.7091 14.4009C13.7091 14.4023 13.7091 14.4037 13.7091 14.4051C13.7091 14.4065 13.7091 14.4079 13.7091 14.4093C13.7091 14.4107 13.7091 14.4121 13.7091 14.4135C13.7091 14.4149 13.7091 14.4163 13.7091 14.4177C13.7091 14.4191 13.7091 14.4205 13.7091 14.4219C13.7091 14.4233 13.7091 14.4247 13.7091 14.4261C13.7091 14.4275 13.7091 14.4288 13.7091 14.4302C13.7091 14.4316 13.7091 14.433 13.7091 14.4344C13.7091 14.4358 13.7091 14.4372 13.7091 14.4386C13.7091 14.44 13.7091 14.4414 13.7091 14.4428C13.7091 14.4442 13.7091 14.4456 13.7091 14.447C13.7091 14.4484 13.7091 14.4498 13.7091 14.4511C13.7091 14.4525 13.7091 14.4539 13.7091 14.4553C13.7091 14.4567 13.7091 14.4581 13.7091 14.4595C13.7091 14.4609 13.7091 14.4623 13.7091 14.4637C13.7091 14.4651 13.7091 14.4665 13.7091 14.4678C13.7091 14.4692 13.7091 14.4706 13.7091 14.472C13.7091 14.4734 13.7091 14.4748 13.7091 14.4762C13.7091 14.4776 13.7091 14.479 13.7091 14.4803C13.7091 14.4817 13.7091 14.4831 13.7091 14.4845C13.7091 14.4859 13.7091 14.4873 13.7091 14.4887C13.7091 14.4901 13.7091 14.4914 13.7091 14.4928C13.7091 14.4942 13.7091 14.4956 13.7091 14.497C13.7091 14.4984 13.7091 14.4998 13.7091 14.5011C13.7091 14.5025 13.7091 14.5039 13.7091 14.5053C13.7091 14.5067 13.7091 14.5081 13.7091 14.5094C13.7091 14.5108 13.7091 14.5122 13.7091 14.5136C13.7091 14.515 13.7091 14.5164 13.7091 14.5177C13.7091 14.5191 13.7091 14.5205 13.7091 14.5219C13.7091 14.5233 13.7091 14.5246 13.7091 14.526C13.7091 14.5274 13.7091 14.5288 13.7091 14.5302C13.7091 14.5315 13.7091 14.5329 13.7091 14.5343C13.7091 14.5357 13.7091 14.5371 13.7091 14.5384C13.7091 14.5398 13.7091 14.5412 13.7091 14.5426C13.7091 14.544 13.7091 14.5453 13.7091 14.5467C13.7091 14.5481 13.7091 14.5495 13.7091 14.5508C13.7091 14.5522 13.7091 14.5536 13.7091 14.555C13.7091 14.5564 13.7091 14.5577 13.7091 14.5591C13.7091 14.5605 13.7091 14.5619 13.7091 14.5632C13.7091 14.5646 13.7091 14.566 13.7091 14.5674C13.7091 14.5687 13.7091 14.5701 13.7091 14.5715C13.7091 14.5729 13.7091 14.5742 13.7091 14.5756C13.7091 14.577 13.7091 14.5783 13.7091 14.5797C13.7091 14.5811 13.7091 14.5825 13.7091 14.5838C13.7091 14.5852 13.7091 14.5866 13.7091 14.5879C13.7091 14.5893 13.7091 14.5907 13.7091 14.5921C13.7091 14.5934 13.7091 14.5948 13.7091 14.5962C13.7091 14.5975 13.7091 14.5989 13.7091 14.6003C13.7091 14.6016 13.7091 14.603 13.7091 14.6044C13.7091 14.6058 13.7091 14.6071 13.7091 14.6085C13.7091 14.6099 13.7091 14.6112 13.7091 14.6126C13.7091 14.614 13.7091 14.6153 13.7091 14.6167C13.7091 14.6181 13.7091 14.6194 13.7091 14.6208C13.7091 14.6222 13.7091 14.6235 13.7091 14.6249C13.7091 14.6263 13.7091 14.6276 13.7091 14.629C13.7091 14.6303 13.7091 14.6317 13.7091 14.6331C13.7091 14.6344 13.7091 14.6358 13.7091 14.6372C13.7091 14.6385 13.7091 14.6399 13.7091 14.6413C13.7091 14.6426 13.7091 14.644 13.7091 14.6453C13.7091 14.6467 13.7091 14.6481 13.7091 14.6494C13.7091 14.6508 13.7091 14.6521 13.7091 14.6535C13.7091 14.6549 13.7091 14.6562 13.7091 14.6576C13.7091 14.659 13.7091 14.6603 13.7091 14.6617C13.7091 14.663 13.7091 14.6644 13.7091 14.6657C13.7091 14.6671 13.7091 14.6685 13.7091 14.6698C13.7091 14.6712 13.7091 14.6725 13.7091 14.6739C13.7091 14.6753 13.7091 14.6766 13.7091 14.678C13.7091 14.6793 13.7091 14.6807 13.7091 14.682C13.7091 14.6834 13.7091 14.6847 13.7091 14.6861C13.7091 14.6875 13.7091 14.6888 13.7091 14.6902C13.7091 14.6915 13.7091 14.6929 13.7091 14.6942C13.7091 14.6956 13.7091 14.6969 13.7091 14.6983C13.7091 14.6996 13.7091 14.701 13.7091 14.7023C13.7091 14.7037 13.7091 14.705 13.7091 14.7064C13.7091 14.7078 13.7091 14.7091 13.7091 14.7105C13.7091 14.7118 13.7091 14.7132 13.7091 14.7145C13.7091 14.7159 13.7091 14.7172 13.7091 14.7186C13.7091 14.7199 13.7091 14.7213 13.7091 14.7226C13.7091 14.724 13.7091 14.7253 13.7091 14.7267C13.7091 14.728 13.7091 14.7293 13.7091 14.7307C13.7091 14.732 13.7091 14.7334 13.7091 14.7347C13.7091 14.7361 13.7091 14.7374 13.7091 14.7388C13.7091 14.7401 13.7091 14.7415 13.7091 14.7428C13.7091 14.7442 13.7091 14.7455 13.7091 14.7469C13.7091 14.7482 13.7091 14.7495 13.7091 14.7509C13.7091 14.7522 13.7091 14.7536 13.7091 14.7549C13.7091 14.7563 13.7091 14.7576 13.7091 14.7589C13.7091 14.7603 13.7091 14.7616 13.7091 14.763C13.7091 14.7643 13.7091 14.7657 13.7091 14.767C13.7091 14.7683 13.7091 14.7697 13.7091 14.771C13.7091 14.7724 13.7091 14.7737 13.7091 14.775C13.7091 14.7764 13.7091 14.7777 13.7091 14.7791C13.7091 14.7804 13.7091 14.7817 13.7091 14.7831C13.7091 14.7844 13.7091 14.7858 13.7091 14.7871C13.7091 14.7884 13.7091 14.7898 13.7091 14.7911C13.7091 14.7924 13.7091 14.7938 13.7091 14.7951C13.7091 14.7965 13.7091 14.7978 13.7091 14.7991C13.7091 14.8005 13.7091 14.8018 13.7091 14.8031C13.7091 14.8045 13.7091 14.8058 13.7091 14.8071C13.7091 14.8085 13.7091 14.8098 13.7091 14.8111C13.7091 14.8125 13.7091 14.8138 13.7091 14.8151C13.7091 14.8165 13.7091 14.8178 13.7091 14.8191C13.7091 14.8205 13.7091 14.8218 13.7091 14.8231C13.7091 14.8245 13.7091 14.8258 13.7091 14.8271C13.7091 14.8285 13.7091 14.8298 13.7091 14.8311C13.7091 14.8325 13.7091 14.8338 13.7091 14.8351C13.7091 14.8364 13.7091 14.8378 13.7091 14.8391C13.7091 14.8404 13.7091 14.8418 13.7091 14.8431C13.7091 14.8444 13.7091 14.8457 13.7091 14.8471C13.7091 14.8484 13.7091 14.8497 13.7091 14.851C13.7091 14.8524 13.7091 14.8537 13.7091 14.855C13.7091 14.8564 13.7091 14.8577 13.7091 14.859C13.7091 14.8603 13.7091 14.8617 13.7091 14.863C13.7091 14.8643 13.7091 14.8656 13.7091 14.867C13.7091 14.8683 13.7091 14.8696 13.7091 14.8709C13.7091 14.8722 13.7091 14.8736 13.7091 14.8749C13.7091 14.8762 13.7091 14.8775 13.7091 14.8789C13.7091 14.8802 13.7091 14.8815 13.7091 14.8828C13.7091 14.8841 13.7091 14.8855 13.7091 14.8868C13.7091 14.8881 13.7091 14.8894 13.7091 14.8907L14.9846 14.8907C14.9846 14.8894 14.9846 14.8881 14.9846 14.8868C14.9846 14.8855 14.9846 14.8841 14.9846 14.8828C14.9846 14.8815 14.9846 14.8802 14.9846 14.8789C14.9846 14.8775 14.9846 14.8762 14.9846 14.8749C14.9846 14.8736 14.9846 14.8722 14.9846 14.8709C14.9846 14.8696 14.9846 14.8683 14.9846 14.867C14.9846 14.8656 14.9846 14.8643 14.9846 14.863C14.9846 14.8617 14.9846 14.8603 14.9846 14.859C14.9846 14.8577 14.9846 14.8564 14.9846 14.855C14.9846 14.8537 14.9846 14.8524 14.9846 14.851C14.9846 14.8497 14.9846 14.8484 14.9846 14.8471C14.9846 14.8457 14.9846 14.8444 14.9846 14.8431C14.9846 14.8418 14.9846 14.8404 14.9846 14.8391C14.9846 14.8378 14.9846 14.8364 14.9846 14.8351C14.9846 14.8338 14.9846 14.8325 14.9846 14.8311C14.9846 14.8298 14.9846 14.8285 14.9846 14.8271C14.9846 14.8258 14.9846 14.8245 14.9846 14.8231C14.9846 14.8218 14.9846 14.8205 14.9846 14.8191C14.9846 14.8178 14.9846 14.8165 14.9846 14.8151C14.9846 14.8138 14.9846 14.8125 14.9846 14.8111C14.9846 14.8098 14.9846 14.8085 14.9846 14.8071C14.9846 14.8058 14.9846 14.8045 14.9846 14.8031C14.9846 14.8018 14.9846 14.8005 14.9846 14.7991C14.9846 14.7978 14.9846 14.7965 14.9846 14.7951C14.9846 14.7938 14.9846 14.7924 14.9846 14.7911C14.9846 14.7898 14.9846 14.7884 14.9846 14.7871C14.9846 14.7858 14.9846 14.7844 14.9846 14.7831C14.9846 14.7817 14.9846 14.7804 14.9846 14.7791C14.9846 14.7777 14.9846 14.7764 14.9846 14.775C14.9846 14.7737 14.9846 14.7724 14.9846 14.771C14.9846 14.7697 14.9846 14.7683 14.9846 14.767C14.9846 14.7657 14.9846 14.7643 14.9846 14.763C14.9846 14.7616 14.9846 14.7603 14.9846 14.7589C14.9846 14.7576 14.9846 14.7563 14.9846 14.7549C14.9846 14.7536 14.9846 14.7522 14.9846 14.7509C14.9846 14.7495 14.9846 14.7482 14.9846 14.7469C14.9846 14.7455 14.9846 14.7442 14.9846 14.7428C14.9846 14.7415 14.9846 14.7401 14.9846 14.7388C14.9846 14.7374 14.9846 14.7361 14.9846 14.7347C14.9846 14.7334 14.9846 14.732 14.9846 14.7307C14.9846 14.7293 14.9846 14.728 14.9846 14.7267C14.9846 14.7253 14.9846 14.724 14.9846 14.7226C14.9846 14.7213 14.9846 14.7199 14.9846 14.7186C14.9846 14.7172 14.9846 14.7159 14.9846 14.7145C14.9846 14.7132 14.9846 14.7118 14.9846 14.7105C14.9846 14.7091 14.9846 14.7078 14.9846 14.7064C14.9846 14.705 14.9846 14.7037 14.9846 14.7023C14.9846 14.701 14.9846 14.6996 14.9846 14.6983C14.9846 14.6969 14.9846 14.6956 14.9846 14.6942C14.9846 14.6929 14.9846 14.6915 14.9846 14.6902C14.9846 14.6888 14.9846 14.6875 14.9846 14.6861C14.9846 14.6847 14.9846 14.6834 14.9846 14.682C14.9846 14.6807 14.9846 14.6793 14.9846 14.678C14.9846 14.6766 14.9846 14.6753 14.9846 14.6739C14.9846 14.6725 14.9846 14.6712 14.9846 14.6698C14.9846 14.6685 14.9846 14.6671 14.9846 14.6657C14.9846 14.6644 14.9846 14.663 14.9846 14.6617C14.9846 14.6603 14.9846 14.659 14.9846 14.6576C14.9846 14.6562 14.9846 14.6549 14.9846 14.6535C14.9846 14.6521 14.9846 14.6508 14.9846 14.6494C14.9846 14.6481 14.9846 14.6467 14.9846 14.6453C14.9846 14.644 14.9846 14.6426 14.9846 14.6413C14.9846 14.6399 14.9846 14.6385 14.9846 14.6372C14.9846 14.6358 14.9846 14.6344 14.9846 14.6331C14.9846 14.6317 14.9846 14.6303 14.9846 14.629C14.9846 14.6276 14.9846 14.6263 14.9846 14.6249C14.9846 14.6235 14.9846 14.6222 14.9846 14.6208C14.9846 14.6194 14.9846 14.6181 14.9846 14.6167C14.9846 14.6153 14.9846 14.614 14.9846 14.6126C14.9846 14.6112 14.9846 14.6099 14.9846 14.6085C14.9846 14.6071 14.9846 14.6058 14.9846 14.6044C14.9846 14.603 14.9846 14.6016 14.9846 14.6003C14.9846 14.5989 14.9846 14.5975 14.9846 14.5962C14.9846 14.5948 14.9846 14.5934 14.9846 14.5921C14.9846 14.5907 14.9846 14.5893 14.9846 14.5879C14.9846 14.5866 14.9846 14.5852 14.9846 14.5838C14.9846 14.5825 14.9846 14.5811 14.9846 14.5797C14.9846 14.5783 14.9846 14.577 14.9846 14.5756C14.9846 14.5742 14.9846 14.5729 14.9846 14.5715C14.9846 14.5701 14.9846 14.5687 14.9846 14.5674C14.9846 14.566 14.9846 14.5646 14.9846 14.5632C14.9846 14.5619 14.9846 14.5605 14.9846 14.5591C14.9846 14.5577 14.9846 14.5564 14.9846 14.555C14.9846 14.5536 14.9846 14.5522 14.9846 14.5508C14.9846 14.5495 14.9846 14.5481 14.9846 14.5467C14.9846 14.5453 14.9846 14.544 14.9846 14.5426C14.9846 14.5412 14.9846 14.5398 14.9846 14.5384C14.9846 14.5371 14.9846 14.5357 14.9846 14.5343C14.9846 14.5329 14.9846 14.5315 14.9846 14.5302C14.9846 14.5288 14.9846 14.5274 14.9846 14.526C14.9846 14.5246 14.9846 14.5233 14.9846 14.5219C14.9846 14.5205 14.9846 14.5191 14.9846 14.5177C14.9846 14.5164 14.9846 14.515 14.9846 14.5136C14.9846 14.5122 14.9846 14.5108 14.9846 14.5094C14.9846 14.5081 14.9846 14.5067 14.9846 14.5053C14.9846 14.5039 14.9846 14.5025 14.9846 14.5011C14.9846 14.4998 14.9846 14.4984 14.9846 14.497C14.9846 14.4956 14.9846 14.4942 14.9846 14.4928C14.9846 14.4914 14.9846 14.4901 14.9846 14.4887C14.9846 14.4873 14.9846 14.4859 14.9846 14.4845C14.9846 14.4831 14.9846 14.4817 14.9846 14.4803C14.9846 14.479 14.9846 14.4776 14.9846 14.4762C14.9846 14.4748 14.9846 14.4734 14.9846 14.472C14.9846 14.4706 14.9846 14.4692 14.9846 14.4678C14.9846 14.4665 14.9846 14.4651 14.9846 14.4637C14.9846 14.4623 14.9846 14.4609 14.9846 14.4595C14.9846 14.4581 14.9846 14.4567 14.9846 14.4553C14.9846 14.4539 14.9846 14.4525 14.9846 14.4511C14.9846 14.4498 14.9846 14.4484 14.9846 14.447C14.9846 14.4456 14.9846 14.4442 14.9846 14.4428C14.9846 14.4414 14.9846 14.44 14.9846 14.4386C14.9846 14.4372 14.9846 14.4358 14.9846 14.4344C14.9846 14.433 14.9846 14.4316 14.9846 14.4302C14.9846 14.4288 14.9846 14.4275 14.9846 14.4261C14.9846 14.4247 14.9846 14.4233 14.9846 14.4219C14.9846 14.4205 14.9846 14.4191 14.9846 14.4177C14.9846 14.4163 14.9846 14.4149 14.9846 14.4135C14.9846 14.4121 14.9846 14.4107 14.9846 14.4093C14.9846 14.4079 14.9846 14.4065 14.9846 14.4051C14.9846 14.4037 14.9846 14.4023 14.9846 14.4009C14.9846 14.3995 14.9846 14.3981 14.9846 14.3967C14.9846 14.3953 14.9846 14.3939 14.9846 14.3925C14.9846 14.3911 14.9846 14.3897 14.9846 14.3883C14.9846 14.3869 14.9846 14.3855 14.9846 14.3841C14.9846 14.3827 14.9846 14.3813 14.9846 14.3799C14.9846 14.3785 14.9846 14.3771 14.9846 14.3757C14.9846 14.3743 14.9846 14.3729 14.9846 14.3715C14.9846 14.3701 14.9846 14.3686 14.9846 14.3672C14.9846 14.3658 14.9846 14.3644 14.9846 14.363C14.9846 14.3616 14.9846 14.3602 14.9846 14.3588C14.9846 14.3574 14.9846 14.356 14.9846 14.3546C14.9846 14.3532 14.9846 14.3518 14.9846 14.3504C14.9846 14.349 14.9846 14.3476 14.9846 14.3462C14.9846 14.3447 14.9846 14.3433 14.9846 14.3419C14.9846 14.3405 14.9846 14.3391 14.9846 14.3377C14.9846 14.3363 14.9846 14.3349 14.9846 14.3335C14.9846 14.3321 14.9846 14.3307 14.9846 14.3292C14.9846 14.3278 14.9846 14.3264 14.9846 14.325C14.9846 14.3236 14.9846 14.3222 14.9846 14.3208C14.9846 14.3194 14.9846 14.318 14.9846 14.3165C14.9846 14.3151 14.9846 14.3137 14.9846 14.3123C14.9846 14.3109 14.9846 14.3095 14.9846 14.3081C14.9846 14.3067 14.9846 14.3052 14.9846 14.3038C14.9846 14.3024 14.9846 14.301 14.9846 14.2996C14.9846 14.2982 14.9846 14.2968 14.9846 14.2954C14.9846 14.2939 14.9846 14.2925 14.9846 14.2911C14.9846 14.2897 14.9846 14.2883 14.9846 14.2869C14.9846 14.2854 14.9846 14.284 14.9846 14.2826C14.9846 14.2812 14.9846 14.2798 14.9846 14.2784C14.9846 14.2769 14.9846 14.2755 14.9846 14.2741C14.9846 14.2727 14.9846 14.2713 14.9846 14.2699C14.9846 14.2684 14.9846 14.267 14.9846 14.2656C14.9846 14.2642 14.9846 14.2628 14.9846 14.2613C14.9846 14.2599 14.9846 14.2585 14.9846 14.2571C14.9846 14.2557 14.9846 14.2542 14.9846 14.2528C14.9846 14.2514 14.9846 14.25 14.9846 14.2486C14.9846 14.2471 14.9846 14.2457 14.9846 14.2443C14.9846 14.2429 14.9846 14.2415 14.9846 14.24C14.9846 14.2386 14.9846 14.2372 14.9846 14.2358C14.9846 14.2343 14.9846 14.2329 14.9846 14.2315C14.9846 14.2301 14.9846 14.2286 14.9846 14.2272C14.9846 14.2258 14.9846 14.2244 14.9846 14.2229C14.9846 14.2215 14.9846 14.2201 14.9846 14.2187C14.9846 14.2172 14.9846 14.2158 14.9846 14.2144C14.9846 14.213 14.9846 14.2115 14.9846 14.2101C14.9846 14.2087 14.9846 14.2073 14.9846 14.2058C14.9846 14.2044 14.9846 14.203 14.9846 14.2016C14.9846 14.2001 14.9846 14.1987 14.9846 14.1973C14.9846 14.1958 14.9846 14.1944 14.9846 14.193C14.9846 14.1916 14.9846 14.1901 14.9846 14.1887C14.9846 14.1873 14.9846 14.1858 14.9846 14.1844C14.9846 14.183 14.9846 14.1816 14.9846 14.1801C14.9846 14.1787 14.9846 14.1773 14.9846 14.1758C14.9846 14.1744 14.9846 14.173 14.9846 14.1715C14.9846 14.1701 14.9846 14.1687 14.9846 14.1672C14.9846 14.1658 14.9846 14.1644 14.9846 14.1629C14.9846 14.1615 14.9846 14.1601 14.9846 14.1586C14.9846 14.1572 14.9846 14.1558 14.9846 14.1543C14.9846 14.1529 14.9846 14.1515 14.9846 14.15C14.9846 14.1486 14.9846 14.1472 14.9846 14.1457C14.9846 14.1443 14.9846 14.1429 14.9846 14.1414C14.9846 14.14 14.9846 14.1386 14.9846 14.1371C14.9846 14.1357 14.9846 14.1343 14.9846 14.1328C14.9846 14.1314 14.9846 14.1299 14.9846 14.1285C14.9846 14.1271 14.9846 14.1256 14.9846 14.1242C14.9846 14.1228 14.9846 14.1213 14.9846 14.1199C14.9846 14.1184 14.9846 14.117 14.9846 14.1156C14.9846 14.1141 14.9846 14.1127 14.9846 14.1113C14.9846 14.1098 14.9846 14.1084 14.9846 14.1069C14.9846 14.1055 14.9846 14.1041 14.9846 14.1026C14.9846 14.1012 14.9846 14.0997 14.9846 14.0983C14.9846 14.0969 14.9846 14.0954 14.9846 14.094C14.9846 14.0925 14.9846 14.0911 14.9846 14.0896C14.9846 14.0882 14.9846 14.0868 14.9846 14.0853C14.9846 14.0839 14.9846 14.0824 14.9846 14.081C14.9846 14.0795 14.9846 14.0781 14.9846 14.0767C14.9846 14.0752 14.9846 14.0738 14.9846 14.0723C14.9846 14.0709 14.9846 14.0694 14.9846 14.068C14.9846 14.0666 14.9846 14.0651 14.9846 14.0637C14.9846 14.0622 14.9846 14.0608 14.9846 14.0593C14.9846 14.0579 14.9846 14.0564 14.9846 14.055C14.9846 14.0535 14.9846 14.0521 14.9846 14.0506C14.9846 14.0492 14.9846 14.0478 14.9846 14.0463C14.9846 14.0449 14.9846 14.0434 14.9846 14.042C14.9846 14.0405 14.9846 14.0391 14.9846 14.0376C14.9846 14.0362 14.9846 14.0347 14.9846 14.0333C14.9846 14.0318 14.9846 14.0304 14.9846 14.0289C14.9846 14.0275 14.9846 14.026 14.9846 14.0246C14.9846 14.0231 14.9846 14.0217 14.9846 14.0202C14.9846 14.0188 14.9846 14.0173 14.9846 14.0159C14.9846 14.0144 14.9846 14.013 14.9846 14.0115C14.9846 14.0101 14.9846 14.0086 14.9846 14.0072C14.9846 14.0057 14.9846 14.0043 14.9846 14.0028C14.9846 14.0014 14.9846 13.9999 14.9846 13.9985C14.9846 13.997 14.9846 13.9955 14.9846 13.9941C14.9846 13.9926 14.9846 13.9912 14.9846 13.9897C14.9846 13.9883 14.9846 13.9868 14.9846 13.9854C14.9846 13.9839 14.9846 13.9825 14.9846 13.981C14.9846 13.9795 14.9846 13.9781 14.9846 13.9766C14.9846 13.9752 14.9846 13.9737 14.9846 13.9723C14.9846 13.9708 14.9846 13.9694 14.9846 13.9679C14.9846 13.9664 14.9846 13.965 14.9846 13.9635C14.9846 13.9621 14.9846 13.9606 14.9846 13.9592C14.9846 13.9577 14.9846 13.9562 14.9846 13.9548C14.9846 13.9533 14.9846 13.9519 14.9846 13.9504C14.9846 13.9489 14.9846 13.9475 14.9846 13.946C14.9846 13.9446 14.9846 13.9431 14.9846 13.9416C14.9846 13.9402 14.9846 13.9387 14.9846 13.9373C14.9846 13.9358 14.9846 13.9343 14.9846 13.9329C14.9846 13.9314 14.9846 13.93 14.9846 13.9285C14.9846 13.927 14.9846 13.9256 14.9846 13.9241C14.9846 13.9227 14.9846 13.9212 14.9846 13.9197C14.9846 13.9183 14.9846 13.9168 14.9846 13.9153C14.9846 13.9139 14.9846 13.9124 14.9846 13.911C14.9846 13.9095 14.9846 13.908 14.9846 13.9066C14.9846 13.9051 14.9846 13.9036 14.9846 13.9022C14.9846 13.9007 14.9846 13.8992 14.9846 13.8978C14.9846 13.8963 14.9846 13.8948 14.9846 13.8934C14.9846 13.8919 14.9846 13.8904 14.9846 13.889C14.9846 13.8875 14.9846 13.886 14.9846 13.8846C14.9846 13.8831 14.9846 13.8816 14.9846 13.8802C14.9846 13.8787 14.9846 13.8772 14.9846 13.8758C14.9846 13.8743 14.9846 13.8728 14.9846 13.8714C14.9846 13.8699 14.9846 13.8684 14.9846 13.867C14.9846 13.8655 14.9846 13.864 14.9846 13.8626C14.9846 13.8611 14.9846 13.8596 14.9846 13.8582C14.9846 13.8567 14.9846 13.8552 14.9846 13.8537C14.9846 13.8523 14.9846 13.8508 14.9846 13.8493C14.9846 13.8479 14.9846 13.8464 14.9846 13.8449C14.9846 13.8435 14.9846 13.842 14.9846 13.8405C14.9846 13.839 14.9846 13.8376 14.9846 13.8361C14.9846 13.8346 14.9846 13.8332 14.9846 13.8317C14.9846 13.8302 14.9846 13.8287 14.9846 13.8273C14.9846 13.8258 14.9846 13.8243 14.9846 13.8228C14.9846 13.8214 14.9846 13.8199 14.9846 13.8184C14.9846 13.8169 14.9846 13.8155 14.9846 13.814C14.9846 13.8125 14.9846 13.811 14.9846 13.8096C14.9846 13.8081 14.9846 13.8066 14.9846 13.8051C14.9846 13.8037 14.9846 13.8022 14.9846 13.8007C14.9846 13.7992 14.9846 13.7978 14.9846 13.7963C14.9846 13.7948 14.9846 13.7933 14.9846 13.7919C14.9846 13.7904 14.9846 13.7889 14.9846 13.7874C14.9846 13.786 14.9846 13.7845 14.9846 13.783C14.9846 13.7815 14.9846 13.78 14.9846 13.7786C14.9846 13.7771 14.9846 13.7756 14.9846 13.7741C14.9846 13.7727 14.9846 13.7712 14.9846 13.7697C14.9846 13.7682 14.9846 13.7667 14.9846 13.7653C14.9846 13.7638 14.9846 13.7623 14.9846 13.7608C14.9846 13.7593 14.9846 13.7579 14.9846 13.7564C14.9846 13.7549 14.9846 13.7534 14.9846 13.7519C14.9846 13.7505 14.9846 13.749 14.9846 13.7475C14.9846 13.746 14.9846 13.7445 14.9846 13.743C14.9846 13.7416 14.9846 13.7401 14.9846 13.7386C14.9846 13.7371 14.9846 13.7356 14.9846 13.7341C14.9846 13.7327 14.9846 13.7312 14.9846 13.7297C14.9846 13.7282 14.9846 13.7267 14.9846 13.7252C14.9846 13.7238 14.9846 13.7223 14.9846 13.7208C14.9846 13.7193 14.9846 13.7178 14.9846 13.7163C14.9846 13.7149 14.9846 13.7134 14.9846 13.7119C14.9846 13.7104 14.9846 13.7089 14.9846 13.7074C14.9846 13.7059 14.9846 13.7045 14.9846 13.703C14.9846 13.7015 14.9846 13.7 14.9846 13.6985C14.9846 13.697 14.9846 13.6955 14.9846 13.6941C14.9846 13.6926 14.9846 13.6911 14.9846 13.6896C14.9846 13.6881 14.9846 13.6866 14.9846 13.6851C14.9846 13.6836 14.9846 13.6821 14.9846 13.6807C14.9846 13.6792 14.9846 13.6777 14.9846 13.6762C14.9846 13.6747 14.9846 13.6732 14.9846 13.6717C14.9846 13.6702 14.9846 13.6687 14.9846 13.6673C14.9846 13.6658 14.9846 13.6643 14.9846 13.6628C14.9846 13.6613 14.9846 13.6598 14.9846 13.6583C14.9846 13.6568 14.9846 13.6553 14.9846 13.6538C14.9846 13.6524 14.9846 13.6509 14.9846 13.6494C14.9846 13.6479 14.9846 13.6464 14.9846 13.6449C14.9846 13.6434 14.9846 13.6419 14.9846 13.6404C14.9846 13.6389 14.9846 13.6374 14.9846 13.6359C14.9846 13.6344 14.9846 13.6329 14.9846 13.6315C14.9846 13.63 14.9846 13.6285 14.9846 13.627C14.9846 13.6255 14.9846 13.624 14.9846 13.6225C14.9846 13.621 14.9846 13.6195 14.9846 13.618C14.9846 13.6165 14.9846 13.615 14.9846 13.6135C14.9846 13.612 14.9846 13.6105 14.9846 13.609C14.9846 13.6075 14.9846 13.606 14.9846 13.6045C14.9846 13.6031 14.9846 13.6016 14.9846 13.6001C14.9846 13.5986 14.9846 13.5971 14.9846 13.5956C14.9846 13.5941 14.9846 13.5926 14.9846 13.5911C14.9846 13.5896 14.9846 13.5881 14.9846 13.5866C14.9846 13.5851 14.9846 13.5836 14.9846 13.5821C14.9846 13.5806 14.9846 13.5791 14.9846 13.5776C14.9846 13.5761 14.9846 13.5746 14.9846 13.5731C14.9846 13.5716 14.9846 13.5701 14.9846 13.5686C14.9846 13.5671 14.9846 13.5656 14.9846 13.5641C14.9846 13.5626 14.9846 13.5611 14.9846 13.5596C14.9846 13.5581 14.9846 13.5566 14.9846 13.5551C14.9846 13.5536 14.9846 13.5521 14.9846 13.5506C14.9846 13.5491 14.9846 13.5476 14.9846 13.5461C14.9846 13.5446 14.9846 13.5431 14.9846 13.5416C14.9846 13.5401 14.9846 13.5386 14.9846 13.5371C14.9846 13.5356 14.9846 13.5341 14.9846 13.5326C14.9846 13.5311 14.9846 13.5296 14.9846 13.5281C14.9846 13.5266 14.9846 13.525 14.9846 13.5235C14.9846 13.522 14.9846 13.5205 14.9846 13.519C14.9846 13.5175 14.9846 13.516 14.9846 13.5145C14.9846 13.513 14.9846 13.5115 14.9846 13.51C14.9846 13.5085 14.9846 13.507 14.9846 13.5055C14.9846 13.504 14.9846 13.5025 14.9846 13.501C14.9846 13.4995 14.9846 13.498 14.9846 13.4964C14.9846 13.4949 14.9846 13.4934 14.9846 13.4919C14.9846 13.4904 14.9846 13.4889 14.9846 13.4874C14.9846 13.4859 14.9846 13.4844 14.9846 13.4829C14.9846 13.4814 14.9846 13.4799 14.9846 13.4784C14.9846 13.4769 14.9846 13.4753 14.9846 13.4738C14.9846 13.4723 14.9846 13.4708 14.9846 13.4693C14.9846 13.4678 14.9846 13.4663 14.9846 13.4648C14.9846 13.4633 14.9846 13.4618 14.9846 13.4603C14.9846 13.4587 14.9846 13.4572 14.9846 13.4557C14.9846 13.4542 14.9846 13.4527 14.9846 13.4512C14.9846 13.4497 14.9846 13.4482 14.9846 13.4467C14.9846 13.4451 14.9846 13.4436 14.9846 13.4421C14.9846 13.4406 14.9846 13.4391 14.9846 13.4376C14.9846 13.4361 14.9846 13.4346 14.9846 13.4331C14.9846 13.4315 14.9846 13.43 14.9846 13.4285C14.9846 13.427 14.9846 13.4255 14.9846 13.424C14.9846 13.4225 14.9846 13.4209 14.9846 13.4194C14.9846 13.4179 14.9846 13.4164 14.9846 13.4149C14.9846 13.4134 14.9846 13.4119 14.9846 13.4104C14.9846 13.4088 14.9846 13.4073 14.9846 13.4058C14.9846 13.4043 14.9846 13.4028 14.9846 13.4013C14.9846 13.3997 14.9846 13.3982 14.9846 13.3967C14.9846 13.3952 14.9846 13.3937 14.9846 13.3922C14.9846 13.3907 14.9846 13.3891 14.9846 13.3876C14.9846 13.3861 14.9846 13.3846 14.9846 13.3831C14.9846 13.3816 14.9846 13.38 14.9846 13.3785C14.9846 13.377 14.9846 13.3755 14.9846 13.374C14.9846 13.3725 14.9846 13.3709 14.9846 13.3694C14.9846 13.3679 14.9846 13.3664 14.9846 13.3649C14.9846 13.3633 14.9846 13.3618 14.9846 13.3603C14.9846 13.3588 14.9846 13.3573 14.9846 13.3557C14.9846 13.3542 14.9846 13.3527 14.9846 13.3512C14.9846 13.3497 14.9846 13.3482 14.9846 13.3466C14.9846 13.3451 14.9846 13.3436 14.9846 13.3421C14.9846 13.3406 14.9846 13.339 14.9846 13.3375C14.9846 13.336 14.9846 13.3345 14.9846 13.3329C14.9846 13.3314 14.9846 13.3299 14.9846 13.3284C14.9846 13.3269 14.9846 13.3253 14.9846 13.3238C14.9846 13.3223 14.9846 13.3208 14.9846 13.3193C14.9846 13.3177 14.9846 13.3162 14.9846 13.3147C14.9846 13.3132 14.9846 13.3116 14.9846 13.3101C14.9846 13.3086 14.9846 13.3071 14.9846 13.3055C14.9846 13.304 14.9846 13.3025 14.9846 13.301C14.9846 13.2995 14.9846 13.2979 14.9846 13.2964C14.9846 13.2949 14.9846 13.2934 14.9846 13.2918C14.9846 13.2903 14.9846 13.2888 14.9846 13.2873C14.9846 13.2857 14.9846 13.2842 14.9846 13.2827C14.9846 13.2812 14.9846 13.2796 14.9846 13.2781C14.9846 13.2766 14.9846 13.2751 14.9846 13.2735C14.9846 13.272 14.9846 13.2705 14.9846 13.269C14.9846 13.2674 14.9846 13.2659 14.9846 13.2644C14.9846 13.2628 14.9846 13.2613 14.9846 13.2598C14.9846 13.2583 14.9846 13.2567 14.9846 13.2552C14.9846 13.2537 14.9846 13.2522 14.9846 13.2506C14.9846 13.2491 14.9846 13.2476 14.9846 13.246C14.9846 13.2445 14.9846 13.243 14.9846 13.2415C14.9846 13.2399 14.9846 13.2384 14.9846 13.2369C14.9846 13.2353 14.9846 13.2338 14.9846 13.2323C14.9846 13.2308 14.9846 13.2292 14.9846 13.2277C14.9846 13.2262 14.9846 13.2246 14.9846 13.2231C14.9846 13.2216 14.9846 13.22 14.9846 13.2185C14.9846 13.217 14.9846 13.2155 14.9846 13.2139C14.9846 13.2124 14.9846 13.2109 14.9846 13.2093C14.9846 13.2078 14.9846 13.2063 14.9846 13.2047C14.9846 13.2032 14.9846 13.2017 14.9846 13.2001C14.9846 13.1986 14.9846 13.1971 14.9846 13.1955C14.9846 13.194 14.9846 13.1925 14.9846 13.1909C14.9846 13.1894 14.9846 13.1879 14.9846 13.1864C14.9846 13.1848 14.9846 13.1833 14.9846 13.1818C14.9846 13.1802 14.9846 13.1787 14.9846 13.1772C14.9846 13.1756 14.9846 13.1741 14.9846 13.1725C14.9846 13.171 14.9846 13.1695 14.9846 13.1679C14.9846 13.1664 14.9846 13.1649 14.9846 13.1633C14.9846 13.1618 14.9846 13.1603 14.9846 13.1587C14.9846 13.1572 14.9846 13.1557 14.9846 13.1541C14.9846 13.1526 14.9846 13.1511 14.9846 13.1495C14.9846 13.148 14.9846 13.1465 14.9846 13.1449C14.9846 13.1434 14.9846 13.1418 14.9846 13.1403C14.9846 13.1388 14.9846 13.1372 14.9846 13.1357C14.9846 13.1342 14.9846 13.1326 14.9846 13.1311C14.9846 13.1296 14.9846 13.128 14.9846 13.1265C14.9846 13.1249 14.9846 13.1234 14.9846 13.1219C14.9846 13.1203 14.9846 13.1188 14.9846 13.1173C14.9846 13.1157 14.9846 13.1142 14.9846 13.1126C14.9846 13.1111 14.9846 13.1096 14.9846 13.108C14.9846 13.1065 14.9846 13.1049 14.9846 13.1034C14.9846 13.1019 14.9846 13.1003 14.9846 13.0988C14.9846 13.0972 14.9846 13.0957 14.9846 13.0942C14.9846 13.0926 14.9846 13.0911 14.9846 13.0895C14.9846 13.088 14.9846 13.0865 14.9846 13.0849C14.9846 13.0834 14.9846 13.0818 14.9846 13.0803C14.9846 13.0788 14.9846 13.0772 14.9846 13.0757C14.9846 13.0741 14.9846 13.0726 14.9846 13.0711C14.9846 13.0695 14.9846 13.068 14.9846 13.0664C14.9846 13.0649 14.9846 13.0633 14.9846 13.0618C14.9846 13.0603 14.9846 13.0587 14.9846 13.0572C14.9846 13.0556 14.9846 13.0541 14.9846 13.0525C14.9846 13.051 14.9846 13.0495 14.9846 13.0479C14.9846 13.0464 14.9846 13.0448 14.9846 13.0433C14.9846 13.0417 14.9846 13.0402 14.9846 13.0387C14.9846 13.0371 14.9846 13.0356 14.9846 13.034C14.9846 13.0325 14.9846 13.0309 14.9846 13.0294C14.9846 13.0278 14.9846 13.0263 14.9846 13.0248C14.9846 13.0232 14.9846 13.0217 14.9846 13.0201C14.9846 13.0186 14.9846 13.017 14.9846 13.0155C14.9846 13.0139 14.9846 13.0124 14.9846 13.0109C14.9846 13.0093 14.9846 13.0078 14.9846 13.0062C14.9846 13.0047 14.9846 13.0031 14.9846 13.0016C14.9846 13 14.9846 12.9985 14.9846 12.9969C14.9846 12.9954 14.9846 12.9938 14.9846 12.9923C14.9846 12.9907 14.9846 12.9892 14.9846 12.9877C14.9846 12.9861 14.9846 12.9846 14.9846 12.983C14.9846 12.9815 14.9846 12.9799 14.9846 12.9784C14.9846 12.9768 14.9846 12.9753 14.9846 12.9737C14.9846 12.9722 14.9846 12.9706 14.9846 12.9691C14.9846 12.9675 14.9846 12.966 14.9846 12.9644C14.9846 12.9629 14.9846 12.9613 14.9846 12.9598C14.9846 12.9582 14.9846 12.9567 14.9846 12.9551C14.9846 12.9536 14.9846 12.952 14.9846 12.9505C14.9846 12.9489 14.9846 12.9474 14.9846 12.9458C14.9846 12.9443 14.9846 12.9427 14.9846 12.9412C14.9846 12.9396 14.9846 12.9381 14.9846 12.9365C14.9846 12.935 14.9846 12.9334 14.9846 12.9319C14.9846 12.9303 14.9846 12.9288 14.9846 12.9272C14.9846 12.9257 14.9846 12.9241 14.9846 12.9226C14.9846 12.921 14.9846 12.9195 14.9846 12.9179C14.9846 12.9164 14.9846 12.9148 14.9846 12.9133C14.9846 12.9117 14.9846 12.9102 14.9846 12.9086C14.9846 12.907 14.9846 12.9055 14.9846 12.9039C14.9846 12.9024 14.9846 12.9008 14.9846 12.8993C14.9846 12.8977 14.9846 12.8962 14.9846 12.8946C14.9846 12.8931 14.9846 12.8915 14.9846 12.89C14.9846 12.8884 14.9846 12.8869 14.9846 12.8853C14.9846 12.8837 14.9846 12.8822 14.9846 12.8806C14.9846 12.8791 14.9846 12.8775 14.9846 12.876C14.9846 12.8744 14.9846 12.8729 14.9846 12.8713C14.9846 12.8698 14.9846 12.8682 14.9846 12.8666C14.9846 12.8651 14.9846 12.8635 14.9846 12.862C14.9846 12.8604 14.9846 12.8589 14.9846 12.8573C14.9846 12.8558 14.9846 12.8542 14.9846 12.8526C14.9846 12.8511 14.9846 12.8495 14.9846 12.848C14.9846 12.8464 14.9846 12.8449 14.9846 12.8433C14.9846 12.8417 14.9846 12.8402 14.9846 12.8386C14.9846 12.8371 14.9846 12.8355 14.9846 12.834C14.9846 12.8324 14.9846 12.8308 14.9846 12.8293C14.9846 12.8277 14.9846 12.8262 14.9846 12.8246C14.9846 12.8231 14.9846 12.8215 14.9846 12.8199C14.9846 12.8184 14.9846 12.8168 14.9846 12.8153C14.9846 12.8137 14.9846 12.8121 14.9846 12.8106C14.9846 12.809 14.9846 12.8075 14.9846 12.8059C14.9846 12.8044 14.9846 12.8028 14.9846 12.8012C14.9846 12.7997 14.9846 12.7981 14.9846 12.7966C14.9846 12.795 14.9846 12.7934 14.9846 12.7919C14.9846 12.7903 14.9846 12.7888 14.9846 12.7872C14.9846 12.7856 14.9846 12.7841 14.9846 12.7825C14.9846 12.781 14.9846 12.7794 14.9846 12.7778C14.9846 12.7763 14.9846 12.7747 14.9846 12.7732C14.9846 12.7716 14.9846 12.77 14.9846 12.7685C14.9846 12.7669 14.9846 12.7653 14.9846 12.7638C14.9846 12.7622 14.9846 12.7607 14.9846 12.7591C14.9846 12.7575 14.9846 12.756 14.9846 12.7544C14.9846 12.7529 14.9846 12.7513 14.9846 12.7497C14.9846 12.7482 14.9846 12.7466 14.9846 12.745C14.9846 12.7435 14.9846 12.7419 14.9846 12.7404C14.9846 12.7388 14.9846 12.7372 14.9846 12.7357C14.9846 12.7341 14.9846 12.7325 14.9846 12.731C14.9846 12.7294 14.9846 12.7278 14.9846 12.7263C14.9846 12.7247 14.9846 12.7232 14.9846 12.7216C14.9846 12.72 14.9846 12.7185 14.9846 12.7169C14.9846 12.7153 14.9846 12.7138 14.9846 12.7122C14.9846 12.7106 14.9846 12.7091 14.9846 12.7075C14.9846 12.706 14.9846 12.7044 14.9846 12.7028C14.9846 12.7013 14.9846 12.6997 14.9846 12.6981C14.9846 12.6966 14.9846 12.695 14.9846 12.6934C14.9846 12.6919 14.9846 12.6903 14.9846 12.6887C14.9846 12.6872 14.9846 12.6856 14.9846 12.684C14.9846 12.6825 14.9846 12.6809 14.9846 12.6793C14.9846 12.6778 14.9846 12.6762 14.9846 12.6746C14.9846 12.6731 14.9846 12.6715 14.9846 12.6699C14.9846 12.6684 14.9846 12.6668 14.9846 12.6652C14.9846 12.6637 14.9846 12.6621 14.9846 12.6605C14.9846 12.659 14.9846 12.6574 14.9846 12.6558C14.9846 12.6543 14.9846 12.6527 14.9846 12.6511C14.9846 12.6496 14.9846 12.648 14.9846 12.6464C14.9846 12.6449 14.9846 12.6433 14.9846 12.6417L13.7091 12.6417ZM2.68465 14.8907C2.68465 14.2152 2.68465 13.4447 2.68465 12.6417L1.4091 12.6417C1.4091 13.4447 1.4091 14.2152 1.4091 14.8907L2.68465 14.8907ZM11.8821 16.925C10.6937 17.031 9.29479 17.1289 8.19687 17.1289L8.19687 18.4045C9.35366 18.4045 10.7987 18.3022 11.9955 18.1955L11.8821 16.925ZM8.19687 17.1289C7.09895 17.1289 5.70003 17.031 4.51161 16.925L4.39829 18.1955C5.59506 18.3022 7.04009 18.4045 8.19687 18.4045L8.19687 17.1289ZM1.4091 14.8907C1.4091 16.5917 2.68175 18.0424 4.39829 18.1955L4.51161 16.925C3.47521 16.8325 2.68465 15.9537 2.68465 14.8907L1.4091 14.8907ZM13.7091 14.8907C13.7091 15.9537 12.9185 16.8325 11.8821 16.925L11.9955 18.1955C13.712 18.0424 14.9846 16.5917 14.9846 14.8907L13.7091 14.8907Z" fill="#636363"/>
<path d="M8.19922 13.6666L8.19922 6.83329" stroke="#636363" stroke-width="1.27556" stroke-linecap="round"/>
<line x1="8.19922" y1="6.59641" x2="6.36784" y2="8.42779" stroke="#636363" stroke-width="1.27556" stroke-linecap="round"/>
<line x1="0.637778" y1="-0.637778" x2="3.22774" y2="-0.637778" transform="matrix(0.707107 0.707107 0.707107 -0.707107 8.19922 5.69446)" stroke="#636363" stroke-width="1.27556" stroke-linecap="round"/>
</svg>
