<svg width="14" height="16" viewBox="0 0 14 16" fill="none" xmlns="http://www.w3.org/2000/svg">
<path d="M12.0213 5.22076L5.82105 12.6C5.4793 13.0068 5.01737 13.2757 4.51539 13.3536C4.03326 13.4284 3.47693 13.5032 3.01864 13.5346C2.83787 13.5471 2.685 13.5518 2.56471 13.5492C2.5414 13.4312 2.51973 13.2798 2.50081 13.0995C2.45284 12.6427 2.4306 12.0818 2.4212 11.594C2.41141 11.0861 2.59672 10.5847 2.93847 10.178L9.13004 2.80907C9.5322 2.33043 10.1754 2.22906 10.637 2.52494C10.9298 2.71264 11.2021 2.90332 11.4055 3.07418C11.602 3.23933 11.8243 3.46183 12.0465 3.70367C12.411 4.10061 12.4218 4.7441 12.0213 5.22076ZM2.36429 13.5326C2.35785 13.531 2.3592 13.5309 2.36652 13.5331C2.36566 13.5329 2.36492 13.5328 2.36429 13.5326ZM2.6147 13.7417C2.61819 13.7485 2.61824 13.7498 2.61559 13.7438C2.61534 13.7432 2.61504 13.7425 2.6147 13.7417Z" stroke="#636363" stroke-width="1.4"/>
<path d="M8.34375 3.82178C8.34375 3.82178 9.12447 4.94285 9.80587 5.39148C10.4873 5.8401 11.3355 6.33326 11.3355 6.33326" stroke="#636363" stroke-width="1.4" stroke-linecap="round"/>
</svg>
