<svg width="16" height="16" viewBox="0 0 16 16" fill="none" xmlns="http://www.w3.org/2000/svg">
<path d="M10.0152 2.71257C10.4605 2.18263 11.1861 2.05772 11.7179 2.39866C12.013 2.58784 12.2915 2.78249 12.502 2.95934C12.7055 3.13039 12.9328 3.35816 13.1569 3.60221C13.5784 4.06113 13.5793 4.78988 13.1361 5.31726L6.93589 12.6965C6.57242 13.1291 6.07865 13.418 5.53839 13.5018C5.05492 13.5768 4.49362 13.6524 4.02893 13.6843C3.79488 13.7004 3.60161 13.7042 3.46172 13.695C3.45536 13.6946 3.44923 13.6941 3.44333 13.6937C3.44186 13.6879 3.44037 13.682 3.43886 13.6758C3.40569 13.5396 3.37612 13.3485 3.35163 13.1152C3.30299 12.652 3.28065 12.086 3.27122 11.5969C3.26069 11.0503 3.46016 10.5141 3.82363 10.0815L10.0152 2.71257ZM3.31925 13.6756C3.31936 13.6755 3.32137 13.6761 3.32497 13.6774C3.32095 13.6763 3.31915 13.6757 3.31925 13.6756ZM3.47976 13.8074C3.48166 13.8107 3.48254 13.8126 3.48251 13.8128C3.48248 13.8129 3.48152 13.8112 3.47976 13.8074Z" stroke="#F0F4F8" stroke-width="1.1"/>
<path d="M9.3418 3.82178C9.3418 3.82178 10.1225 4.94285 10.8039 5.39148C11.4853 5.8401 12.3335 6.33326 12.3335 6.33326" stroke="#F0F4F8" stroke-width="1.1" stroke-linecap="round"/>
</svg>
