<svg width="19" height="19" viewBox="0 0 19 19" fill="none" xmlns="http://www.w3.org/2000/svg">
<path d="M19 9.5C19 9.5 15.4375 2.96875 9.5 2.96875C3.5625 2.96875 0 9.5 0 9.5C0 9.5 3.5625 16.0312 9.5 16.0312C15.4375 16.0312 19 9.5 19 9.5ZM1.39294 9.5C1.96711 8.62733 2.62751 7.81456 3.36419 7.07394C4.8925 5.54325 6.9825 4.15625 9.5 4.15625C12.0175 4.15625 14.1063 5.54325 15.637 7.07394C16.3737 7.81456 17.0341 8.62733 17.6082 9.5C17.5394 9.60331 17.4634 9.71731 17.3767 9.842C16.9789 10.412 16.3911 11.172 15.637 11.9261C14.1063 13.4567 12.0163 14.8438 9.5 14.8438C6.9825 14.8438 4.89369 13.4567 3.363 11.9261C2.62633 11.1854 1.96593 10.3727 1.39175 9.5H1.39294Z" fill="black"/>
<path d="M9.5 6.53125C8.71264 6.53125 7.95753 6.84403 7.40078 7.40078C6.84403 7.95753 6.53125 8.71264 6.53125 9.5C6.53125 10.2874 6.84403 11.0425 7.40078 11.5992C7.95753 12.156 8.71264 12.4688 9.5 12.4688C10.2874 12.4688 11.0425 12.156 11.5992 11.5992C12.156 11.0425 12.4688 10.2874 12.4688 9.5C12.4688 8.71264 12.156 7.95753 11.5992 7.40078C11.0425 6.84403 10.2874 6.53125 9.5 6.53125ZM5.34375 9.5C5.34375 8.39769 5.78164 7.34054 6.56109 6.56109C7.34054 5.78164 8.39769 5.34375 9.5 5.34375C10.6023 5.34375 11.6595 5.78164 12.4389 6.56109C13.2184 7.34054 13.6562 8.39769 13.6562 9.5C13.6562 10.6023 13.2184 11.6595 12.4389 12.4389C11.6595 13.2184 10.6023 13.6562 9.5 13.6562C8.39769 13.6562 7.34054 13.2184 6.56109 12.4389C5.78164 11.6595 5.34375 10.6023 5.34375 9.5Z" fill="black"/>
</svg>
