<svg width="24" height="24" viewBox="0 0 24 24" fill="none" xmlns="http://www.w3.org/2000/svg">
<path d="M6.98918 13.8777L6.36263 16.2167L4.07258 16.2651C3.3882 14.9957 3 13.5434 3 12C3 10.5076 3.36295 9.10025 4.00631 7.86102H4.0068L6.04559 8.2348L6.9387 10.2614C6.75177 10.8063 6.64989 11.3913 6.64989 12C6.64996 12.6607 6.76963 13.2937 6.98918 13.8777Z" fill="#FBBB00"/>
<path d="M20.8441 10.3187C20.9475 10.8631 21.0014 11.4253 21.0014 12C21.0014 12.6443 20.9336 13.2728 20.8046 13.8791C20.3664 15.9422 19.2216 17.7437 17.6358 19.0185L17.6353 19.018L15.0673 18.887L14.7039 16.6182C15.7562 16.001 16.5786 15.0353 17.0118 13.8791H12.1992V10.3187H17.082H20.8441Z" fill="#518EF8"/>
<path d="M17.6355 19.0181L17.636 19.0185C16.0937 20.2583 14.1344 21 12.0016 21C8.57422 21 5.59434 19.0843 4.07422 16.2651L6.99082 13.8777C7.75086 15.9061 9.70762 17.3501 12.0016 17.3501C12.9877 17.3501 13.9114 17.0835 14.7041 16.6182L17.6355 19.0181Z" fill="#28B446"/>
<path d="M17.7462 5.07197L14.8306 7.45894C14.0102 6.94615 13.0404 6.64992 12.0015 6.64992C9.65556 6.64992 7.6622 8.16013 6.94023 10.2613L4.0083 7.86098H4.00781C5.50568 4.97307 8.52314 3 12.0015 3C14.1852 3 16.1875 3.77787 17.7462 5.07197Z" fill="#F14336"/>
</svg>
