<svg width="20" height="20" viewBox="0 0 20 20" fill="none" xmlns="http://www.w3.org/2000/svg">
<path d="M10.0006 5.99411C7.78379 5.99411 5.99472 7.78317 5.99472 9.99997C5.99472 12.2168 7.78379 14.0058 10.0006 14.0058C12.2174 14.0058 14.0064 12.2168 14.0064 9.99997C14.0064 7.78317 12.2174 5.99411 10.0006 5.99411ZM10.0006 12.6035C8.56699 12.6035 7.39707 11.4336 7.39707 9.99997C7.39707 8.56637 8.56699 7.39645 10.0006 7.39645C11.4342 7.39645 12.6041 8.56637 12.6041 9.99997C12.6041 11.4336 11.4342 12.6035 10.0006 12.6035ZM14.1705 4.89645C13.6529 4.89645 13.235 5.31442 13.235 5.832C13.235 6.34958 13.6529 6.76755 14.1705 6.76755C14.6881 6.76755 15.1061 6.35153 15.1061 5.832C15.1062 5.7091 15.0821 5.58738 15.0352 5.4738C14.9882 5.36022 14.9193 5.25703 14.8324 5.17013C14.7455 5.08322 14.6423 5.01432 14.5287 4.96735C14.4151 4.92039 14.2934 4.8963 14.1705 4.89645ZM17.8092 9.99997C17.8092 8.92184 17.819 7.85348 17.7584 6.77731C17.6979 5.52731 17.4127 4.41794 16.4986 3.50388C15.5826 2.58786 14.4752 2.30466 13.2252 2.24411C12.1471 2.18356 11.0787 2.19333 10.0025 2.19333C8.92441 2.19333 7.85605 2.18356 6.77988 2.24411C5.52988 2.30466 4.4205 2.58981 3.50644 3.50388C2.59042 4.41989 2.30722 5.52731 2.24667 6.77731C2.18613 7.85544 2.19589 8.9238 2.19589 9.99997C2.19589 11.0761 2.18613 12.1465 2.24667 13.2226C2.30722 14.4726 2.59238 15.582 3.50644 16.4961C4.42246 17.4121 5.52988 17.6953 6.77988 17.7558C7.85801 17.8164 8.92637 17.8066 10.0025 17.8066C11.0807 17.8066 12.149 17.8164 13.2252 17.7558C14.4752 17.6953 15.5846 17.4101 16.4986 16.4961C17.4147 15.58 17.6979 14.4726 17.7584 13.2226C17.8209 12.1465 17.8092 11.0781 17.8092 9.99997ZM16.0904 14.6054C15.9479 14.9609 15.776 15.2265 15.5006 15.5C15.2252 15.7754 14.9615 15.9472 14.6061 16.0898C13.5787 16.498 11.1393 16.4062 10.0006 16.4062C8.86191 16.4062 6.42051 16.498 5.39316 16.0918C5.03769 15.9492 4.77207 15.7773 4.49863 15.5019C4.22324 15.2265 4.05136 14.9629 3.90879 14.6074C3.50254 13.5781 3.59433 11.1386 3.59433 9.99997C3.59433 8.8613 3.50254 6.41989 3.90879 5.39255C4.05136 5.03708 4.22324 4.77145 4.49863 4.49802C4.77402 4.22458 5.03769 4.05075 5.39316 3.90817C6.42051 3.50192 8.86191 3.59372 10.0006 3.59372C11.1393 3.59372 13.5807 3.50192 14.608 3.90817C14.9635 4.05075 15.2291 4.22263 15.5025 4.49802C15.7779 4.77341 15.9498 5.03708 16.0924 5.39255C16.4986 6.41989 16.4068 8.8613 16.4068 9.99997C16.4068 11.1386 16.4986 13.5781 16.0904 14.6054Z" fill="black"/>
</svg>
