<svg width="38" height="31" viewBox="0 0 38 31" fill="none" xmlns="http://www.w3.org/2000/svg">
<path d="M8.66444 21.8101H29.3364V23.6277C29.3364 23.7883 29.2724 23.9426 29.1585 24.056C29.0444 24.1697 28.8898 24.2335 28.7285 24.2335H9.27248C8.93659 24.2335 8.66454 23.9622 8.66454 23.6277L8.66444 21.8101ZM31.7684 12.7226H31.7682C31.7695 13.1437 31.6232 13.5521 31.3545 13.8773C31.0858 14.2023 30.7118 14.4239 30.297 14.5038L29.4335 20.5984H8.56721L7.70396 14.5038H7.70375C7.24911 14.4145 6.84555 14.156 6.5752 13.7812C6.30483 13.4062 6.18778 12.9428 6.24779 12.4849C6.30802 12.027 6.54085 11.6091 6.89879 11.316C7.25695 11.0229 7.71373 10.8767 8.17597 10.9069C8.63846 10.9373 9.0719 11.1419 9.38849 11.4791C9.70509 11.8161 9.88088 12.2609 9.88046 12.7226C9.88046 12.8447 9.86816 12.9664 9.84398 13.0862L13.9299 15.5216L17.7116 9.16036C17.3691 8.81975 17.1766 8.35741 17.1764 7.87523C17.1762 7.39304 17.3683 6.9305 17.7103 6.58945C18.0526 6.24841 18.5166 6.05676 19.0005 6.05676C19.4844 6.05676 19.9484 6.24841 20.2906 6.58945C20.6327 6.93049 20.8248 7.39299 20.8246 7.87523C20.8244 8.35742 20.6318 8.81974 20.2894 9.16036L24.0711 15.5216L28.157 13.0862C28.1328 12.9664 28.1205 12.8447 28.1205 12.7226C28.1205 12.0733 28.4681 11.4734 29.0326 11.1486C29.5969 10.8238 30.2922 10.8238 30.8565 11.1486C31.4209 11.4734 31.7685 12.0733 31.7685 12.7226L31.7684 12.7226ZM8.05644 13.3283C8.10542 13.3305 8.15441 13.3264 8.20254 13.3163C8.33529 13.2793 8.45404 13.2033 8.54289 13.0982C8.54543 13.0725 8.5537 13.0475 8.56727 13.0256C8.57639 13.0006 8.59336 12.9793 8.61583 12.9649C8.65061 12.8891 8.66715 12.806 8.6646 12.7225C8.6646 12.4777 8.51638 12.2566 8.28927 12.1628C8.06195 12.069 7.80049 12.121 7.6266 12.2942C7.45272 12.4675 7.40076 12.728 7.4947 12.9543C7.58886 13.1808 7.81066 13.3283 8.05645 13.3283L8.05644 13.3283ZM18.3924 7.87581C18.3865 8.11881 18.5315 8.34046 18.7572 8.43302C18.9128 8.49768 19.088 8.49768 19.2436 8.43302C19.4692 8.34047 19.6143 8.11882 19.6084 7.87581C19.6084 7.54112 19.3363 7.26982 19.0004 7.26982C18.6645 7.26982 18.3925 7.54112 18.3925 7.87581H18.3924ZM20.7636 17.3025L19.5477 14.8791L19.5475 14.8789C19.4322 14.6877 19.2246 14.5706 19.0004 14.5706C18.7763 14.5706 18.5687 14.6877 18.4533 14.8789L17.2375 17.3023H17.2372C17.1217 17.5343 17.1709 17.8141 17.359 17.9931L18.5749 19.2046C18.6858 19.3209 18.8395 19.3866 19.0004 19.3866C19.1614 19.3866 19.3151 19.3209 19.426 19.2046C19.5427 19.0941 19.6086 18.9409 19.6086 18.7806C19.6086 18.6202 19.5427 18.467 19.426 18.3565L18.5263 17.4477L19.0005 16.5025L19.6693 17.8354C19.8171 18.1367 20.1818 18.2614 20.484 18.1141C20.7862 17.9671 20.9115 17.6034 20.7637 17.3023L20.7636 17.3025ZM30.5524 12.7222C30.5524 12.3877 30.2802 12.1164 29.9445 12.1164C29.6086 12.1164 29.3363 12.3877 29.3363 12.7222C29.3338 12.8056 29.3503 12.8887 29.3851 12.9645C29.4076 12.9789 29.4245 13.0003 29.4337 13.0252C29.4472 13.0472 29.4555 13.0721 29.458 13.0979C29.5469 13.2029 29.6656 13.279 29.7984 13.3159C29.8465 13.3261 29.8955 13.3301 29.9445 13.328C30.1057 13.328 30.2602 13.2642 30.3743 13.1507C30.4884 13.037 30.5524 12.883 30.5524 12.7222L30.5524 12.7222Z" fill="#FF8C00"/>
</svg>
