<svg width="28" height="28" viewBox="0 0 28 28" fill="none" xmlns="http://www.w3.org/2000/svg">
<g clip-path="url(#clip0_1570_4072)">
<path d="M21.2733 5.07594C20.657 4.48909 19.7632 4.29825 18.9609 4.58216C18.734 4.65798 18.5687 4.85467 18.5332 5.09121L18.355 6.31555C18.0849 8.16479 16.5026 9.53815 14.6337 9.54561H12.0883C11.7963 9.54567 11.5418 9.74456 11.4711 10.0279L9.56204 17.664C9.47697 18.005 9.68446 18.3504 10.0255 18.4354C10.0757 18.448 10.1274 18.4543 10.1793 18.4543H13.3609C13.653 18.4543 13.9075 18.2554 13.9782 17.972L15.13 13.3636H17.6117C19.5168 13.37 21.1787 12.0715 21.6334 10.2214L22.103 8.33911C22.4336 7.18129 22.1167 5.93524 21.2733 5.07594Z" fill="#03A9F4"/>
<path d="M0.63618 26.0904C0.284742 26.0904 -0.000119276 25.8054 3.7467e-08 25.4539C3.7467e-08 25.4021 0.00638332 25.3504 0.0189112 25.3001L0.655271 22.7675V22.7408L1.29163 20.2094C1.36232 19.9261 1.61682 19.7272 1.9089 19.7271H3.52775C4.40637 19.7269 5.11873 20.439 5.11897 21.3176C5.11897 21.4477 5.10304 21.5774 5.07155 21.7036L4.91244 22.34C4.73544 23.0484 4.0989 23.5453 3.3687 23.5452H1.77014L1.2547 25.6082C1.18389 25.8919 0.928678 26.091 0.63618 26.0904ZM2.08829 22.2724H3.36858C3.51456 22.272 3.64151 22.1723 3.67659 22.0306L3.83569 21.3942C3.8793 21.2247 3.77717 21.052 3.60769 21.0084C3.58156 21.0017 3.55471 20.9983 3.52769 20.9985H2.40644L2.08829 22.2724Z" fill="#283593"/>
<path d="M7.44001 26.0904H6.53388C5.55969 26.0907 4.76977 25.3011 4.76953 24.3269C4.76947 24.1826 4.78719 24.0388 4.82215 23.8989L4.90615 23.5603C5.09448 22.8005 5.77785 22.268 6.56061 22.2711H7.46674C8.44093 22.2727 9.2293 23.0638 9.22763 24.038C9.22739 24.1816 9.20961 24.3246 9.17471 24.4639L9.09071 24.8024C8.9022 25.5604 8.22098 26.0919 7.44001 26.0904ZM6.05788 24.2081C5.9925 24.4715 6.15297 24.7379 6.4163 24.8033C6.45478 24.8128 6.49421 24.8176 6.53388 24.8178H7.44001C7.63622 24.8183 7.80744 24.6849 7.85492 24.4945L7.93892 24.1559C8.0043 23.8926 7.84383 23.6262 7.5805 23.5608C7.54202 23.5512 7.50259 23.5464 7.46292 23.5463H6.55679C6.36058 23.5458 6.18936 23.6791 6.14188 23.8696L6.05788 24.2081Z" fill="#283593"/>
<path d="M8.2729 26.0904C7.92146 26.0903 7.63666 25.8053 7.63672 25.4539C7.63672 25.402 7.6431 25.3503 7.65563 25.3001L8.29199 22.7547C8.37706 22.4134 8.72259 22.2057 9.06389 22.2908C9.40513 22.3759 9.61285 22.7214 9.52778 23.0627L8.89142 25.6081C8.82061 25.8919 8.5654 26.0909 8.2729 26.0904Z" fill="#283593"/>
<path d="M15.9096 26.0904C15.5582 26.0903 15.2734 25.8053 15.2734 25.4539C15.2734 25.402 15.2798 25.3504 15.2923 25.3001L15.9287 22.7675V22.7407L16.5651 20.2094C16.6358 19.926 16.8903 19.7271 17.1823 19.7271H18.8012C19.6798 19.7269 20.3922 20.4389 20.3924 21.3176C20.3924 21.4477 20.3765 21.5773 20.345 21.7035L20.1859 22.3399C20.0089 23.0483 19.3723 23.5453 18.6421 23.5451H17.0436L16.5282 25.6081C16.4573 25.8919 16.2021 26.0909 15.9096 26.0904ZM17.3617 22.2724H18.6433C18.7893 22.272 18.9163 22.1723 18.9513 22.0306L19.1104 21.3942C19.154 21.2247 19.0519 21.052 18.8824 21.0084C18.8563 21.0017 18.8294 20.9983 18.8024 20.9985H17.6799L17.3617 22.2724Z" fill="#03A9F4"/>
<path d="M22.7134 26.0904H21.8073C20.8331 26.0907 20.0432 25.3011 20.043 24.3269C20.0429 24.1826 20.0606 24.0388 20.0956 23.8989L20.1796 23.5603C20.3679 22.8005 21.0513 22.268 21.834 22.2711H22.7402C23.7144 22.2708 24.5043 23.0604 24.5045 24.0346C24.5046 24.1789 24.4869 24.3227 24.4519 24.4626L24.3679 24.8012C24.1796 25.561 23.4962 26.0935 22.7134 26.0904ZM21.3313 24.2081C21.2659 24.4715 21.4264 24.7379 21.6897 24.8033C21.7282 24.8128 21.7676 24.8176 21.8073 24.8178H22.7134C22.9097 24.8183 23.0809 24.6849 23.1284 24.4945L23.2124 24.1559C23.2777 23.8926 23.1173 23.6262 22.8539 23.5608C22.8155 23.5512 22.776 23.5464 22.7364 23.5463H21.8302C21.634 23.5458 21.4628 23.6791 21.4153 23.8696L21.3313 24.2081Z" fill="#03A9F4"/>
<path d="M23.5463 26.0904C23.1949 26.0903 22.9101 25.8053 22.9102 25.4539C22.9102 25.402 22.9165 25.3503 22.9291 25.3001L23.5654 22.7547C23.6505 22.4134 23.996 22.2057 24.3373 22.2908C24.6786 22.3759 24.8863 22.7214 24.8012 23.0627L24.1649 25.6081C24.094 25.8919 23.8388 26.0909 23.5463 26.0904Z" fill="#03A9F4"/>
<path d="M12.0889 25.4541C11.876 25.454 11.6774 25.3475 11.5594 25.1703L10.2868 23.2613C10.0917 22.9689 10.1706 22.5738 10.463 22.3787C10.7555 22.1836 11.1506 22.2625 11.3457 22.555L12.6183 24.464C12.8137 24.7561 12.7353 25.1513 12.4432 25.3467C12.3384 25.4168 12.215 25.4542 12.0889 25.4541Z" fill="#283593"/>
<path d="M10.8158 27.3633C10.4644 27.3632 10.1796 27.0782 10.1797 26.7267C10.1797 26.578 10.2319 26.434 10.3271 26.3197L13.5088 22.5016C13.734 22.2317 14.1355 22.1955 14.4054 22.4208C14.6752 22.6461 14.7115 23.0475 14.4862 23.3174L11.3045 27.1354C11.1835 27.2801 11.0044 27.3636 10.8158 27.3633Z" fill="#283593"/>
<path d="M26.0893 26.0904C25.7379 26.0903 25.4531 25.8053 25.4531 25.4539C25.4531 25.402 25.4595 25.3504 25.472 25.3001L26.7447 20.2094C26.8298 19.8682 27.1753 19.6604 27.5166 19.7455C27.8578 19.8306 28.0656 20.1761 27.9805 20.5174L26.7078 25.6081C26.6371 25.8919 26.3819 26.091 26.0893 26.0904Z" fill="#03A9F4"/>
<path d="M19.1742 1.73775C18.5628 1.03744 17.6782 0.636008 16.7485 0.636903H9.54509C9.23732 0.636903 8.9737 0.857157 8.91894 1.15997L6.37356 15.1594C6.31098 15.5052 6.54066 15.8363 6.88649 15.8989C6.92383 15.9056 6.96177 15.909 6.99972 15.909H10.8178C11.1098 15.9089 11.3643 15.71 11.435 15.4267L12.5881 10.8183H14.6358C17.1389 10.8085 19.2579 8.96823 19.6183 6.49121L19.9365 4.31618C20.0677 3.38691 19.7896 2.44636 19.1742 1.73775Z" fill="#283593"/>
</g>
<defs>
<clipPath id="clip0_1570_4072">
<rect width="28" height="28" fill="white"/>
</clipPath>
</defs>
</svg>
