<svg width="38" height="38" viewBox="0 0 38 38" fill="none" xmlns="http://www.w3.org/2000/svg">
<path d="M9.5 0C8.19375 0 7.125 1.06875 7.125 2.375V35.625C7.125 36.9313 8.19375 38 9.5 38H33.25C34.5563 38 35.625 36.9313 35.625 35.625V9.5L26.125 0H9.5Z" fill="#E2E5E7"/>
<path d="M28.5 9.5H35.625L26.125 0V7.125C26.125 8.43125 27.1937 9.5 28.5 9.5Z" fill="#B0B7BD"/>
<path d="M35.625 16.625L28.5 9.5H35.625V16.625Z" fill="#CAD1D8"/>
<path d="M30.875 30.875C30.875 31.5281 30.3406 32.0625 29.6875 32.0625H3.5625C2.90937 32.0625 2.375 31.5281 2.375 30.875V19C2.375 18.3469 2.90937 17.8125 3.5625 17.8125H29.6875C30.3406 17.8125 30.875 18.3469 30.875 19V30.875Z" fill="#FF671B"/>
<path d="M7.55469 22.4996C7.55469 22.1861 7.80169 21.8441 8.1995 21.8441H10.3928C11.6278 21.8441 12.7393 22.6706 12.7393 24.2547C12.7393 25.7557 11.6278 26.5917 10.3928 26.5917H8.8075V27.8457C8.8075 28.2637 8.5415 28.5001 8.1995 28.5001C7.886 28.5001 7.55469 28.2637 7.55469 27.8457V22.4996V22.4996ZM8.8075 23.0399V25.4054H10.3928C11.0293 25.4054 11.5328 24.8437 11.5328 24.2547C11.5328 23.5909 11.0293 23.0399 10.3928 23.0399H8.8075Z" fill="white"/>
<path d="M14.6008 28.5C14.2873 28.5 13.9453 28.329 13.9453 27.9122V22.5186C13.9453 22.1778 14.2873 21.9296 14.6008 21.9296H16.7751C21.1142 21.9296 21.0193 28.5 16.8606 28.5H14.6008V28.5ZM15.1993 23.0886V27.3422H16.7751C19.3389 27.3422 19.4529 23.0886 16.7751 23.0886H15.1993V23.0886Z" fill="white"/>
<path d="M22.5546 23.1647V24.674H24.9759C25.3179 24.674 25.6599 25.016 25.6599 25.3473C25.6599 25.6608 25.3179 25.9173 24.9759 25.9173H22.5546V27.9111C22.5546 28.2436 22.3183 28.4989 21.9858 28.4989C21.5678 28.4989 21.3125 28.2436 21.3125 27.9111V22.5175C21.3125 22.1767 21.569 21.9285 21.9858 21.9285H25.3191C25.7371 21.9285 25.9841 22.1767 25.9841 22.5175C25.9841 22.8215 25.7371 23.1635 25.3191 23.1635H22.5546V23.1647Z" fill="white"/>
<path d="M29.6875 32.0625H7.125V33.25H29.6875C30.3406 33.25 30.875 32.7156 30.875 32.0625V30.875C30.875 31.5281 30.3406 32.0625 29.6875 32.0625Z" fill="#CAD1D8"/>
</svg>
