<svg width="66" height="66" viewBox="0 0 66 66" fill="none" xmlns="http://www.w3.org/2000/svg">
<path d="M16.5 0C14.2312 0 12.375 1.85625 12.375 4.125V61.875C12.375 64.1438 14.2312 66 16.5 66H57.75C60.0187 66 61.875 64.1438 61.875 61.875V16.5L45.375 0H16.5Z" fill="#E2E5E7"/>
<path d="M49.5 16.5H61.875L45.375 0V12.375C45.375 14.6438 47.2312 16.5 49.5 16.5Z" fill="#B0B7BD"/>
<path d="M61.875 28.875L49.5 16.5H61.875V28.875Z" fill="#CAD1D8"/>
<path d="M53.625 53.625C53.625 54.7594 52.6969 55.6875 51.5625 55.6875H6.1875C5.05312 55.6875 4.125 54.7594 4.125 53.625V33C4.125 31.8656 5.05312 30.9375 6.1875 30.9375H51.5625C52.6969 30.9375 53.625 31.8656 53.625 33V53.625Z" fill="#A066AA"/>
<path d="M11.9648 39.0782C11.9648 38.5337 12.3918 37.9376 13.0848 37.9376H16.8963C19.0392 37.9376 20.9697 39.3731 20.9697 42.1266C20.9697 44.7336 19.0392 46.1835 16.8963 46.1835H14.1387V48.3615C14.1387 49.0896 13.6808 49.5 13.0848 49.5C12.5403 49.5 11.9648 49.0896 11.9648 48.3615V39.0782ZM14.1387 40.0166V44.1231H16.8942C17.9977 44.1231 18.8722 43.1496 18.8722 42.1266C18.8722 40.9716 17.9977 40.0166 16.8942 40.0166H14.1387Z" fill="white"/>
<path d="M23.0724 39.2432C23.0724 38.6471 23.2044 38.0717 24.0624 38.0717C24.6543 38.0717 24.7884 38.2202 25.2318 38.6471L30.6892 45.4761V39.0782C30.6892 38.5337 31.1656 37.9376 31.7287 37.9376C32.3227 37.9376 32.8981 38.5337 32.8981 39.0782V48.3615C32.8981 49.0896 32.4526 49.3659 32.0236 49.5C31.4482 49.5 31.1656 49.368 30.6892 48.9246L25.2318 41.9966V48.3636C25.2318 49.0916 24.7863 49.5021 24.1923 49.5021C23.5983 49.5021 23.0703 49.0916 23.0703 48.3636V39.2432H23.0724Z" fill="white"/>
<path d="M45.3026 48.2316C44.1311 49.203 42.6956 49.6176 41.2457 49.6176C37.7807 49.6176 35.3242 47.6376 35.3242 43.7127C35.3242 40.3817 37.9147 37.7933 41.3921 37.7933C42.6956 37.7933 44.129 38.2388 45.152 39.2453C46.1585 40.2332 44.7065 41.7017 43.7186 40.8293C43.1081 40.2332 42.2501 39.7898 41.3921 39.7898C39.3977 39.7898 37.4692 41.3882 37.4692 43.7127C37.4692 46.1547 39.0842 47.6376 41.2457 47.6376C42.2501 47.6376 43.1081 47.3406 43.7186 46.8951V44.8697H41.2457C39.7772 44.8697 39.9257 42.8547 41.2457 42.8547H44.5436C45.1541 42.8547 45.713 43.3187 45.713 43.8302V47.3427C45.713 47.6376 45.5831 47.916 45.3026 48.2316Z" fill="white"/>
<path d="M51.5625 55.6875H12.375V57.75H51.5625C52.6969 57.75 53.625 56.8219 53.625 55.6875V53.625C53.625 54.7594 52.6969 55.6875 51.5625 55.6875Z" fill="#CAD1D8"/>
</svg>
