<svg width="38" height="34" viewBox="0 0 38 34" fill="none" xmlns="http://www.w3.org/2000/svg">
<path d="M5.41113 24.0955V29.6471L12.2053 31.5883L18.9994 29.6471L20.9405 26.8714L18.9994 24.0955L12.2053 21.8824L5.41113 24.0955Z" fill="#FBBD00"/>
<path d="M32.5882 24.0955L25.7941 21.8824L19 24.0955V29.6471L25.7941 31.5883L32.5882 29.6471C32.5882 27.706 32.5882 26.0367 32.5882 24.0955Z" fill="#FD8F01"/>
<path d="M5.41113 29.6471V33.5294H18.9994L20.9405 31.5883L18.9994 29.6471C15.3397 29.6471 7.5428 29.6471 5.41113 29.6471Z" fill="#FD8F01"/>
<path d="M32.5882 29.6471C28.9287 29.6471 21.1318 29.6471 19 29.6471V33.5294H32.5882C32.5882 32.1716 32.5882 31.0049 32.5882 29.6471Z" fill="#FF7210"/>
<path d="M12.3623 11.7013C9.15548 10.4186 2.41093 7.72085 0.516602 6.96314C1.10827 9.03425 4.81592 22.0106 5.4116 24.0955H18.9998L20.941 16.0589L18.9998 0.638916C17.2008 3.63726 13.4215 9.93612 12.3623 11.7013Z" fill="#FDD82E"/>
<path d="M32.5881 24.0955C33.1798 22.0245 36.8874 9.04797 37.483 6.96314C34.2763 8.24587 27.5317 10.9437 25.6375 11.7013C23.8384 8.70296 20.0592 2.40409 19 0.638916V24.0955H32.5881Z" fill="#FBBD00"/>
</svg>
