<svg width="66" height="66" viewBox="0 0 66 66" fill="none" xmlns="http://www.w3.org/2000/svg">
<path d="M19.4111 39.0955V44.6471L26.2053 46.5883L32.9994 44.6471L34.9405 41.8714L32.9994 39.0955L26.2053 36.8824L19.4111 39.0955Z" fill="#FBBD00"/>
<path d="M46.5882 39.0955L39.7941 36.8824L33 39.0955V44.6471L39.7941 46.5883L46.5882 44.6471C46.5882 42.706 46.5882 41.0367 46.5882 39.0955Z" fill="#FD8F01"/>
<path d="M19.4111 44.6471V48.5294H32.9994L34.9405 46.5883L32.9994 44.6471C29.3397 44.6471 21.5428 44.6471 19.4111 44.6471Z" fill="#FD8F01"/>
<path d="M46.5882 44.6471C42.9287 44.6471 35.1318 44.6471 33 44.6471V48.5294H46.5882C46.5882 47.1716 46.5882 46.0049 46.5882 44.6471Z" fill="#FF7210"/>
<path d="M26.3623 26.7013C23.1555 25.4186 16.4109 22.7208 14.5166 21.9631C15.1083 24.0343 18.8159 37.0106 19.4116 39.0955H32.9998L34.941 31.0589L32.9998 15.6389C31.2008 18.6373 27.4215 24.9361 26.3623 26.7013Z" fill="#FDD82E"/>
<path d="M46.5881 39.0955C47.1798 37.0245 50.8874 24.048 51.483 21.9631C48.2763 23.2459 41.5317 25.9437 39.6375 26.7013C37.8384 23.703 34.0592 17.4041 33 15.6389V39.0955H46.5881Z" fill="#FBBD00"/>
</svg>
