<svg width="30" height="24" viewBox="0 0 30 24" fill="none" xmlns="http://www.w3.org/2000/svg">
<path d="M23.4481 16.4618L18.3121 6.5994C18.0001 5.98607 17.4001 5.59349 16.7281 5.51989L12.96 5.15196C12.8399 4.56312 12.624 3.97441 12.336 3.43468C11.8319 2.45343 11.1121 1.61917 10.344 1.1285C9.43198 0.564102 8.52006 0.466056 7.80006 0.858624C7.05611 1.2512 6.64811 2.08529 6.60006 3.1648C6.57612 4.09711 6.84013 5.15196 7.34402 6.15787C7.63197 6.72209 7.99206 7.23738 8.40006 7.6544L6.57611 11.04C6.26406 11.6534 6.24012 12.3648 6.57611 12.9781L11.6881 22.8159C12.048 23.5029 12.7441 23.8955 13.4641 23.8955C13.7762 23.8955 14.0881 23.8219 14.4001 23.6501L22.6321 19.185C23.5921 18.6699 23.952 17.4432 23.4481 16.462V16.4618ZM8.08811 3.21381C8.11205 2.72318 8.25619 2.33061 8.49609 2.2079C8.73615 2.08519 9.12004 2.15878 9.528 2.42866C10.08 2.77211 10.608 3.4099 10.992 4.14594C11.136 4.41582 11.256 4.71017 11.3519 5.0047L11.1839 4.98023C10.3918 4.90664 9.62394 5.32369 9.23989 6.03507L9.16791 6.18225C8.99982 5.96148 8.83191 5.69162 8.66382 5.39709C8.28012 4.68589 8.08808 3.87625 8.08808 3.2138L8.08811 3.21381ZM21.9121 17.8602L13.6801 22.3253C13.44 22.448 13.1521 22.3497 13.0321 22.129L7.89606 12.2666C7.82408 12.1194 7.82408 11.9476 7.89606 11.8004L9.60015 8.61103C10.0562 8.85643 10.5122 8.97896 10.9441 8.97896C11.0641 8.97896 11.1842 8.97896 11.304 8.95448C11.712 8.8809 11.976 8.48831 11.904 8.07128C11.8321 7.65424 11.448 7.35991 11.04 7.45795C10.848 7.48242 10.584 7.43348 10.32 7.28614L10.5601 6.81996C10.656 6.64814 10.8001 6.55008 10.992 6.55008H11.04L16.584 7.06537C16.7521 7.08984 16.8961 7.18807 16.9681 7.33525L22.1041 17.1731C22.2239 17.4185 22.1519 17.7128 21.912 17.86L21.9121 17.8602Z" fill="black"/>
<path d="M17.8561 14.72C17.352 13.4933 15.936 12.978 14.808 13.5913L14.1841 13.9348C13.7041 14.1802 13.128 13.9839 12.9121 13.4686C12.744 13.0271 12.9601 12.4874 13.3681 12.2664L14.0881 11.8739C14.3521 11.7267 14.6881 11.8003 14.8801 12.021C14.9282 12.0946 15.0241 12.0946 15.0961 12.0702L15.9121 11.6286C16.008 11.5795 16.0321 11.4568 15.984 11.3588C15.48 10.5736 14.472 10.2793 13.608 10.6718L13.1761 9.83775C13.128 9.73969 13.008 9.71505 12.936 9.76417L12.1201 10.2057C12.0241 10.2548 12 10.3775 12.0481 10.4511L12.48 11.2852C11.544 11.9721 11.256 13.3214 11.928 14.3518C12.552 15.3331 13.8481 15.5785 14.856 15.0388L15.384 14.7444C15.864 14.499 16.4401 14.6953 16.656 15.2106C16.8241 15.6521 16.608 16.1918 16.2 16.4128L15.4799 16.8053C15.2159 16.9525 14.8799 16.8789 14.6879 16.6582C14.6399 16.5846 14.544 16.5846 14.472 16.6091L13.656 17.0506C13.5601 17.0997 13.536 17.2224 13.584 17.3204C14.0881 18.1056 15.0961 18.4 15.9601 18.0074L16.392 18.8415C16.44 18.9395 16.5601 18.9642 16.6321 18.9151L17.448 18.4735C17.5439 18.4244 17.5681 18.3017 17.52 18.2281L17.0881 17.3694C17.88 16.7562 18.2401 15.6767 17.856 14.7199L17.8561 14.72Z" fill="black"/>
</svg>
