<svg width="49" height="41" viewBox="0 0 49 41" fill="none" xmlns="http://www.w3.org/2000/svg">
<path d="M28.2787 40.3C27.7787 38.8 27.5287 37.55 27.5287 36.55C27.5287 35.65 27.6787 34.45 27.9787 32.95C34.6787 32.95 38.0287 29.5 38.0287 22.6C38.0287 20.1 36.7287 18.7 34.1287 18.4C30.3287 18.1 28.4287 15.65 28.4287 11.05C28.4287 7.55 29.2787 4.85 30.9787 2.95C32.5787 1.15 35.5287 0.250001 39.8287 0.250002C45.7287 0.250002 48.6787 4.25 48.6787 12.25C48.6787 20.25 47.0787 26.9 43.8787 32.2C40.6787 37.6 35.4787 40.3 28.2787 40.3ZM1.12871 40.3C0.628712 38.8 0.378711 37.55 0.378711 36.55C0.378711 35.65 0.528712 34.45 0.828715 32.95C7.52871 32.95 10.8787 29.5 10.8787 22.6C10.8787 20.1 9.57871 18.7 6.97871 18.4C3.17871 18.1 1.27871 15.65 1.27872 11.05C1.27872 7.55 2.12872 4.85 3.82871 2.95C5.42871 1.15 8.37872 0.249999 12.6787 0.249999C18.5787 0.25 21.5287 4.25 21.5287 12.25C21.5287 20.25 19.9287 26.9 16.7287 32.2C13.5287 37.6 8.32871 40.3 1.12871 40.3Z" fill="#FF671B"/>
</svg>
