<svg width="23" height="19" viewBox="0 0 23 19" fill="none" xmlns="http://www.w3.org/2000/svg">
<path d="M13.2634 18.74C13.0301 18.04 12.9134 17.4567 12.9134 16.99C12.9134 16.57 12.9834 16.01 13.1234 15.31C16.2501 15.31 17.8134 13.7 17.8134 10.48C17.8134 9.31333 17.2067 8.66 15.9934 8.52C14.2201 8.38 13.3334 7.23667 13.3334 5.09C13.3334 3.45667 13.7301 2.19667 14.5234 1.31C15.2701 0.470001 16.6467 0.0500006 18.6534 0.0500008C21.4067 0.050001 22.7834 1.91667 22.7834 5.65C22.7834 9.38334 22.0367 12.4867 20.5434 14.96C19.0501 17.48 16.6234 18.74 13.2634 18.74ZM0.593401 18.74C0.360067 18.04 0.243399 17.4567 0.243399 16.99C0.243399 16.57 0.3134 16.01 0.453401 15.31C3.58007 15.31 5.1434 13.7 5.1434 10.48C5.1434 9.31333 4.53673 8.66 3.3234 8.52C1.55007 8.38 0.663401 7.23667 0.663401 5.09C0.663401 3.45667 1.06007 2.19667 1.8534 1.31C2.60007 0.47 3.97673 0.0499995 5.9834 0.0499997C8.73674 0.0499999 10.1134 1.91667 10.1134 5.65C10.1134 9.38333 9.36673 12.4867 7.8734 14.96C6.38007 17.48 3.9534 18.74 0.593401 18.74Z" fill="#FF671B"/>
</svg>
