<svg width="19" height="20" viewBox="0 0 19 20" fill="none" xmlns="http://www.w3.org/2000/svg">
<path d="M14.1407 12.2697C13.6729 12.272 13.2115 12.3794 12.7907 12.5838C12.3699 12.7883 12.0004 13.0846 11.7094 13.4509L7.14068 10.5947C7.30719 10.0573 7.30719 9.48206 7.14068 8.94466L11.7094 6.08841C12.1731 6.66261 12.8251 7.05414 13.5499 7.19366C14.2746 7.33318 15.0254 7.21168 15.6691 6.85068C16.3129 6.48967 16.8081 5.91247 17.067 5.22131C17.3259 4.53016 17.3319 3.76967 17.0838 3.07455C16.8357 2.37944 16.3496 1.79457 15.7115 1.42355C15.0735 1.05253 14.3247 0.919315 13.5979 1.04749C12.8711 1.17567 12.213 1.55698 11.7404 2.12386C11.2678 2.69074 11.011 3.40661 11.0157 4.14466C11.0186 4.42415 11.0607 4.70184 11.1407 4.96966L6.57193 7.82591C6.16858 7.31815 5.61727 6.94844 4.9944 6.76803C4.37153 6.58762 3.70797 6.60545 3.09569 6.81904C2.48341 7.03264 1.95273 7.43141 1.57723 7.9601C1.20173 8.48878 1 9.12119 1 9.76966C1 10.4181 1.20173 11.0505 1.57723 11.5792C1.95273 12.1079 2.48341 12.5067 3.09569 12.7203C3.70797 12.9339 4.37153 12.9517 4.9944 12.7713C5.61727 12.5909 6.16858 12.2212 6.57193 11.7134L11.1407 14.5697C11.0607 14.8375 11.0186 15.1152 11.0157 15.3947C11.0157 16.0127 11.199 16.6169 11.5423 17.1308C11.8857 17.6447 12.3738 18.0453 12.9448 18.2818C13.5158 18.5183 14.1441 18.5802 14.7503 18.4596C15.3565 18.339 15.9133 18.0414 16.3504 17.6044C16.7874 17.1673 17.0851 16.6105 17.2056 16.0043C17.3262 15.3981 17.2643 14.7698 17.0278 14.1988C16.7913 13.6278 16.3907 13.1397 15.8768 12.7963C15.3629 12.4529 14.7587 12.2697 14.1407 12.2697ZM14.1407 2.26966C14.5115 2.26966 14.874 2.37963 15.1824 2.58565C15.4907 2.79168 15.731 3.08452 15.873 3.42713C16.0149 3.76974 16.052 4.14674 15.9797 4.51045C15.9073 4.87417 15.7287 5.20826 15.4665 5.47048C15.2043 5.73271 14.8702 5.91128 14.5065 5.98363C14.1428 6.05598 13.7658 6.01885 13.4231 5.87693C13.0805 5.73502 12.7877 5.4947 12.5817 5.18635C12.3756 4.87801 12.2657 4.5155 12.2657 4.14466C12.2657 3.64738 12.4632 3.17046 12.8149 2.81883C13.1665 2.4672 13.6434 2.26966 14.1407 2.26966ZM4.14068 11.6447C3.76984 11.6447 3.40733 11.5347 3.09898 11.3287C2.79064 11.1226 2.55032 10.8298 2.4084 10.4872C2.26649 10.1446 2.22936 9.76758 2.30171 9.40386C2.37405 9.04015 2.55263 8.70606 2.81485 8.44383C3.07708 8.18161 3.41117 8.00303 3.77488 7.93069C4.1386 7.85834 4.5156 7.89547 4.85821 8.03738C5.20082 8.1793 5.49366 8.41962 5.69968 8.72797C5.90571 9.03631 6.01568 9.39882 6.01568 9.76966C6.01568 10.2669 5.81814 10.7439 5.4665 11.0955C5.11487 11.4471 4.63796 11.6447 4.14068 11.6447ZM14.1407 17.2697C13.7698 17.2697 13.4073 17.1597 13.099 16.9537C12.7906 16.7476 12.5503 16.4548 12.4084 16.1122C12.2665 15.7696 12.2294 15.3926 12.3017 15.0289C12.3741 14.6652 12.5526 14.3311 12.8149 14.0688C13.0771 13.8066 13.4112 13.628 13.7749 13.5557C14.1386 13.4833 14.5156 13.5205 14.8582 13.6624C15.2008 13.8043 15.4937 14.0446 15.6997 14.353C15.9057 14.6613 16.0157 15.0238 16.0157 15.3947C16.0157 15.8919 15.8181 16.3689 15.4665 16.7205C15.1149 17.0721 14.638 17.2697 14.1407 17.2697Z" fill="#111111"/>
</svg>
