<svg width="66" height="67" viewBox="0 0 66 67" fill="none" xmlns="http://www.w3.org/2000/svg">
<path d="M55.5686 24.0944V23.5013C55.4436 18.4804 53.3588 13.7133 49.7694 10.2409C46.18 6.7684 41.3775 4.87252 36.4103 4.96712C32.7109 4.93661 29.0817 5.98747 25.9592 7.99325C22.8368 9.99903 20.3542 12.8743 18.8103 16.273C14.4631 16.7632 10.4451 18.8495 7.51854 22.1361C4.59201 25.4226 2.96052 29.6808 2.93359 34.1028C2.9384 36.4459 3.39996 38.7649 4.29188 40.9275C5.18379 43.0901 6.48858 45.0537 8.13165 46.7062C9.77472 48.3586 11.7238 49.6675 13.8676 50.5579C16.0113 51.4484 18.3076 51.903 20.6253 51.8956H27.5003V48.1888H20.6253C17.0817 47.9949 13.7426 46.4502 11.2809 43.866C8.8193 41.2818 7.41821 37.8503 7.36008 34.2631C7.30195 30.676 8.5911 27.1999 10.9677 24.5356C13.3442 21.8713 16.6315 20.2168 20.1669 19.9057H21.3953L21.8169 18.738C22.954 15.7524 24.9702 13.1916 27.5932 11.4017C30.2161 9.61184 33.3194 8.6791 36.4836 8.72956C40.4785 8.63467 44.3486 10.1399 47.2504 12.9173C50.1523 15.6947 51.8506 19.5191 51.9753 23.5569C52.0005 24.0508 52.0005 24.5457 51.9753 25.0396L51.8286 26.3741L53.0203 26.9301C55.3251 27.9798 57.2019 29.8001 58.335 32.0846C59.4681 34.3691 59.7883 36.9784 59.2418 39.4735C58.6952 41.9687 57.3152 44.1974 55.334 45.7847C53.3528 47.372 50.8913 48.221 48.3636 48.1888H38.5003V51.8956H48.3636C51.6241 51.9193 54.7995 50.8439 57.3879 48.8393C59.9763 46.8347 61.8302 44.0153 62.6566 40.8266C63.483 37.6379 63.2348 34.2617 61.9512 31.2316C60.6675 28.2014 58.4217 25.6901 55.5686 24.0944Z" fill="#FF671B" fill-opacity="0.41"/>
<path d="M40.8487 40.4972C41.2144 40.503 41.5735 40.3982 41.8798 40.1961C42.1861 39.9941 42.4256 39.704 42.5676 39.3632C42.7095 39.0224 42.7474 38.6465 42.6763 38.2838C42.6052 37.9211 42.4284 37.5882 42.1687 37.3278L33.002 28.0607L23.8354 37.3278C23.535 37.6824 23.3781 38.1385 23.3959 38.6049C23.4137 39.0714 23.605 39.5139 23.9315 39.8439C24.258 40.174 24.6957 40.3674 25.1571 40.3854C25.6185 40.4034 26.0697 40.2448 26.4204 39.9411L31.1687 35.2149V57.9193C31.1687 58.4108 31.3619 58.8823 31.7057 59.2298C32.0495 59.5774 32.5158 59.7727 33.002 59.7727C33.4883 59.7727 33.9546 59.5774 34.2984 59.2298C34.6422 58.8823 34.8354 58.4108 34.8354 57.9193V35.2149L39.547 39.9782C39.896 40.3184 40.364 40.5049 40.8487 40.4972Z" fill="#FF671B" fill-opacity="0.41"/>
</svg>
