<svg width="31" height="25" viewBox="0 0 31 25" fill="none" xmlns="http://www.w3.org/2000/svg">
<path d="M4.58616 18.044C4.6366 17.584 4.66182 17.354 4.70086 17.1839C5.01205 15.8273 6.10541 14.9172 7.49592 14.8574C7.67035 14.8499 7.92393 14.8685 8.43109 14.9057C9.65796 14.9958 11.04 15.0695 12.2758 15.0695C13.5657 15.0695 14.9961 14.9892 16.2396 14.8938C16.7256 14.8566 16.9686 14.8379 17.1382 14.8441C18.456 14.8922 19.5106 15.7021 19.897 16.963C19.9468 17.1252 19.9872 17.3423 20.0682 17.7764V17.7764C20.1613 18.2756 20.2079 18.5252 20.2178 18.7287C20.2937 20.2829 19.1687 21.6371 17.6269 21.8475C17.4251 21.875 17.1712 21.875 16.6634 21.875L12.2758 21.875H8.02007C7.55459 21.875 7.32186 21.875 7.13225 21.8508C5.65521 21.6618 4.54034 20.418 4.51349 18.9291C4.51005 18.738 4.53542 18.5067 4.58616 18.044V18.044Z" stroke="#111111" stroke-width="1.4"/>
<path d="M8.33203 7.125C8.33203 4.91586 10.1229 3.125 12.332 3.125H12.6654C14.8745 3.125 16.6654 4.91586 16.6654 7.125V7.8869C16.6654 9.85935 15.0664 11.4583 13.0939 11.4583V11.4583H11.9035V11.4583C9.93102 11.4583 8.33203 9.85935 8.33203 7.88691V7.125Z" stroke="#111111" stroke-width="1.4"/>
<circle cx="24.5192" cy="10.0961" r="5.21923" stroke="black" stroke-width="1.1"/>
<path d="M26.6512 11.2382C26.6512 11.5155 26.5792 11.7769 26.4352 12.0222C26.2966 12.2622 26.0886 12.4622 25.8112 12.6222C25.5392 12.7769 25.2166 12.8675 24.8432 12.8942V13.5422H24.3312V12.8862C23.7979 12.8382 23.3686 12.6782 23.0432 12.4062C22.7179 12.1289 22.5499 11.7555 22.5392 11.2862H23.7392C23.7712 11.6702 23.9686 11.9022 24.3312 11.9822V10.4542C23.9472 10.3582 23.6379 10.2622 23.4032 10.1662C23.1686 10.0702 22.9659 9.91552 22.7952 9.70219C22.6246 9.48886 22.5392 9.19819 22.5392 8.83019C22.5392 8.36619 22.7046 7.98752 23.0352 7.69419C23.3712 7.40086 23.8032 7.23286 24.3312 7.19019V6.54219H24.8432V7.19019C25.3552 7.23286 25.7632 7.38752 26.0672 7.65419C26.3766 7.92086 26.5499 8.28886 26.5872 8.75819H25.3792C25.3632 8.60352 25.3072 8.47019 25.2112 8.35819C25.1206 8.24086 24.9979 8.15819 24.8432 8.11019V9.62219C25.2432 9.72352 25.5579 9.82219 25.7872 9.91819C26.0219 10.0089 26.2246 10.1609 26.3952 10.3742C26.5659 10.5822 26.6512 10.8702 26.6512 11.2382ZM23.7072 8.77419C23.7072 8.95019 23.7606 9.09419 23.8672 9.20619C23.9739 9.31286 24.1286 9.40086 24.3312 9.47019V8.08619C24.1392 8.11286 23.9872 8.18486 23.8752 8.30219C23.7632 8.41952 23.7072 8.57686 23.7072 8.77419ZM24.8432 11.9982C25.0459 11.9609 25.2032 11.8782 25.3152 11.7502C25.4326 11.6222 25.4912 11.4675 25.4912 11.2862C25.4912 11.1102 25.4352 10.9689 25.3232 10.8622C25.2112 10.7555 25.0512 10.6675 24.8432 10.5982V11.9982Z" fill="black"/>
</svg>
